 0
SECTION
 2
HEADER
 9
$ACADVER
 1
AC1009
 9
$EXTMIN
 10
-26.25
 20
-26.25
 30
0
 9
$EXTMAX
 10
226.25
 20
126.25
 30
0
 9
$VIEWCTR
 10
100
 20
50
 9
$VIEWSIZE
 40
167.75
 9
$CLAYER
 8
0
 9
$DIMSTYLE
 2
STANDARD
 0
ENDSEC
 0
SECTION
 2
TABLES
 0
TABLE
 2
LAYER
 70
2
 0
LAYER
 2
0
 70
0
 62
0
 6
CONTINUOUS
 0
LAYER
 2
Dimension
 70
0
 62
94
 6
CONTINUOUS
 0
ENDTAB
 0
TABLE
 2
STYLE
 70
1
 0
STYLE
 2
STANDARD
 70
0
 40
0
 41
1
 50
0
 71
0
 42
1
 3
SIMPLEX
 4

 0
ENDTAB
 0
TABLE
 2
DIMSTYLE
 70
1
 0
DIMSTYLE
 2
STANDARD
 70
0
 3

 4

 5

 6

 7

 40
1
 41
2.5
 42
0.625
 43
3.75
 44
1.25
 45
0
 46
0
 47
0
 48
0
 140
2.5
 141
2.5
 142
0
 143
25.4
 144
1
 145
0
 146
1
 147
0.625
 71
0
 72
0
 73
0
 74
0
 75
0
 76
0
 77
0
 78
0
 170
0
 171
2
 172
1
 173
0
 174
0
 175
0
 176
0
 177
0
 178
0
 0
ENDTAB
 0
ENDSEC
 0
SECTION
 2
BLOCKS
 0
BLOCK
 2
*D1
 70
1
 10
0
 20
0
 0
LINE
 8
Dimension
 10
0
 20
-0.625
 11
0
 21
-26.25
 0
LINE
 8
Dimension
 10
200
 20
-0.625
 11
200
 21
-26.25
 0
SOLID
 8
Dimension
 10
2.5
 20
-25.416667
 11
2.5
 21
-24.583333
 12
0
 22
-25
 13
0
 23
-25
 0
SOLID
 8
Dimension
 10
197.5
 20
-24.583333
 11
197.5
 21
-25.416667
 12
200
 22
-25
 13
200
 23
-25
 0
LINE
 8
Dimension
 10
0
 20
-25
 11
0
 21
-25
 0
LINE
 8
Dimension
 10
200
 20
-25
 11
200
 21
-25
 0
LINE
 8
Dimension
 10
0
 20
-25
 11
96.1625
 21
-25
 0
LINE
 8
Dimension
 10
103.8375
 20
-25
 11
200
 21
-25
 0
TEXT
 8
Dimension
 10
100
 20
-25
 40
2.5
 1
200
 11
100
 21
-25
 72
1
 73
2
 0
ENDBLK
 0
BLOCK
 2
*D2
 70
1
 10
0
 20
0
 0
LINE
 8
Dimension
 10
-0.625
 20
0
 11
-26.25
 21
0
 0
LINE
 8
Dimension
 10
-0.625
 20
100
 11
-26.25
 21
100
 0
SOLID
 8
Dimension
 10
-24.583333
 20
2.5
 11
-25.416667
 21
2.5
 12
-25
 22
0
 13
-25
 23
0
 0
SOLID
 8
Dimension
 10
-25.416667
 20
97.5
 11
-24.583333
 21
97.5
 12
-25
 22
100
 13
-25
 23
100
 0
LINE
 8
Dimension
 10
-25
 20
0
 11
-25
 21
0
 0
LINE
 8
Dimension
 10
-25
 20
100
 11
-25
 21
100
 0
LINE
 8
Dimension
 10
-25
 20
0
 11
-25
 21
46.4
 0
LINE
 8
Dimension
 10
-25
 20
53.6
 11
-25
 21
100
 0
TEXT
 8
Dimension
 10
-25
 20
50
 40
2.5
 1
100
 11
-25
 21
50
 50
90
 72
1
 73
2
 0
ENDBLK
 0
BLOCK
 2
*D3
 70
1
 10
0
 20
0
 0
LINE
 8
Dimension
 10
0
 20
100.625
 11
0
 21
126.25
 0
LINE
 8
Dimension
 10
200
 20
100.625
 11
200
 21
126.25
 0
SOLID
 8
Dimension
 10
2.5
 20
124.583333
 11
2.5
 21
125.416667
 12
0
 22
125
 13
0
 23
125
 0
SOLID
 8
Dimension
 10
197.5
 20
125.416667
 11
197.5
 21
124.583333
 12
200
 22
125
 13
200
 23
125
 0
LINE
 8
Dimension
 10
0
 20
125
 11
0
 21
125
 0
LINE
 8
Dimension
 10
200
 20
125
 11
200
 21
125
 0
LINE
 8
Dimension
 10
0
 20
125
 11
96.1625
 21
125
 0
LINE
 8
Dimension
 10
103.8375
 20
125
 11
200
 21
125
 0
TEXT
 8
Dimension
 10
100
 20
125
 40
2.5
 1
200
 11
100
 21
125
 72
1
 73
2
 0
ENDBLK
 0
BLOCK
 2
*D4
 70
1
 10
0
 20
0
 0
LINE
 8
Dimension
 10
200.625
 20
0
 11
226.25
 21
0
 0
LINE
 8
Dimension
 10
200.625
 20
100
 11
226.25
 21
100
 0
SOLID
 8
Dimension
 10
225.416667
 20
2.5
 11
224.583333
 21
2.5
 12
225
 22
0
 13
225
 23
0
 0
SOLID
 8
Dimension
 10
224.583333
 20
97.5
 11
225.416667
 21
97.5
 12
225
 22
100
 13
225
 23
100
 0
LINE
 8
Dimension
 10
225
 20
0
 11
225
 21
0
 0
LINE
 8
Dimension
 10
225
 20
100
 11
225
 21
100
 0
LINE
 8
Dimension
 10
225
 20
0
 11
225
 21
46.4
 0
LINE
 8
Dimension
 10
225
 20
53.6
 11
225
 21
100
 0
TEXT
 8
Dimension
 10
225
 20
50
 40
2.5
 1
100
 11
225
 21
50
 50
90
 72
1
 73
2
 0
ENDBLK
 0
ENDSEC
 0
SECTION
 2
ENTITIES
 0
POLYLINE
 8
0
 66
1
 10
0
 20
0
 70
1
 0
VERTEX
 8
0
 10
0
 20
0
 0
VERTEX
 8
0
 10
200
 20
0
 0
VERTEX
 8
0
 10
200
 20
100
 0
VERTEX
 8
0
 10
0
 20
100
 0
SEQEND
 8
0
 0
DIMENSION
 8
Dimension
 70
0
 2
*D1
 3
STANDARD
 1
<>
 13
0
 23
0
 14
200
 24
0
 10
50
 20
-25
 11
100
 21
-25
 50
0
 0
DIMENSION
 8
Dimension
 70
0
 2
*D2
 3
STANDARD
 1
<>
 13
0
 23
0
 14
0
 24
100
 10
-25
 20
50
 11
-25
 21
50
 50
90
 0
DIMENSION
 8
Dimension
 70
0
 2
*D3
 3
STANDARD
 1
<>
 13
0
 23
100
 14
200
 24
100
 10
50
 20
125
 11
100.00000000000001
 21
124.99999999999999
 50
180
 0
DIMENSION
 8
Dimension
 70
0
 2
*D4
 3
STANDARD
 1
<>
 13
200
 23
0
 14
200
 24
100
 10
225
 20
50
 11
225
 21
50
 50
90
 0
ENDSEC
 0
EOF
