 0
SECTION
 2
HEADER
 9
$ACADVER
 1
AC1009
 9
$EXTMIN
 10
-50.827625
 20
-50.827625
 30
0
 9
$EXTMAX
 10
99.55806
 20
99.55806
 30
0
 9
$VIEWCTR
 10
24.365217208862305
 20
24.365217208862305
 9
$VIEWSIZE
 40
165.424
 9
$CLAYER
 8
0
 9
$DIMSTYLE
 2
STANDARD
 0
ENDSEC
 0
SECTION
 2
TABLES
 0
TABLE
 2
LAYER
 70
2
 0
LAYER
 2
0
 70
0
 62
0
 6
CONTINUOUS
 0
LAYER
 2
Dimension
 70
0
 62
94
 6
CONTINUOUS
 0
ENDTAB
 0
TABLE
 2
STYLE
 70
1
 0
STYLE
 2
STANDARD
 70
0
 40
0
 41
1
 50
0
 71
0
 42
1
 3
SIMPLEX
 4

 0
ENDTAB
 0
TABLE
 2
DIMSTYLE
 70
1
 0
DIMSTYLE
 2
STANDARD
 70
0
 3

 4

 5

 6

 7

 40
1
 41
2.5
 42
0.625
 43
3.75
 44
1.25
 45
0
 46
0
 47
0
 48
0
 140
2.5
 141
2.5
 142
0
 143
25.4
 144
1
 145
0
 146
1
 147
0.625
 71
0
 72
0
 73
0
 74
0
 75
0
 76
0
 77
0
 78
0
 170
0
 171
2
 172
1
 173
0
 174
0
 175
0
 176
0
 177
0
 178
0
 0
ENDTAB
 0
ENDSEC
 0
SECTION
 2
BLOCKS
 0
BLOCK
 2
*D1
 70
1
 10
0
 20
0
 0
LINE
 8
Dimension
 10
50.625
 20
10
 11
96.102814
 21
10
 0
LINE
 8
Dimension
 10
99.558058
 20
99.558058
 11
69.116117
 21
69.116117
 0
SOLID
 8
Dimension
 10
95.232608
 20
12.505867
 11
94.399365
 21
12.493591
 12
94.852814
 22
10
 13
94.852814
 23
10
 0
SOLID
 8
Dimension
 10
71.442598
 20
67.916128
 11
72.04047
 21
68.49664
 12
70
 22
70
 13
70
 23
70
 0
LINE
 8
Dimension
 10
94.852814
 20
10
 11
94.852814
 21
10
 0
LINE
 8
Dimension
 10
70
 20
70
 11
70
 21
70
 0
ARC
 8
Dimension
 10
10
 20
10
 40
84.852814
 50
0
 51
20.313389
 0
ARC
 8
Dimension
 10
10
 20
10
 40
84.852814
 50
24.686611
 51
45
 0
TEXT
 8
Dimension
 10
88.393778
 20
42.471766
 40
2.5
 1
45%%d
 11
88.393778
 21
42.471766
 50
-67.5
 72
1
 73
2
 0
POINT
 8
Dimension
 10
10
 20
10
 0
ENDBLK
 0
BLOCK
 2
*D2
 70
1
 10
0
 20
0
 0
LINE
 8
Dimension
 10
50.625
 20
10
 11
72.077625
 21
10
 0
LINE
 8
Dimension
 10
99.558058
 20
99.558058
 11
52.127743
 21
52.127743
 0
SOLID
 8
Dimension
 10
70.359676
 20
7.50909
 11
71.192833
 21
7.491966
 12
70.827625
 22
10
 13
70.827625
 23
10
 0
SOLID
 8
Dimension
 10
51.496419
 20
55.043315
 11
50.919396
 21
54.442075
 12
53.011626
 22
53.011626
 13
53.011626
 23
53.011626
 0
LINE
 8
Dimension
 10
70.827625
 20
10
 11
70.827625
 21
10
 0
LINE
 8
Dimension
 10
53.011626
 20
53.011626
 11
53.011626
 21
53.011626
 0
ARC
 8
Dimension
 10
10
 20
10
 40
60.827625
 50
-153.552517
 51
0
 0
ARC
 8
Dimension
 10
10
 20
10
 40
60.827625
 50
-315
 51
-161.447483
 0
TEXT
 8
Dimension
 10
-46.197398
 20
-13.277724
 40
2.5
 1
315%%d
 11
-46.197398
 21
-13.277724
 50
-67.5
 72
1
 73
2
 0
POINT
 8
Dimension
 10
10
 20
10
 0
ENDBLK
 0
ENDSEC
 0
SECTION
 2
ENTITIES
 0
DIMENSION
 8
Dimension
 70
5
 2
*D1
 3
STANDARD
 1
<>
 10
70
 20
70
 11
88.39377789258259
 21
42.471766008771816
 13
50
 23
10
 14
100
 24
100
 15
10
 25
10
 0
DIMENSION
 8
Dimension
 70
5
 2
*D2
 3
STANDARD
 1
<>
 10
70
 20
0
 11
-46.19739802869087
 21
-13.2777244335628
 13
50
 23
10
 14
100
 24
100
 15
10
 25
10
 0
ENDSEC
 0
EOF
