 0
SECTION
 2
HEADER
 9
$ACADVER
 1
AC1009
 9
$EXTMIN
 10
0
 20
-71.25
 30
0
 9
$EXTMAX
 10
300
 20
100
 30
0
 9
$VIEWCTR
 10
150
 20
14.375
 9
$VIEWSIZE
 40
198
 9
$CLAYER
 8
0
 9
$DIMSTYLE
 2
STANDARD
 0
ENDSEC
 0
SECTION
 2
TABLES
 0
TABLE
 2
LAYER
 70
2
 0
LAYER
 2
0
 70
0
 62
0
 6
CONTINUOUS
 0
LAYER
 2
Dimension
 70
0
 62
94
 6
CONTINUOUS
 0
ENDTAB
 0
TABLE
 2
STYLE
 70
1
 0
STYLE
 2
STANDARD
 70
0
 40
0
 41
1
 50
0
 71
0
 42
1
 3
SIMPLEX
 4

 0
ENDTAB
 0
TABLE
 2
DIMSTYLE
 70
1
 0
DIMSTYLE
 2
STANDARD
 70
0
 3

 4

 5

 6

 7

 40
1
 41
2.5
 42
0.625
 43
3.75
 44
1.25
 45
0
 46
0
 47
0
 48
0
 140
2.5
 141
2.5
 142
0
 143
25.4
 144
1
 145
0
 146
1
 147
0.625
 71
0
 72
0
 73
0
 74
0
 75
0
 76
0
 77
0
 78
0
 170
0
 171
2
 172
1
 173
0
 174
0
 175
0
 176
0
 177
0
 178
0
 0
ENDTAB
 0
ENDSEC
 0
SECTION
 2
BLOCKS
 0
BLOCK
 2
*D1
 70
1
 10
0
 20
0
 0
LINE
 8
Dimension
 10
0
 20
-0.625
 11
0
 21
-31.25
 0
LINE
 8
Dimension
 10
100
 20
-0.625
 11
100
 21
-31.25
 0
SOLID
 8
Dimension
 10
2.5
 20
-30.416667
 11
2.5
 21
-29.583333
 12
0
 22
-30
 13
0
 23
-30
 0
SOLID
 8
Dimension
 10
97.5
 20
-29.583333
 11
97.5
 21
-30.416667
 12
100
 22
-30
 13
100
 23
-30
 0
LINE
 8
Dimension
 10
0
 20
-30
 11
0
 21
-30
 0
LINE
 8
Dimension
 10
100
 20
-30
 11
150
 21
-30
 0
LINE
 8
Dimension
 10
0
 20
-30
 11
100
 21
-30
 0
TEXT
 8
Dimension
 10
153.6
 20
-30
 40
2.5
 1
100
 11
153.6
 21
-30
 72
1
 73
2
 0
ENDBLK
 0
BLOCK
 2
*D2
 70
1
 10
0
 20
0
 0
LINE
 8
Dimension
 10
0
 20
-0.625
 11
0
 21
-51.25
 0
LINE
 8
Dimension
 10
200
 20
-0.625
 11
200
 21
-51.25
 0
SOLID
 8
Dimension
 10
2.5
 20
-50.416667
 11
2.5
 21
-49.583333
 12
0
 22
-50
 13
0
 23
-50
 0
SOLID
 8
Dimension
 10
197.5
 20
-49.583333
 11
197.5
 21
-50.416667
 12
200
 22
-50
 13
200
 23
-50
 0
LINE
 8
Dimension
 10
0
 20
-50
 11
0
 21
-50
 0
LINE
 8
Dimension
 10
200
 20
-50
 11
200
 21
-50
 0
LINE
 8
Dimension
 10
0
 20
-50
 11
96.1625
 21
-50
 0
LINE
 8
Dimension
 10
103.8375
 20
-50
 11
200
 21
-50
 0
TEXT
 8
Dimension
 10
100
 20
-50
 40
2.5
 1
200
 11
100
 21
-50
 72
1
 73
2
 0
ENDBLK
 0
BLOCK
 2
*D3
 70
1
 10
0
 20
0
 0
LINE
 8
Dimension
 10
0
 20
-0.625
 11
0
 21
-71.25
 0
LINE
 8
Dimension
 10
300
 20
-0.625
 11
300
 21
-71.25
 0
SOLID
 8
Dimension
 10
2.5
 20
-70.416667
 11
2.5
 21
-69.583333
 12
0
 22
-70
 13
0
 23
-70
 0
SOLID
 8
Dimension
 10
297.5
 20
-69.583333
 11
297.5
 21
-70.416667
 12
300
 22
-70
 13
300
 23
-70
 0
LINE
 8
Dimension
 10
0
 20
-70
 11
0
 21
-70
 0
LINE
 8
Dimension
 10
300
 20
-70
 11
300
 21
-70
 0
LINE
 8
Dimension
 10
0
 20
-70
 11
146.1625
 21
-70
 0
LINE
 8
Dimension
 10
153.8375
 20
-70
 11
300
 21
-70
 0
TEXT
 8
Dimension
 10
150
 20
-70
 40
2.5
 1
300
 11
150
 21
-70
 72
1
 73
2
 0
ENDBLK
 0
ENDSEC
 0
SECTION
 2
ENTITIES
 0
POLYLINE
 8
0
 66
1
 10
0
 20
0
 70
1
 0
VERTEX
 8
0
 10
0
 20
0
 0
VERTEX
 8
0
 10
300
 20
0
 0
VERTEX
 8
0
 10
300
 20
100
 0
VERTEX
 8
0
 10
0
 20
100
 0
SEQEND
 8
0
 0
DIMENSION
 8
Dimension
 70
0
 2
*D1
 3
STANDARD
 1
<>
 13
0
 23
0
 14
100
 24
0
 10
150
 20
-30
 11
153.59999990463257
 21
-30.000000000000007
 50
0
 0
DIMENSION
 8
Dimension
 70
0
 2
*D2
 3
STANDARD
 1
<>
 13
0
 23
0
 14
200
 24
0
 10
150
 20
-50
 11
100
 21
-50
 50
0
 0
DIMENSION
 8
Dimension
 70
0
 2
*D3
 3
STANDARD
 1
<>
 13
0
 23
0
 14
300
 24
0
 10
150
 20
-70
 11
150
 21
-70
 50
0
 0
ENDSEC
 0
EOF
