 0
SECTION
 2
HEADER
 9
$ACADVER
 1
AC1009
 9
$EXTMIN
 10
-71.25
 20
0
 30
0
 9
$EXTMAX
 10
100
 20
300
 30
0
 9
$VIEWCTR
 10
14.375
 20
150
 9
$VIEWSIZE
 40
330
 9
$CLAYER
 8
0
 9
$DIMSTYLE
 2
STANDARD
 0
ENDSEC
 0
SECTION
 2
TABLES
 0
TABLE
 2
LAYER
 70
2
 0
LAYER
 2
0
 70
0
 62
0
 6
CONTINUOUS
 0
LAYER
 2
Dimension
 70
0
 62
94
 6
CONTINUOUS
 0
ENDTAB
 0
TABLE
 2
STYLE
 70
1
 0
STYLE
 2
STANDARD
 70
0
 40
0
 41
1
 50
0
 71
0
 42
1
 3
SIMPLEX
 4

 0
ENDTAB
 0
TABLE
 2
DIMSTYLE
 70
1
 0
DIMSTYLE
 2
STANDARD
 70
0
 3

 4

 5

 6

 7

 40
1
 41
2.5
 42
0.625
 43
3.75
 44
1.25
 45
0
 46
0
 47
0
 48
0
 140
2.5
 141
2.5
 142
0
 143
25.4
 144
1
 145
0
 146
1
 147
0.625
 71
0
 72
0
 73
0
 74
0
 75
0
 76
0
 77
0
 78
0
 170
0
 171
2
 172
1
 173
0
 174
0
 175
0
 176
0
 177
0
 178
0
 0
ENDTAB
 0
ENDSEC
 0
SECTION
 2
BLOCKS
 0
BLOCK
 2
*D1
 70
1
 10
0
 20
0
 0
LINE
 8
Dimension
 10
-0.625
 20
0
 11
-31.25
 21
0
 0
LINE
 8
Dimension
 10
-0.625
 20
100
 11
-31.25
 21
100
 0
SOLID
 8
Dimension
 10
-29.583333
 20
2.5
 11
-30.416667
 21
2.5
 12
-30
 22
0
 13
-30
 23
0
 0
SOLID
 8
Dimension
 10
-30.416667
 20
97.5
 11
-29.583333
 21
97.5
 12
-30
 22
100
 13
-30
 23
100
 0
LINE
 8
Dimension
 10
-30
 20
0
 11
-30
 21
0
 0
LINE
 8
Dimension
 10
-30
 20
100
 11
-30
 21
150
 0
LINE
 8
Dimension
 10
-30
 20
0
 11
-30
 21
100
 0
TEXT
 8
Dimension
 10
-30
 20
153.6
 40
2.5
 1
100
 11
-30
 21
153.6
 50
90
 72
1
 73
2
 0
ENDBLK
 0
BLOCK
 2
*D2
 70
1
 10
0
 20
0
 0
LINE
 8
Dimension
 10
-0.625
 20
0
 11
-51.25
 21
0
 0
LINE
 8
Dimension
 10
-0.625
 20
200
 11
-51.25
 21
200
 0
SOLID
 8
Dimension
 10
-49.583333
 20
2.5
 11
-50.416667
 21
2.5
 12
-50
 22
0
 13
-50
 23
0
 0
SOLID
 8
Dimension
 10
-50.416667
 20
197.5
 11
-49.583333
 21
197.5
 12
-50
 22
200
 13
-50
 23
200
 0
LINE
 8
Dimension
 10
-50
 20
0
 11
-50
 21
0
 0
LINE
 8
Dimension
 10
-50
 20
200
 11
-50
 21
200
 0
LINE
 8
Dimension
 10
-50
 20
0
 11
-50
 21
96.1625
 0
LINE
 8
Dimension
 10
-50
 20
103.8375
 11
-50
 21
200
 0
TEXT
 8
Dimension
 10
-50
 20
100
 40
2.5
 1
200
 11
-50
 21
100
 50
90
 72
1
 73
2
 0
ENDBLK
 0
BLOCK
 2
*D3
 70
1
 10
0
 20
0
 0
LINE
 8
Dimension
 10
-0.625
 20
0
 11
-71.25
 21
0
 0
LINE
 8
Dimension
 10
-0.625
 20
300
 11
-71.25
 21
300
 0
SOLID
 8
Dimension
 10
-69.583333
 20
2.5
 11
-70.416667
 21
2.5
 12
-70
 22
0
 13
-70
 23
0
 0
SOLID
 8
Dimension
 10
-70.416667
 20
297.5
 11
-69.583333
 21
297.5
 12
-70
 22
300
 13
-70
 23
300
 0
LINE
 8
Dimension
 10
-70
 20
0
 11
-70
 21
0
 0
LINE
 8
Dimension
 10
-70
 20
300
 11
-70
 21
300
 0
LINE
 8
Dimension
 10
-70
 20
0
 11
-70
 21
146.1625
 0
LINE
 8
Dimension
 10
-70
 20
153.8375
 11
-70
 21
300
 0
TEXT
 8
Dimension
 10
-70
 20
150
 40
2.5
 1
300
 11
-70
 21
150
 50
90
 72
1
 73
2
 0
ENDBLK
 0
ENDSEC
 0
SECTION
 2
ENTITIES
 0
POLYLINE
 8
0
 66
1
 10
0
 20
0
 70
1
 0
VERTEX
 8
0
 10
0
 20
0
 0
VERTEX
 8
0
 10
100
 20
0
 0
VERTEX
 8
0
 10
100
 20
300
 0
VERTEX
 8
0
 10
0
 20
300
 0
SEQEND
 8
0
 0
DIMENSION
 8
Dimension
 70
0
 2
*D1
 3
STANDARD
 1
<>
 13
0
 23
0
 14
0
 24
100
 10
-30
 20
150
 11
-29.999999999999993
 21
153.59999990463257
 50
90
 0
DIMENSION
 8
Dimension
 70
0
 2
*D2
 3
STANDARD
 1
<>
 13
0
 23
0
 14
0
 24
200
 10
-50
 20
150
 11
-50
 21
100
 50
90
 0
DIMENSION
 8
Dimension
 70
0
 2
*D3
 3
STANDARD
 1
<>
 13
0
 23
0
 14
0
 24
300
 10
-70
 20
150
 11
-70
 21
150
 50
90
 0
ENDSEC
 0
EOF
