 0
SECTION
 2
HEADER
 9
$ACADVER
 1
AC1009
 9
$EXTMIN
 10
-28.225
 20
-11.25
 30
0
 9
$EXTMAX
 10
128.225
 20
111.25
 30
0
 9
$VIEWCTR
 10
50.000003814697266
 20
50
 9
$VIEWSIZE
 40
134.75
 9
$CLAYER
 8
0
 9
$DIMSTYLE
 2
STANDARD
 0
ENDSEC
 0
SECTION
 2
TABLES
 0
TABLE
 2
LAYER
 70
2
 0
LAYER
 2
0
 70
0
 62
0
 6
CONTINUOUS
 0
LAYER
 2
Dimension
 70
0
 62
94
 6
CONTINUOUS
 0
ENDTAB
 0
TABLE
 2
STYLE
 70
1
 0
STYLE
 2
STANDARD
 70
0
 40
0
 41
1
 50
0
 71
0
 42
1
 3
SIMPLEX
 4

 0
ENDTAB
 0
TABLE
 2
APPID
 70
1
 0
APPID
 2
NORI
 70
0
 0
ENDTAB
 0
TABLE
 2
DIMSTYLE
 70
1
 0
DIMSTYLE
 2
STANDARD
 70
0
 3

 4

 5

 6

 7

 40
1
 41
2.5
 42
0.625
 43
3.75
 44
1.25
 45
0
 46
0
 47
0
 48
0
 140
2.5
 141
2.5
 142
0
 143
25.4
 144
1
 145
0
 146
1
 147
0.625
 71
0
 72
0
 73
0
 74
0
 75
0
 76
0
 77
0
 78
0
 170
0
 171
2
 172
1
 173
0
 174
0
 175
0
 176
0
 177
0
 178
0
 0
ENDTAB
 0
ENDSEC
 0
SECTION
 2
BLOCKS
 0
BLOCK
 2
*D1
 70
1
 10
0
 20
0
 0
SOLID
 8
Dimension
 10
-1.473139
 20
52.062395
 11
-2.062395
 21
51.473139
 12
0
 22
50
 13
0
 23
50
 0
TEXT
 8
Dimension
 10
-20.675
 20
60
 40
2.5
 1
Text±50
 11
-20.675
 21
60
 72
1
 73
2
 0
POLYLINE
 8
Dimension
 66
1
 10
0
 20
0
 70
0
 0
VERTEX
 8
0
 10
0
 20
50
 0
VERTEX
 8
0
 10
-10
 20
60
 0
VERTEX
 8
0
 10
-12.5
 20
60 
 0
SEQEND
 8
0
 0
ENDBLK
 0
BLOCK
 2
*D2
 70
1
 10
0
 20
0
 0
SOLID
 8
Dimension
 10
101.473139
 20
47.937605
 11
102.062395
 21
48.526861
 12
100
 22
50
 13
100
 23
50
 0
TEXT
 8
Dimension
 10
120.675
 20
40
 40
2.5
 1
Text±50
 11
120.675
 21
40
 72
1
 73
2
 0
POLYLINE
 8
Dimension
 66
1
 10
0
 20
0
 70
0
 0
VERTEX
 8
0
 10
100
 20
50
 0
VERTEX
 8
0
 10
110
 20
40
 0
VERTEX
 8
0
 10
112.5
 20
40 
 0
SEQEND
 8
0
 0
ENDBLK
 0
BLOCK
 2
*D3
 70
1
 10
0
 20
0
 0
SOLID
 8
Dimension
 10
47.937605
 20
-1.473139
 11
48.526861
 21
-2.062395
 12
50
 22
0
 13
50
 23
0
 0
TEXT
 8
Dimension
 10
33.4125
 20
-10
 40
2.5
 1
ABC
 11
33.4125
 21
-10
 72
1
 73
2
 0
POLYLINE
 8
Dimension
 66
1
 10
0
 20
0
 70
0
 0
VERTEX
 8
0
 10
50
 20
0
 0
VERTEX
 8
0
 10
40
 20
-10
 0
VERTEX
 8
0
 10
37.5
 20
-10 
 0
SEQEND
 8
0
 0
ENDBLK
 0
BLOCK
 2
*D4
 70
1
 10
0
 20
0
 0
SOLID
 8
Dimension
 10
52.062395
 20
101.473139
 11
51.473139
 21
102.062395
 12
50
 22
100
 13
50
 23
100
 0
TEXT
 8
Dimension
 10
66.5875
 20
110
 40
2.5
 1
ABC
 11
66.5875
 21
110
 72
1
 73
2
 0
POLYLINE
 8
Dimension
 66
1
 10
0
 20
0
 70
0
 0
VERTEX
 8
0
 10
50
 20
100
 0
VERTEX
 8
0
 10
60
 20
110
 0
VERTEX
 8
0
 10
62.5
 20
110 
 0
SEQEND
 8
0
 0
ENDBLK
 0
ENDSEC
 0
SECTION
 2
ENTITIES
 0
POLYLINE
 8
0
 66
1
 10
0
 20
0
 70
1
 0
VERTEX
 8
0
 10
0
 20
0
 0
VERTEX
 8
0
 10
100
 20
0
 0
VERTEX
 8
0
 10
100
 20
100
 0
VERTEX
 8
0
 10
0
 20
100
 0
SEQEND
 8
0
 0
INSERT
 8
Dimension
 2
*D1
 10
0
 20
0
 41
1
 42
 1
 50
0
 1001
NORI
 1000
TYPE:LEADER
 1000
TEXT:Text±50
 1000
STYLE:STANDARD
 1000
PT:0,50
 1000
PT:-10,60
 0
INSERT
 8
Dimension
 2
*D2
 10
0
 20
0
 41
1
 42
 1
 50
0
 1001
NORI
 1000
TYPE:LEADER
 1000
TEXT:Text±50
 1000
STYLE:STANDARD
 1000
PT:100,50
 1000
PT:110,40
 0
INSERT
 8
Dimension
 2
*D3
 10
0
 20
0
 41
1
 42
 1
 50
0
 1001
NORI
 1000
TYPE:LEADER
 1000
TEXT:ABC
 1000
STYLE:STANDARD
 1000
PT:50,0
 1000
PT:40,-10
 0
INSERT
 8
Dimension
 2
*D4
 10
0
 20
0
 41
1
 42
 1
 50
0
 1001
NORI
 1000
TYPE:LEADER
 1000
TEXT:ABC
 1000
STYLE:STANDARD
 1000
PT:50,100
 1000
PT:60,110
 0
ENDSEC
 0
EOF
