 0
SECTION
 2
HEADER
 9
$ACADVER
 1
AC1009
 9
$EXTMIN
 10
-40
 20
-40
 30
0
 9
$EXTMAX
 10
63.15888
 20
60
 30
0
 9
$VIEWCTR
 10
11.579439163208008
 20
10
 9
$VIEWSIZE
 40
110
 9
$CLAYER
 8
0
 9
$DIMSTYLE
 2
STANDARD
 0
ENDSEC
 0
SECTION
 2
TABLES
 0
TABLE
 2
LAYER
 70
2
 0
LAYER
 2
0
 70
0
 62
0
 6
CONTINUOUS
 0
LAYER
 2
Dimension
 70
0
 62
94
 6
CONTINUOUS
 0
ENDTAB
 0
TABLE
 2
STYLE
 70
1
 0
STYLE
 2
STANDARD
 70
0
 40
0
 41
1
 50
0
 71
0
 42
1
 3
SIMPLEX
 4

 0
ENDTAB
 0
TABLE
 2
DIMSTYLE
 70
1
 0
DIMSTYLE
 2
STANDARD
 70
0
 3

 4

 5

 6

 7

 40
1
 41
2.5
 42
0.625
 43
3.75
 44
1.25
 45
0
 46
0
 47
0
 48
0
 140
2.5
 141
2.5
 142
0
 143
25.4
 144
1
 145
0
 146
1
 147
0.625
 71
0
 72
0
 73
0
 74
0
 75
0
 76
0
 77
0
 78
0
 170
0
 171
2
 172
1
 173
0
 174
0
 175
0
 176
0
 177
0
 178
0
 0
ENDTAB
 0
ENDSEC
 0
SECTION
 2
BLOCKS
 0
BLOCK
 2
*D1
 70
1
 10
0
 20
0
 0
SOLID
 8
Dimension
 10
49.949505
 20
-24.065535
 11
50.485161
 21
-23.427164
 12
48.302222
 22
-22.13938
 13
48.302222
 23
-22.13938
 0
LINE
 8
Dimension
 10
48.302222
 20
-22.13938
 11
55.962667
 21
-28.567257
 0
TEXT
 8
Dimension
 10
59.582227
 20
-31.604428
 40
2.5
 1
%%c100
 11
59.582227
 21
-31.604428
 50
-40
 72
1
 73
2
 0
ENDBLK
 0
BLOCK
 2
*D2
 70
1
 10
0
 20
0
 0
SOLID
 8
Dimension
 10
54.777908
 20
-5.854418
 11
54.492891
 21
-6.637495
 12
56.984631
 22
-7.101007
 13
56.984631
 23
-7.101007
 0
LINE
 8
Dimension
 10
56.984631
 20
-7.101007
 11
47.587705
 21
-3.680806
 0
TEXT
 8
Dimension
 10
43.147657
 20
-2.064761
 40
2.5
 1
%%c100
 11
43.147657
 21
-2.064761
 50
340
 72
1
 73
2
 0
ENDBLK
 0
BLOCK
 2
*D3
 70
1
 10
0
 20
0
 0
SOLID
 8
Dimension
 10
46.119283
 20
40.851597
 11
46.654939
 21
40.213226
 12
48.302222
 22
42.13938
 13
48.302222
 23
42.13938
 0
SOLID
 8
Dimension
 10
-26.119283
 20
-20.851597
 11
-26.654939
 21
-20.213226
 12
-28.302222
 22
-22.13938
 13
-28.302222
 23
-22.13938
 0
LINE
 8
Dimension
 10
48.302222
 20
42.13938
 11
55.962667
 21
48.567257
 0
LINE
 8
Dimension
 10
-28.302222
 20
-22.13938
 11
-28.302222
 21
-22.13938
 0
POINT
 8
Dimension
 10
-28.302222155948904
 20
-22.139380484326963
 0
LINE
 8
Dimension
 10
48.302222
 20
42.13938
 11
-27.823444
 21
-21.737638
 0
TEXT
 8
Dimension
 10
59.582227
 20
51.604428
 40
2.5
 1
%%c100
 11
59.582227
 21
51.604428
 50
40
 72
1
 73
2
 0
ENDBLK
 0
BLOCK
 2
*D4
 70
1
 10
0
 20
0
 0
SOLID
 8
Dimension
 10
54.492891
 20
26.637495
 11
54.777908
 21
25.854418
 12
56.984631
 22
27.101007
 13
56.984631
 23
27.101007
 0
SOLID
 8
Dimension
 10
-34.492891
 20
-6.637495
 11
-34.777908
 21
-5.854418
 12
-36.984631
 22
-7.101007
 13
-36.984631
 23
-7.101007
 0
LINE
 8
Dimension
 10
56.984631
 20
27.101007
 11
56.984631
 21
27.101007
 0
LINE
 8
Dimension
 10
-36.984631
 20
-7.101007
 11
-36.984631
 21
-7.101007
 0
POINT
 8
Dimension
 10
-36.98463103929542
 20
-7.101007166283434
 0
LINE
 8
Dimension
 10
56.984631
 20
27.101007
 11
14.440048
 21
11.616045
 0
LINE
 8
Dimension
 10
5.559952
 20
8.383955
 11
-36.397323
 21
-6.887245
 0
TEXT
 8
Dimension
 10
10
 20
10
 40
2.5
 1
%%c100
 11
10
 21
10
 50
20
 72
1
 73
2
 0
ENDBLK
 0
ENDSEC
 0
SECTION
 2
ENTITIES
 0
CIRCLE
 8
0
 10
10
 20
10
 40
50
 0
DIMENSION
 8
Dimension
 70
3
 2
*D1
 3
STANDARD
 1
<>
 10
-28.302222155948904
 20
42.13938048432696
 11
59.58222650782017
 21
-31.604427975660236
 15
48.302222155948904
 25
-22.139380484326963
 0
DIMENSION
 8
Dimension
 70
3
 2
*D2
 3
STANDARD
 1
<>
 10
-36.98463103929542
 20
27.101007166283434
 11
43.147657287839
 21
-2.064760588430525
 15
56.98463103929542
 25
-7.101007166283434
 0
DIMENSION
 8
Dimension
 70
3
 2
*D3
 3
STANDARD
 1
<>
 10
-28.302222155948904
 20
-22.139380484326963
 11
59.58222650782017
 21
51.60442797566025
 15
48.302222155948904
 25
42.13938048432696
 0
DIMENSION
 8
Dimension
 70
3
 2
*D4
 3
STANDARD
 1
<>
 10
-36.98463103929542
 20
-7.101007166283434
 11
10
 21
10
 15
56.98463103929542
 25
27.101007166283434
 0
ENDSEC
 0
EOF
