 0
SECTION
 2
HEADER
 9
$ACADVER
 1
AC1009
 9
$EXTMIN
 10
-40
 20
-40
 30
0
 9
$EXTMAX
 10
61.894905
 20
60
 30
0
 9
$VIEWCTR
 10
10.947452545166016
 20
10
 9
$VIEWSIZE
 40
110
 9
$CLAYER
 8
0
 9
$DIMSTYLE
 2
STANDARD
 0
ENDSEC
 0
SECTION
 2
TABLES
 0
TABLE
 2
LAYER
 70
2
 0
LAYER
 2
0
 70
0
 62
0
 6
CONTINUOUS
 0
LAYER
 2
Dimension
 70
0
 62
94
 6
CONTINUOUS
 0
ENDTAB
 0
TABLE
 2
STYLE
 70
1
 0
STYLE
 2
STANDARD
 70
0
 40
0
 41
1
 50
0
 71
0
 42
1
 3
SIMPLEX
 4

 0
ENDTAB
 0
TABLE
 2
DIMSTYLE
 70
1
 0
DIMSTYLE
 2
STANDARD
 70
0
 3

 4

 5

 6

 7

 40
1
 41
2.5
 42
0.625
 43
3.75
 44
1.25
 45
0
 46
0
 47
0
 48
0
 140
2.5
 141
2.5
 142
0
 143
25.4
 144
1
 145
0
 146
1
 147
0.625
 71
0
 72
0
 73
0
 74
0
 75
0
 76
0
 77
0
 78
0
 170
0
 171
2
 172
1
 173
0
 174
0
 175
0
 176
0
 177
0
 178
0
 0
ENDTAB
 0
ENDSEC
 0
SECTION
 2
BLOCKS
 0
BLOCK
 2
*D1
 70
1
 10
0
 20
0
 0
SOLID
 8
Dimension
 10
49.949505
 20
-24.065535
 11
50.485161
 21
-23.427164
 12
48.302222
 22
-22.13938
 13
48.302222
 23
-22.13938
 0
LINE
 8
Dimension
 10
48.302222
 20
-22.13938
 11
55.962667
 21
-28.567257
 0
TEXT
 8
Dimension
 10
58.95024
 20
-31.074128
 40
2.5
 1
R50
 11
58.95024
 21
-31.074128
 50
-40
 72
1
 73
2
 0
ENDBLK
 0
BLOCK
 2
*D2
 70
1
 10
0
 20
0
 0
SOLID
 8
Dimension
 10
54.777908
 20
-5.854418
 11
54.492891
 21
-6.637495
 12
56.984631
 22
-7.101007
 13
56.984631
 23
-7.101007
 0
LINE
 8
Dimension
 10
56.984631
 20
-7.101007
 11
47.587705
 21
-3.680806
 0
TEXT
 8
Dimension
 10
43.922904
 20
-2.346927
 40
2.5
 1
R50
 11
43.922904
 21
-2.346927
 50
340
 72
1
 73
2
 0
ENDBLK
 0
BLOCK
 2
*D3
 70
1
 10
0
 20
0
 0
SOLID
 8
Dimension
 10
46.119283
 20
40.851597
 11
46.654939
 21
40.213226
 12
48.302222
 22
42.13938
 13
48.302222
 23
42.13938
 0
LINE
 8
Dimension
 10
48.302222
 20
42.13938
 11
55.962667
 21
48.567257
 0
POINT
 8
Dimension
 10
10
 20
10
 0
LINE
 8
Dimension
 10
48.302222
 20
42.13938
 11
10.478778
 21
10.401742
 0
TEXT
 8
Dimension
 10
58.95024
 20
51.074128
 40
2.5
 1
R50
 11
58.95024
 21
51.074128
 50
40
 72
1
 73
2
 0
ENDBLK
 0
BLOCK
 2
*D4
 70
1
 10
0
 20
0
 0
SOLID
 8
Dimension
 10
54.492891
 20
26.637495
 11
54.777908
 21
25.854418
 12
56.984631
 22
27.101007
 13
56.984631
 23
27.101007
 0
LINE
 8
Dimension
 10
56.984631
 20
27.101007
 11
56.984631
 21
27.101007
 0
POINT
 8
Dimension
 10
10
 20
10
 0
LINE
 8
Dimension
 10
56.984631
 20
27.101007
 11
37.157117
 21
19.884382
 0
LINE
 8
Dimension
 10
29.827514
 20
17.216625
 11
10.587308
 21
10.213763
 0
TEXT
 8
Dimension
 10
33.492316
 20
18.550504
 40
2.5
 1
R50
 11
33.492316
 21
18.550504
 50
20
 72
1
 73
2
 0
ENDBLK
 0
ENDSEC
 0
SECTION
 2
ENTITIES
 0
CIRCLE
 8
0
 10
10
 20
10
 40
50
 0
DIMENSION
 8
Dimension
 70
4
 2
*D1
 3
STANDARD
 1
<>
 10
10
 20
10
 11
58.95023998835838
 21
-31.074128320270862
 15
48.3022221559489
 25
-22.13938048432697
 0
DIMENSION
 8
Dimension
 70
4
 2
*D2
 3
STANDARD
 1
<>
 10
10
 20
10
 11
43.922903520755234
 21
-2.34692714143904
 15
56.98463103929542
 25
-7.101007166283431
 0
DIMENSION
 8
Dimension
 70
4
 2
*D3
 3
STANDARD
 1
<>
 10
10
 20
10
 11
58.95023998835839
 21
51.07412832027086
 15
48.302222155948904
 25
42.13938048432696
 0
DIMENSION
 8
Dimension
 70
4
 2
*D4
 3
STANDARD
 1
<>
 10
10
 20
10
 11
33.49231551964771
 21
18.55050358314172
 15
56.98463103929542
 25
27.101007166283434
 0
ENDSEC
 0
EOF
