 0
SECTION
 2
HEADER
 9
$ACADVER
 1
AC1009
 9
$EXTMIN
 10
-9.769963E-12
 20
-9.769963E-12
 30
0
 9
$EXTMAX
 10
100
 20
65
 30
0
 9
$VIEWCTR
 10
50
 20
32.5
 9
$VIEWSIZE
 40
71.5
 9
$CLAYER
 8
0
 0
ENDSEC
 0
SECTION
 2
TABLES
 0
TABLE
 2
LAYER
 70
1
 0
LAYER
 2
0
 70
0
 62
250
 6
CONTINUOUS
 0
ENDTAB
 0
ENDSEC
 0
SECTION
 2
ENTITIES
 0
POINT
 8
0
 10
16.7363569
 20
60.16010198
 0
POINT
 8
0
 10
99.87353897
 20
5.80903713
 0
POINT
 8
0
 10
91.95619553
 20
59.93154012
 0
POINT
 8
0
 10
5.8381706
 20
15.83023355
 0
POINT
 8
0
 10
31.90305837
 20
59.96265988
 0
POLYLINE
 8
0
 66
1
 10
0
 20
0
 70
1
 0
VERTEX
 8
0
 10
35
 20
0
 0
VERTEX
 8
0
 10
100
 20
0
 0
VERTEX
 8
0
 10
100
 20
5
 0
VERTEX
 8
0
 10
97
 20
5
 42
-0.414214
 0
VERTEX
 8
0
 10
95
 20
7
 0
VERTEX
 8
0
 10
95
 20
13
 42
-0.414214
 0
VERTEX
 8
0
 10
97
 20
15
 0
VERTEX
 8
0
 10
100
 20
15
 0
VERTEX
 8
0
 10
100
 20
60
 0
VERTEX
 8
0
 10
95
 20
60
 0
VERTEX
 8
0
 10
95
 20
57
 42
-0.414214
 0
VERTEX
 8
0
 10
93
 20
55
 0
VERTEX
 8
0
 10
87
 20
55
 42
-0.414214
 0
VERTEX
 8
0
 10
85
 20
57
 0
VERTEX
 8
0
 10
85
 20
60
 0
VERTEX
 8
0
 10
30
 20
60
 0
VERTEX
 8
0
 10
30
 20
57
 42
-0.414214
 0
VERTEX
 8
0
 10
28
 20
55
 0
VERTEX
 8
0
 10
22
 20
55
 42
-0.414214
 0
VERTEX
 8
0
 10
20
 20
57
 0
VERTEX
 8
0
 10
20
 20
60
 0
VERTEX
 8
0
 10
15
 20
60
 0
VERTEX
 8
0
 10
15
 20
63
 42
0.414214
 0
VERTEX
 8
0
 10
13
 20
65
 0
VERTEX
 8
0
 10
7
 20
65
 42
0.414214
 0
VERTEX
 8
0
 10
5
 20
63
 0
VERTEX
 8
0
 10
5
 20
60
 0
VERTEX
 8
0
 10
0
 20
60
 0
VERTEX
 8
0
 10
0
 20
35
 42
0.414214
 0
SEQEND
 8
0
 0
ENDSEC
 0
EOF
