 0
SECTION
 2
HEADER
 9
$ACADVER
 1
AC1009
 9
$EXTMIN
 10
-8.6602545
 20
-2.5
 30
0
 9
$EXTMAX
 10
20
 20
22.5
 30
0
 9
$VIEWCTR
 10
5.669872760772705
 20
10
 9
$VIEWSIZE
 40
27.5
 9
$CLAYER
 8
0
 0
ENDSEC
 0
SECTION
 2
TABLES
 0
TABLE
 2
LAYER
 70
1
 0
LAYER
 2
0
 70
0
 62
0
 6
CONTINUOUS
 0
ENDTAB
 0
ENDSEC
 0
SECTION
 2
ENTITIES
 0
POLYLINE
 8
0
 66
1
 10
0
 20
0
 70
1
 0
VERTEX
 8
0
 10
0
 20
0
 0
VERTEX
 8
0
 10
0
 20
5
 0
VERTEX
 8
0
 10
-4.330127
 20
7.5
 0
VERTEX
 8
0
 10
-8.660254
 20
5
 0
VERTEX
 8
0
 10
-8.660254
 20
0
 0
VERTEX
 8
0
 10
-4.330127
 20
-2.5
 0
SEQEND
 8
0
 0
POLYLINE
 8
0
 66
1
 10
0
 20
0
 70
1
 0
VERTEX
 8
0
 10
0
 20
15
 0
VERTEX
 8
0
 10
0
 20
20
 0
VERTEX
 8
0
 10
-4.330127
 20
22.5
 0
VERTEX
 8
0
 10
-8.660254
 20
20
 0
VERTEX
 8
0
 10
-8.660254
 20
15
 0
VERTEX
 8
0
 10
-4.330127
 20
12.5
 0
SEQEND
 8
0
 0
POLYLINE
 8
0
 66
1
 10
0
 20
0
 70
1
 0
VERTEX
 8
0
 10
5
 20
10
 0
VERTEX
 8
0
 10
10
 20
10
 0
VERTEX
 8
0
 10
7.5
 20
14.330127
 0
SEQEND
 8
0
 0
POLYLINE
 8
0
 66
1
 10
0
 20
0
 70
1
 0
VERTEX
 8
0
 10
15
 20
0
 0
VERTEX
 8
0
 10
20
 20
5
 0
VERTEX
 8
0
 10
15
 20
10
 0
VERTEX
 8
0
 10
10
 20
5
 0
SEQEND
 8
0
 0
POLYLINE
 8
0
 66
1
 10
0
 20
0
 70
1
 0
VERTEX
 8
0
 10
2
 20
0
 0
VERTEX
 8
0
 10
4
 20
0
 0
VERTEX
 8
0
 10
5
 20
1.732051
 0
VERTEX
 8
0
 10
4
 20
3.464102
 0
VERTEX
 8
0
 10
2
 20
3.464102
 0
VERTEX
 8
0
 10
1
 20
1.732051
 0
SEQEND
 8
0
 0
ENDSEC
 0
EOF
