 0
SECTION
 2
HEADER
 9
$ACADVER
 1
AC1009
 9
$EXTMIN
 10
0
 20
0
 30
0
 9
$EXTMAX
 10
145.88388
 20
160.88388
 30
0
 9
$VIEWCTR
 10
72.94194030761719
 20
80.44194030761719
 9
$VIEWSIZE
 40
176.972
 9
$CLAYER
 8
0
 9
$DIMSTYLE
 2
STANDARD
 0
ENDSEC
 0
SECTION
 2
TABLES
 0
TABLE
 2
LAYER
 70
2
 0
LAYER
 2
0
 70
0
 62
0
 6
CONTINUOUS
 0
LAYER
 2
Dimension
 70
0
 62
94
 6
CONTINUOUS
 0
ENDTAB
 0
TABLE
 2
STYLE
 70
1
 0
STYLE
 2
STANDARD
 70
0
 40
0
 41
1
 50
0
 71
0
 42
1
 3
SIMPLEX
 4

 0
ENDTAB
 0
TABLE
 2
DIMSTYLE
 70
1
 0
DIMSTYLE
 2
STANDARD
 70
0
 3

 4

 5

 6

 7

 40
1
 41
2.5
 42
0.625
 43
3.75
 44
1.25
 45
0
 46
0
 47
0
 48
0
 140
2.5
 141
2.5
 142
0
 143
25.4
 144
1
 145
0
 146
1
 147
0.625
 71
0
 72
0
 73
0
 74
0
 75
0
 76
0
 77
0
 78
0
 170
0
 171
2
 172
1
 173
0
 174
0
 175
0
 176
0
 177
0
 178
0
 0
ENDTAB
 0
ENDSEC
 0
SECTION
 2
BLOCKS
 0
BLOCK
 2
*D1
 70
1
 10
0
 20
0
 0
LINE
 8
Dimension
 10
100.441942
 20
100.441942
 11
145.883883
 21
145.883883
 0
LINE
 8
Dimension
 10
100.441942
 20
130.441942
 11
130.883883
 21
160.883883
 0
SOLID
 8
Dimension
 10
143.526861
 20
147.062395
 11
142.937605
 21
146.473139
 12
145
 22
145
 13
145
 23
145
 0
SOLID
 8
Dimension
 10
131.473139
 20
157.937605
 11
132.062395
 21
158.526861
 12
130
 22
160
 13
130
 23
160
 0
LINE
 8
Dimension
 10
145
 20
145
 11
145
 21
145
 0
LINE
 8
Dimension
 10
130
 20
160
 11
130
 21
160
 0
LINE
 8
Dimension
 10
145
 20
145
 11
140.929468
 21
149.070532
 0
LINE
 8
Dimension
 10
134.070532
 20
155.929468
 11
130
 21
160
 0
TEXT
 8
Dimension
 10
137.5
 20
152.5
 40
2.5
 1
21.21
 11
137.5
 21
152.5
 50
-45
 72
1
 73
2
 0
ENDBLK
 0
BLOCK
 2
*D2
 70
1
 10
0
 20
0
 0
LINE
 8
Dimension
 10
100.441942
 20
50.441942
 11
145.883883
 21
95.883883
 0
LINE
 8
Dimension
 10
100.441942
 20
80.441942
 11
130.883883
 21
110.883883
 0
SOLID
 8
Dimension
 10
143.526861
 20
97.062395
 11
142.937605
 21
96.473139
 12
145
 22
95
 13
145
 23
95
 0
SOLID
 8
Dimension
 10
131.473139
 20
107.937605
 11
132.062395
 21
108.526861
 12
130
 22
110
 13
130
 23
110
 0
LINE
 8
Dimension
 10
145
 20
95
 11
145
 21
95
 0
LINE
 8
Dimension
 10
130
 20
110
 11
130
 21
110
 0
LINE
 8
Dimension
 10
145
 20
95
 11
140.929468
 21
99.070532
 0
LINE
 8
Dimension
 10
134.070532
 20
105.929468
 11
130
 21
110
 0
TEXT
 8
Dimension
 10
137.5
 20
102.5
 40
2.5
 1
21.21
 11
137.5
 21
102.5
 50
-45
 72
1
 73
2
 0
ENDBLK
 0
ENDSEC
 0
SECTION
 2
ENTITIES
 0
POLYLINE
 8
0
 66
1
 10
0
 20
0
 70
1
 0
VERTEX
 8
0
 10
100
 20
80
 0
VERTEX
 8
0
 10
64.644661
 20
44.644661
 0
VERTEX
 8
0
 10
79.644661
 20
29.644661
 0
VERTEX
 8
0
 10
100
 20
50
 0
VERTEX
 8
0
 10
100
 20
0
 0
VERTEX
 8
0
 10
0
 20
0
 0
VERTEX
 8
0
 10
0
 20
150
 0
VERTEX
 8
0
 10
100
 20
150
 0
VERTEX
 8
0
 10
100
 20
130
 0
VERTEX
 8
0
 10
64.644661
 20
94.644661
 0
VERTEX
 8
0
 10
64.644661
 20
64.644661
 0
VERTEX
 8
0
 10
100
 20
100
 0
SEQEND
 8
0
 0
DIMENSION
 8
Dimension
 70
0
 2
*D1
 3
STANDARD
 1
<>
 13
100
 23
100
 14
100
 24
130
 10
140
 20
150
 11
137.50000000000003
 21
152.5
 50
135
 0
DIMENSION
 8
Dimension
 70
0
 2
*D2
 3
STANDARD
 1
<>
 13
100
 23
50
 14
100
 24
80
 10
140
 20
100
 11
137.50000000000003
 21
102.50000000000001
 50
-45
 0
ENDSEC
 0
EOF
