 0
SECTION
 2
HEADER
 0
ENDSEC
 0
SECTION
 2
TABLES
 0
TABLE
 2
LAYER
 70
3
 0
LAYER
 70
0
 2
0
 62
253
 6
CONTINUOUS
 0
LAYER
 70
0
 2
Layer0_
 62
7
 6
CONTINUOUS
 0
LAYER
 70
0
 2
Layer01
 62
7
 6
CONTINUOUS
 0
ENDTAB
 0
TABLE
 2
STYLE
 70
2
 0
STYLE
 2
Standard
 70
0
 40
0
 41
1
 50
0
 71
0
 42
1
 3
txt
 4

 0
STYLE
 2
Century Gothic
 70
0
 40
0
 41
1
 50
0
 71
0
 42
1
 3

 4

 0
ENDTAB
 0
ENDSEC
 0
SECTION
 2
ENTITIES
 0
TEXT
 8
Layer01
 10
116.400408
 20
96.623659
 40
2.5
 1
2x
 11
116.400408
 21
96.623659
 7
Century Gothic
 73
3
 0
TEXT
 8
Layer01
 10
226.400408
 20
96.623659
 40
2.5
 1
2x
 11
226.400408
 21
96.623659
 7
Century Gothic
 73
3
 0
TEXT
 8
Layer01
 10
-109.415364
 20
7.447315
 40
5
 1
NAME=neu OW210/S R1/28 H140
 11
-109.415364
 21
7.447315
 7
Century Gothic
 73
3
 0
TEXT
 8
Layer01
 10
-50.057784
 20
-2.552685
 40
5
 1
TONNAGE=400
 11
-50.057784
 21
-2.552685
 7
Century Gothic
 73
3
 0
TEXT
 8
Layer01
 10
-51.845683
 20
-12.552685
 40
5
 1
UPPER=PTrumpf
 11
-51.845683
 21
-12.552685
 7
Century Gothic
 73
3
 0
TEXT
 8
Layer01
 10
-328.480625
 20
-22.552685
 40
5
 1
PIECES=2x10,2x15,2x20,4x25,4xG25/21,4xG25/WL,2x30,2x35,2x40,2x45,2x50,2x100,2x200,2x300,4x500
 11
-328.480625
 21
-22.552685
 7
Century Gothic
 73
3
 0
TEXT
 8
Layer01
 10
-68.276683
 20
-32.552685
 40
5
 1
FLAVOR=HemPunch
 11
-68.276683
 21
-32.552685
 7
Century Gothic
 73
3
 0
TEXT
 8
Layer01
 10
-77.467709
 20
-42.552685
 40
5
 1
PARAMS=-1,12.15,70,22
 11
-77.467709
 21
-42.552685
 7
Century Gothic
 73
3
 0
TEXT
 8
Layer01
 10
-85.452073
 20
-52.552685
 40
5
 1
ALTTOOLGROUP=OWR1.0
 11
-85.452073
 21
-52.552685
 7
Century Gothic
 73
3
 0
TEXT
 8
Layer01
 10
-74.123046
 20
-62.552685
 40
5
 1
TOOLGROUP=OWR1.0
 11
-74.123046
 21
-62.552685
 7
Century Gothic
 73
3
 0
TEXT
 8
Layer01
 10
-70.414684
 20
-72.552685
 40
5
 1
SHORTNAME=OW210
 11
-70.414684
 21
-72.552685
 7
Century Gothic
 73
3
 0
TEXT
 8
Layer01
 10
-36.318831
 20
-82.552685
 40
5
 1
CANFLIP=1
 11
-36.318831
 21
-82.552685
 7
Century Gothic
 73
3
 0
TEXT
 8
Layer01
 10
-55.210741
 20
-92.552685
 40
5
 1
GROUP=Pointed
 11
-55.210741
 21
-92.552685
 7
Century Gothic
 73
3
 0
TEXT
 8
Layer01
 10
353.580408
 20
96.623659
 40
2.5
 1
2x
 11
353.580408
 21
96.623659
 7
Century Gothic
 73
3
 0
TEXT
 8
Layer01
 10
463.580408
 20
96.623659
 40
2.5
 1
2x
 11
463.580408
 21
96.623659
 7
Century Gothic
 73
3
 0
POINT
 8
0
 62
7
 10
30
 20
140
 0
POLYLINE
 8
Layer01
 66
1
 10
0
 20
0
 70
1
 0
VERTEX
 8
0
 10
24.25
 20
160.75
 0
VERTEX
 8
0
 10
20
 20
156.5
 0
VERTEX
 8
0
 10
20
 20
140
 0
VERTEX
 8
0
 10
0
 20
140
 0
VERTEX
 8
0
 10
0
 20
132
 0
VERTEX
 8
0
 10
16.238122
 20
114.586746
 42
-0.189856
 0
VERTEX
 8
0
 10
17.85
 20
110.494756
 0
VERTEX
 8
0
 10
17.85
 20
71.5
 0
VERTEX
 8
0
 10
18
 20
71.5
 0
VERTEX
 8
0
 10
18
 20
70
 0
VERTEX
 8
0
 10
29.5
 20
70
 42
-0.414214
 0
VERTEX
 8
0
 10
30
 20
69.5
 0
VERTEX
 8
0
 10
30
 20
67.207107
 42
-0.198913
 0
VERTEX
 8
0
 10
29.853553
 20
66.853553
 0
VERTEX
 8
0
 10
29
 20
66
 0
VERTEX
 8
0
 10
29
 20
1
 42
0.884726
 0
VERTEX
 8
0
 10
30.970296
 20
0.758078
 0
VERTEX
 8
0
 10
34.357202
 20
14.342218
 0
VERTEX
 8
0
 10
33.872054
 20
14.463179
 0
VERTEX
 8
0
 10
42.5
 20
49.067979
 0
VERTEX
 8
0
 10
42.5
 20
73.098811
 42
-0.147477
 0
VERTEX
 8
0
 10
41.5
 20
76.415436
 0
VERTEX
 8
0
 10
41.5
 20
109.014719
 42
-0.198912
 0
VERTEX
 8
0
 10
43.257359
 20
113.257359
 0
VERTEX
 8
0
 10
60
 20
130
 0
VERTEX
 8
0
 10
60
 20
140
 0
VERTEX
 8
0
 10
40
 20
140
 0
VERTEX
 8
0
 10
40
 20
156.5
 0
VERTEX
 8
0
 10
35.75
 20
160.75
 0
VERTEX
 8
0
 10
40
 20
165
 0
VERTEX
 8
0
 10
40
 20
174.8
 0
VERTEX
 8
0
 10
39
 20
175.8
 0
VERTEX
 8
0
 10
21
 20
175.8
 0
VERTEX
 8
0
 10
20
 20
174.8
 0
VERTEX
 8
0
 10
20
 20
165
 0
SEQEND
 8
0
 0
POLYLINE
 8
Layer01
 66
1
 10
0
 20
0
 70
1
 0
VERTEX
 8
0
 10
170
 20
175.8
 0
VERTEX
 8
0
 10
101
 20
175.8
 0
VERTEX
 8
0
 10
101
 20
32.309401
 42
-0.267949
 0
VERTEX
 8
0
 10
99
 20
28.8453
 0
VERTEX
 8
0
 10
70
 20
12.102142
 0
VERTEX
 8
0
 10
70
 20
0
 0
VERTEX
 8
0
 10
170
 20
0
 0
SEQEND
 8
0
 0
POLYLINE
 8
Layer01
 66
1
 10
0
 20
0
 70
1
 0
VERTEX
 8
0
 10
249
 20
32.309401
 0
VERTEX
 8
0
 10
249
 20
175.8
 0
VERTEX
 8
0
 10
180
 20
175.8
 0
VERTEX
 8
0
 10
180
 20
0
 0
VERTEX
 8
0
 10
280
 20
0
 0
VERTEX
 8
0
 10
280
 20
12.102142
 0
VERTEX
 8
0
 10
251
 20
28.845299
 42
-0.267949
 0
SEQEND
 8
0
 0
POLYLINE
 8
Layer01
 66
1
 10
0
 20
0
 70
1
 0
VERTEX
 8
0
 10
407.18
 20
175.8
 0
VERTEX
 8
0
 10
338.18
 20
175.8
 0
VERTEX
 8
0
 10
338.18
 20
47.309403
 42
-0.267949
 0
VERTEX
 8
0
 10
336.179999
 20
43.845299
 0
VERTEX
 8
0
 10
307.18
 20
27.102142
 0
VERTEX
 8
0
 10
307.18
 20
0
 0
VERTEX
 8
0
 10
407.18
 20
0
 0
SEQEND
 8
0
 0
POLYLINE
 8
Layer01
 66
1
 10
0
 20
0
 70
1
 0
VERTEX
 8
0
 10
486.18
 20
47.309402
 0
VERTEX
 8
0
 10
486.18
 20
175.8
 0
VERTEX
 8
0
 10
417.18
 20
175.8
 0
VERTEX
 8
0
 10
417.18
 20
0
 0
VERTEX
 8
0
 10
517.18
 20
0
 0
VERTEX
 8
0
 10
517.18
 20
27.102142
 0
VERTEX
 8
0
 10
488.180001
 20
43.845298
 42
-0.267949
 0
SEQEND
 8
0
 0
POLYLINE
 8
Layer01
 66
1
 10
0
 20
0
 70
1
 0
VERTEX
 8
0
 10
701.99
 20
175.8
 0
VERTEX
 8
0
 10
602.99
 20
175.8
 0
VERTEX
 8
0
 10
602.99
 20
32.309401
 42
-0.267949
 0
VERTEX
 8
0
 10
600.99
 20
28.8453
 0
VERTEX
 8
0
 10
571.99
 20
12.102142
 0
VERTEX
 8
0
 10
571.99
 20
0
 0
VERTEX
 8
0
 10
701.99
 20
0
 0
SEQEND
 8
0
 0
POLYLINE
 8
Layer01
 66
1
 10
0
 20
0
 70
1
 0
VERTEX
 8
0
 10
815.85
 20
32.309402
 0
VERTEX
 8
0
 10
815.85
 20
175.8
 0
VERTEX
 8
0
 10
716.85
 20
175.8
 0
VERTEX
 8
0
 10
716.85
 20
0
 0
VERTEX
 8
0
 10
846.85
 20
0
 0
VERTEX
 8
0
 10
846.85
 20
12.102142
 0
VERTEX
 8
0
 10
817.850001
 20
28.845298
 42
-0.267949
 0
SEQEND
 8
0
 0
ENDSEC
 0
EOF
