 0
SECTION
 2
HEADER
 0
ENDSEC
 0
SECTION
 2
TABLES
 0
TABLE
 2
LAYER
 70
3
 0
LAYER
 70
1
 2
0
 62
0
 6
CONTINUOUS
 0
LAYER
 70
1
 2
Layer2
 62
202
 6
DASHDOT
 0
LAYER
 70
1
 2
Layer3
 62
92
 6
PHANTOM
 0
ENDTAB
 0
ENDSEC
 0
SECTION
 2
ENTITIES
 0
ARC
 8
0
 10
35.88
 20
25.09
 40
15.678323
 50
23.572879
 51
383.532257
 0
POLYLINE
 8
0
 66
1
 10
0
 20
0
 70
1
 0
VERTEX
 8
0
 10
51.14
 20
31.257
 0
VERTEX
 8
0
 10
57.499
 20
31.257
 0
VERTEX
 8
0
 10
57.499
 20
32.988
 0
VERTEX
 8
0
 10
51.314
 20
32.988
 0
SEQEND
 8
0
 0
LINE
 8
0
 10
57.552
 20
33.044
 11
59.299
 21
34.526
 0
LINE
 8
0
 10
59.2999
 20
34.5264
 11
59.337
 21
30.5205
 0
LINE
 8
0
 10
59.337
 20
30.5206
 11
57.502
 21
31.252
 0
LINE
 8
0
 10
57.346
 20
31.022
 11
57.346
 21
31.022
 0
LINE
 8
0
 10
80
 20
30
 11
120
 21
30
 0
LINE
 8
0
 10
120.00023
 20
30.001
 11
120.00023
 21
-0.0012
 0
LINE
 8
0
 10
120
 20
0
 11
0
 21
0.001
 0
LINE
 8
0
 10
0
 20
0
 11
79.995
 21
30.001
 0
LINE
 8
0
 10
17.668
 20
9.6346
 11
62.191
 21
42.221
 0
LINE
 8
0
 10
17.668
 20
40.444
 11
17.668
 21
9.6348
 0
LINE
 8
0
 10
17.6991
 20
41.981
 11
17.6681
 21
40.4448
 0
LINE
 8
0
 10
17.7
 20
41.9809
 11
62.1999
 21
42.2206
 0
POLYLINE
 8
Layer2
 66
1
 10
0
 20
0
 70
0
 0
VERTEX
 8
Layer2
 10
80
 20
10
 0
VERTEX
 8
Layer2
 10
82.41146
 20
19
 0
VERTEX
 8
Layer2
 10
84.07176
 20
14 
 0
SEQEND
 8
Layer2
 0
POLYLINE
 8
Layer2
 66
1
 10
0
 20
0
 70
0
 0
VERTEX
 8
Layer2
 10
84.07127
 20
14
 0
VERTEX
 8
Layer2
 10
88.41146
 20
19
 0
VERTEX
 8
Layer2
 10
86
 20
10 
 0
SEQEND
 8
Layer2
 0
LINE
 8
Layer2
 10
90
 20
10
 11
95.41146
 21
19
 0
LINE
 8
Layer2
 10
95.411489
 20
19
 11
96
 21
10
 0
LINE
 8
Layer2
 10
91.50313
 20
12.5
 11
95.83652
 21
12.5
 0
LINE
 8
Layer3
 10
100
 20
10
 11
100
 21
19
 0
ARC
 8
Layer3
 10
102.25
 20
16.75
 40
3.181981
 50
-135
 51
135
 0
LINE
 8
Layer2
 10
100
 20
14.5001
 11
105
 21
10
 0
LINE
 8
Layer3
 10
110
 20
10
 11
110
 21
19
 0
LINE
 8
Layer3
 10
110
 20
14.5
 11
115
 21
19
 0
LINE
 8
Layer3
 10
110
 20
14.5
 11
115
 21
10
 0
ENDSEC
 0
EOF
