 0
SECTION
 2
HEADER
 0
ENDSEC
 0
SECTION
 2
TABLES
 0
TABLE
 2
LAYER
 70
18
 0
LAYER
 70
0
 2
0
 62
0
 6
CONTINUOUS
 0
LAYER
 70
0
 2
TEXT
 62
0
 6
CONTINUOUS
 0
LAYER
 70
0
 2
BEMASS
 62
12
 6
CONTINUOUS
 0
LAYER
 70
0
 2
H_LINIE
 62
92
 6
CONTINUOUS
 0
LAYER
 70
0
 2
2-0
 62
42
 6
CONTINUOUS
 0
LAYER
 70
0
 2
3-0
 62
102
 6
CONTINUOUS
 0
LAYER
 70
0
 2
1-0
 62
142
 6
CONTINUOUS
 0
LAYER
 70
0
 2
1
 62
0
 6
CONTINUOUS
 0
LAYER
 70
0
 2
Schriftfeld
 62
0
 6
CONTINUOUS
 0
LAYER
 70
0
 2
Beschriftung
 62
172
 6
CONTINUOUS
 0
LAYER
 70
0
 2
VPORT
 62
9
 6
CONTINUOUS
 0
LAYER
 70
0
 2
DIM-LABEL-0
 62
42
 6
CONTINUOUS
 0
LAYER
 70
0
 2
Defpoints
 62
0
 6
CONTINUOUS
 0
LAYER
 70
0
 2
AM_7
 62
122
 6
CONTINUOUS
 0
LAYER
 70
0
 2
AM_5
 62
92
 6
CONTINUOUS
 0
LAYER
 70
0
 2
AFENSTER
 62
0
 6
CONTINUOUS
 0
LAYER
 70
0
 2
HILFSL_STRPKT
 62
0
 6
CONTINUOUS
 0
LAYER
 70
0
 2
AM_VIEWS
 62
12
 6
CONTINUOUS
 0
ENDTAB
 0
TABLE
 2
STYLE
 70
6
 0
STYLE
 2
STANDARD
 70
0
 40
0
 41
1
 50
0
 71
0
 42
1
 3
romans
 4

 0
STYLE
 2
Arial 3.5 mm
 70
0
 40
3.5
 41
1
 50
0
 71
0
 42
1
 3
arial.ttf
 4

 0
STYLE
 2
Arial
 70
0
 40
0
 41
1
 50
0
 71
0
 42
1
 3
arial.ttf
 4

 0
STYLE
 2
code
 70
0
 40
0
 41
5
 50
0
 71
0
 42
1
 3
Codp39ch.ttf
 4

 0
STYLE
 2
ACDINGDT
 70
0
 40
0
 41
1
 50
0
 71
0
 42
1
 3
amgdt
 4

 0
STYLE
 2
ACANSGDT
 70
0
 40
0
 41
1
 50
0
 71
0
 42
1
 3
amgdt
 4

 0
ENDTAB
 0
TABLE
 2
BLOCKS
 70
7
 0
BLOCK
 70
65
 2
Schrift
 10
0
 20
0
 0
TEXT
 8
0
 10
-144.9441026155282
 20
25.56318017726449
 40
4
 1
.
 11
-144.9441026155282
 21
25.56318017726449
 73
3
 0
POLYLINE
 8
0
 66
1
 10
0
 20
0
 70
1
 0
VERTEX
 8
0
 10
-150.0000357627868
 20
134.9999941885471
 0
VERTEX
 8
0
 10
-150.0000357627868
 20
0
 0
VERTEX
 8
0
 10
0
 20
0
 0
VERTEX
 8
0
 10
0
 20
134.9999941885471
 0
SEQEND
 8
0
 0
LINE
 8
1
 10
-150.0000357627868
 20
15.00000059604644
 11
0
 21
15.00000059604644
 0
LINE
 8
1
 10
-150.0000357627868
 20
53.33299934864044
 11
-91.33329033225935
 21
53.33299934864045
 0
LINE
 8
Schriftfeld
 10
-150.0000357627868
 20
57.7779971063137
 11
-91.33329033225935
 21
57.7779971063137
 0
LINE
 8
1
 10
-150.0000357627868
 20
62.22200021147727
 11
-91.33329033225935
 21
62.22200021147727
 0
LINE
 8
1
 10
-150.0000357627868
 20
105.0000004470348
 11
0
 21
105.0000004470348
 0
LINE
 8
1
 10
-150.0000357627868
 20
80.00000193715096
 11
0
 21
80.00000193715096
 0
LINE
 8
1
 10
-150.0000357627868
 20
89.99999985098837
 11
-45.00007629394531
 21
89.99999985098837
 0
LINE
 8
1
 10
-150.0000357627868
 20
119.9999935925007
 11
0
 21
119.9999935925007
 0
LINE
 8
1
 10
-150.0000357627868
 20
71.1109973490238
 11
-91.33329033225935
 21
71.1109973490238
 0
LINE
 8
1
 10
-112.0344088468983
 20
62.22200021147727
 11
-112.0344088468983
 21
35.55300831794739
 0
LINE
 8
1
 10
-134.0000629425049
 20
62.22200021147727
 11
-134.0000629425049
 21
35.55300831794739
 0
TEXT
 8
Schriftfeld
 10
-110.21652576879
 20
58.74969361182485
 40
2.5
 1
Name
 7
Arial
 0
TEXT
 8
Schriftfeld
 10
-132.5549718054777
 20
58.74969361182485
 40
2.5
 1
Datum
 7
Arial
 0
LINE
 8
1
 10
-119.9470462037891
 20
105.0000004470348
 11
-119.9470462037891
 21
89.99999985098837
 0
LINE
 8
1
 10
-91.33329033225935
 20
80.00000193715096
 11
-91.33329033225935
 21
35.55300831794739
 0
LINE
 8
1
 10
-50.00007152557373
 20
15.00000059604644
 11
-50.00007152557373
 21
0
 0
LINE
 8
1
 10
-100.0000238418579
 20
15.00000059604644
 11
-100.0000238418579
 21
0
 0
LINE
 8
1
 10
-45.00007629394531
 20
105.0000004470348
 11
-45.00007629394531
 21
80.00000193715096
 0
LINE
 8
1
 10
-115.2544709532285
 20
15.00000202376532
 11
-115.2544709532285
 21
1.4277188711E-06
 0
LINE
 8
1
 10
-150.0000357627868
 20
48.88800159096717
 11
-91.33329033225935
 21
48.88800159096717
 0
LINE
 8
1
 10
-150.0000357627868
 20
44.44300383329391
 11
-91.33329033225935
 21
44.44300383329392
 0
LINE
 8
1
 10
-150.0000357627868
 20
39.99800607562065
 11
-91.33329033225935
 21
39.99800607562065
 0
LINE
 8
1
 10
-150.0000357627868
 20
35.55300831794739
 11
-91.33329033225935
 21
35.55300831794739
 0
TEXT
 8
0
 10
1
 20
0
 40
64.81403696335838
 1
Bauvorhaben
 11
1
 21
0
 50
138.094606
 7
Arial
 72
1
 73
3
 0
TEXT
 8
0
 10
1
 20
0
 40
64.81403696335838
 1
Architekt/Bauherr
 11
1
 21
0
 50
141.466824
 7
Arial
 72
1
 73
3
 0
TEXT
 8
0
 10
1
 20
0
 40
64.81403696335838
 1
Pos.
 11
1
 21
0
 50
145.187376
 7
Arial
 72
1
 73
3
 0
TEXT
 8
0
 10
1
 20
0
 40
64.81403696335838
 1
Benennung
 11
1
 21
0
 50
138.756647
 7
Arial
 72
1
 73
3
 0
TEXT
 8
0
 10
1
 20
0
 40
64.81403696335838
 1
Oberflächenbehandlung
 11
1
 21
0
 50
112.229841
 7
Arial
 72
1
 73
3
 0
TEXT
 8
0
 10
1
 20
0
 40
64.81403696335838
 1
System
 11
1
 21
0
 50
149.332928
 7
Arial
 72
1
 73
3
 0
TEXT
 8
0
 10
1
 20
0
 40
64.81403696335838
 1
Projekt-Nr. 
 11
1
 21
0
 50
152.730115
 7
Arial
 72
1
 73
3
 0
TEXT
 8
0
 10
1
 20
0
 40
64.81403696335838
 1
Änderung
 11
1
 21
0
 50
155.035772
 7
Arial
 72
1
 73
3
 0
TEXT
 8
0
 10
1
 20
0
 40
64.81403696335838
 1
Maßstab
 11
1
 21
0
 50
174.579558
 7
Arial
 72
1
 73
3
 0
TEXT
 8
0
 10
1
 20
0
 40
64.81403696335838
 1
DIN
 11
1
 21
0
 50
172.971852
 7
Arial
 72
1
 73
3
 0
TEXT
 8
0
 10
1
 20
0
 40
64.81403696335838
 1
Zeichnungs-Nr.
 11
1
 21
0
 50
172.043433
 7
Arial
 72
1
 73
3
 0
TEXT
 8
0
 10
1
 20
0
 40
64.81403696335838
 1
Ersatz für
 11
1
 21
0
 50
163.669281
 7
Arial
 72
1
 73
3
 0
INSERT
 8
0
 2
Logo Linien
 10
-16449.78937841474
 20
36680.82269676253
 41
1
 42
1
 50
0
 0
ENDBLK
 0
BLOCK
 70
65
 2
Layout Rahmen
 10
0
 20
0
 0
POLYLINE
 8
0
 66
1
 10
0
 20
0
 70
1
 0
VERTEX
 8
0
 10
-5.410222742153564
 20
5
 0
VERTEX
 8
0
 10
1148
 20
5
 0
VERTEX
 8
0
 10
1148
 20
824
 0
VERTEX
 8
0
 10
-5.410222742153564
 20
824
 0
SEQEND
 8
0
 0
POLYLINE
 8
0
 62
92
 66
1
 10
0
 20
0
 70
1
 0
VERTEX
 8
0
 10
-25.41022274215356
 20
0
 0
VERTEX
 8
0
 10
1153
 20
0
 0
VERTEX
 8
0
 10
1153
 20
829
 0
VERTEX
 8
0
 10
-25.41022274215356
 20
829
 0
SEQEND
 8
0
 0
LINE
 8
0
 62
92
 10
-25.41022274215356
 20
291
 11
-5.410222742153564
 21
394.6190476190531
 0
LINE
 8
0
 62
92
 10
-25.41022274215356
 20
291
 11
-5.410222742153564
 21
291
 0
LINE
 8
0
 62
92
 10
-25.41022274215356
 20
588
 11
-5.410222742153564
 21
588
 0
LINE
 8
0
 62
92
 10
-25.41022274215356
 20
142.5
 11
-18.41022274215356
 21
142.5
 0
LINE
 8
0
 62
92
 10
192
 20
824
 11
192
 21
829
 0
LINE
 8
0
 62
92
 10
301.5
 20
824
 11
301.5
 21
829
 0
LINE
 8
0
 62
92
 10
411
 20
824
 11
411
 21
829
 0
LINE
 8
0
 62
92
 10
601
 20
824
 11
601
 21
829
 0
LINE
 8
0
 62
92
 10
791
 20
824
 11
791
 21
829
 0
LINE
 8
0
 62
92
 10
981
 20
824
 11
981
 21
829
 0
LINE
 8
0
 62
92
 10
1148
 20
291
 11
1153
 21
291
 0
LINE
 8
0
 62
92
 10
1148
 20
588
 11
1153
 21
588
 0
LINE
 8
0
 62
92
 10
981
 20
0
 11
981
 21
5
 0
LINE
 8
0
 62
92
 10
192
 20
0
 11
192
 21
5
 0
LINE
 8
0
 62
92
 10
301.5
 20
0
 11
301.5
 21
5
 0
LINE
 8
0
 62
92
 10
411
 20
0
 11
411
 21
5
 0
LINE
 8
0
 62
92
 10
601
 20
0
 11
601
 21
5
 0
LINE
 8
0
 62
92
 10
791
 20
0
 11
791
 21
5
 0
POLYLINE
 8
0
 66
1
 10
0
 20
0
 70
1
 0
VERTEX
 8
0
 10
-5.410222742153564
 20
5
 0
VERTEX
 8
0
 10
1148
 20
5
 0
VERTEX
 8
0
 10
1148
 20
824
 0
VERTEX
 8
0
 10
-5.410222742153564
 20
824
 0
SEQEND
 8
0
 0
ENDBLK
 0
BLOCK
 70
65
 2
Logo Linien
 10
0
 20
0
 0
POLYLINE
 8
0
 66
1
 10
0
 20
0
 70
0
 0
VERTEX
 8
0
 10
16434.49768089304
 20
-36609.71784486867
 0
VERTEX
 8
0
 10
16434.40145039553
 20
-36609.53231427176
 0
VERTEX
 8
0
 10
16434.23025521606
 20
-36609.09644523462
 0
VERTEX
 8
0
 10
16434.06105399229
 20
-36608.74482248591
 42
0.11306832185327653
 0
VERTEX
 8
0
 10
16433.80387078808
 20
-36608.49418487884
 42
0.05722785655490862
 0
VERTEX
 8
0
 10
16433.28794772053
 20
-36608.24041310787
 0
VERTEX
 8
0
 10
16431.26950430966
 20
-36607.75660160823
 0
VERTEX
 8
0
 10
16431.26950430966
 20
-36607.69327972834
 0
VERTEX
 8
0
 10
16440.68868638751
 20
-36607.69327972834
 0
VERTEX
 8
0
 10
16439.80653528312
 20
-36607.83358128585
 42
0.015813092916972023
 0
VERTEX
 8
0
 10
16438.76495818409
 20
-36607.95547871936
 42
0.02593202663643396
 0
VERTEX
 8
0
 10
16437.05750623303
 20
-36608.35465682473
 0
VERTEX
 8
0
 10
16436.2885545108
 20
-36608.70215756202
 0
VERTEX
 8
0
 10
16434.93349652655
 20
-36609.48450065399
 0
VERTEX
 8
0
 10
16434.66308770984
 20
-36609.72201605954
 0
VERTEX
 8
0
 10
16434.49768089304
 20
-36609.71784486867 
 0
SEQEND
 8
0
 0
POLYLINE
 8
0
 66
1
 10
0
 20
0
 70
0
 0
VERTEX
 8
0
 10
16395.71738264592
 20
-36628.21695351776
 0
VERTEX
 8
0
 10
16397.59702587382
 20
-36625.68928295588
 0
VERTEX
 8
0
 10
16382.99209270972
 20
-36609.53632214997
 42
-0.21811555560473075
 0
VERTEX
 8
0
 10
16382.99209270972
 20
-36609.10409680929
 42
-0.07422028573453181
 0
VERTEX
 8
0
 10
16383.43195168527
 20
-36608.66423783375
 42
-0.018999911631067262
 0
VERTEX
 8
0
 10
16383.80645352882
 20
-36608.50467818195
 0
VERTEX
 8
0
 10
16384.26207511378
 20
-36608.40551950721
 0
VERTEX
 8
0
 10
16385.3564311969
 20
-36608.14383169935
 0
VERTEX
 8
0
 10
16386.26729307
 20
-36608.14383169935
 0
VERTEX
 8
0
 10
16386.26729307
 20
-36608.04971642733
 0
VERTEX
 8
0
 10
16375.67401552399
 20
-36608.04971642733
 0
VERTEX
 8
0
 10
16376.75671567384
 20
-36608.25172958133
 0
VERTEX
 8
0
 10
16377.51514065809
 20
-36608.47964948211
 0
VERTEX
 8
0
 10
16377.96701860263
 20
-36608.74054133503
 0
VERTEX
 8
0
 10
16378.54332249534
 20
-36609.0259724969
 0
VERTEX
 8
0
 10
16379.04302770995
 20
-36609.35376751824
 0
VERTEX
 8
0
 10
16379.67083384365
 20
-36609.90343983996
 0
VERTEX
 8
0
 10
16380.47489561682
 20
-36610.79900616666
 0
VERTEX
 8
0
 10
16381.12188541892
 20
-36611.51537938188
 0
VERTEX
 8
0
 10
16382.3606073818
 20
-36612.87869961155
 0
VERTEX
 8
0
 10
16384.4824591913
 20
-36615.22990490928
 0
VERTEX
 8
0
 10
16395.71738264592
 20
-36628.21695351776 
 0
SEQEND
 8
0
 0
POLYLINE
 8
0
 66
1
 10
0
 20
0
 70
0
 0
VERTEX
 8
0
 10
16375.0185471405
 20
-36645.14553185131
 0
VERTEX
 8
0
 10
16373.12813586893
 20
-36649.29051556939
 0
VERTEX
 8
0
 10
16370.81546420945
 20
-36644.55135558536
 0
VERTEX
 8
0
 10
16368.90704684288
 20
-36644.55135558536
 0
VERTEX
 8
0
 10
16366.54624662764
 20
-36649.20317708256
 0
VERTEX
 8
0
 10
16364.7012784904
 20
-36645.26397936877
 0
VERTEX
 8
0
 10
16364.7012784904
 20
-36645.14553185131
 0
VERTEX
 8
0
 10
16366.2308424047
 20
-36645.14553185131
 0
VERTEX
 8
0
 10
16366.2308424047
 20
-36644.55135558536
 0
VERTEX
 8
0
 10
16362.5212991109
 20
-36644.55782613935
 0
VERTEX
 8
0
 10
16362.5212991109
 20
-36645.14553185131
 0
VERTEX
 8
0
 10
16363.39476194246
 20
-36645.14553185131
 0
VERTEX
 8
0
 10
16365.54243019356
 20
-36650.01764446303
 0
VERTEX
 8
0
 10
16367.32402287679
 20
-36650.01764446303
 0
VERTEX
 8
0
 10
16369.76874881157
 20
-36645.14553185131
 0
VERTEX
 8
0
 10
16372.23231419883
 20
-36650.01764446303
 0
VERTEX
 8
0
 10
16373.97749876455
 20
-36650.01764446303
 0
VERTEX
 8
0
 10
16376.17808850764
 20
-36645.14192189784
 0
VERTEX
 8
0
 10
16377.06495877296
 20
-36645.14192189784
 0
VERTEX
 8
0
 10
16377.06495877296
 20
-36644.55135558536
 0
VERTEX
 8
0
 10
16373.40030283944
 20
-36644.55135558536
 0
VERTEX
 8
0
 10
16373.40030283944
 20
-36645.14553185131
 0
VERTEX
 8
0
 10
16375.0185471405
 20
-36645.14553185131 
 0
SEQEND
 8
0
 0
POLYLINE
 8
0
 66
1
 10
0
 20
0
 70
0
 0
VERTEX
 8
0
 10
16378.97287938574
 20
-36647.52306089249
 0
VERTEX
 8
0
 10
16378.97287938574
 20
-36649.42872299584
 0
VERTEX
 8
0
 10
16377.63245324426
 20
-36649.42872299584
 0
VERTEX
 8
0
 10
16377.63245324426
 20
-36650.01764446303
 0
VERTEX
 8
0
 10
16385.9721500075
 20
-36650.01764446303
 0
VERTEX
 8
0
 10
16385.9721500075
 20
-36648.30740490579
 0
VERTEX
 8
0
 10
16384.87019519139
 20
-36648.30740490579
 0
VERTEX
 8
0
 10
16384.87019519139
 20
-36649.42872299584
 0
VERTEX
 8
0
 10
16380.3299049729
 20
-36649.42641430466
 0
VERTEX
 8
0
 10
16380.32051276501
 20
-36648.33948560777 
 0
SEQEND
 8
0
 0
POLYLINE
 8
0
 66
1
 10
0
 20
0
 70
0
 0
VERTEX
 8
0
 10
16380.31345799621
 20
-36647.52306089249
 0
VERTEX
 8
0
 10
16382.5748213839
 20
-36647.52306089249
 0
VERTEX
 8
0
 10
16382.5748213839
 20
-36648.33948560777
 0
VERTEX
 8
0
 10
16383.61543694467
 20
-36648.33948560777
 0
VERTEX
 8
0
 10
16383.61543694467
 20
-36646.14900097348
 0
VERTEX
 8
0
 10
16382.57190725898
 20
-36646.14900097348
 0
VERTEX
 8
0
 10
16382.57190725898
 20
-36647.02945805477
 0
VERTEX
 8
0
 10
16380.30630916827
 20
-36647.02945805477
 0
VERTEX
 8
0
 10
16380.30630916827
 20
-36645.14553185131
 0
VERTEX
 8
0
 10
16384.84277536631
 20
-36645.14553185131
 0
VERTEX
 8
0
 10
16384.84277536631
 20
-36646.24451860126
 0
VERTEX
 8
0
 10
16386.03151946195
 20
-36646.24451860126
 0
VERTEX
 8
0
 10
16386.03151946195
 20
-36644.55135558536
 0
VERTEX
 8
0
 10
16377.63245324426
 20
-36644.55135558536
 0
VERTEX
 8
0
 10
16377.63245324426
 20
-36645.14553185131
 0
VERTEX
 8
0
 10
16378.97287938574
 20
-36645.14553185131 
 0
SEQEND
 8
0
 0
POLYLINE
 8
0
 66
1
 10
0
 20
0
 70
0
 0
VERTEX
 8
0
 10
16387.5502679152
 20
-36644.55135558536
 0
VERTEX
 8
0
 10
16387.5502679152
 20
-36645.14553185131
 0
VERTEX
 8
0
 10
16388.90712135997
 20
-36645.14553185131
 0
VERTEX
 8
0
 10
16388.90712135997
 20
-36649.42872299584
 0
VERTEX
 8
0
 10
16387.55141881011
 20
-36649.42872299584
 0
VERTEX
 8
0
 10
16387.55141881011
 20
-36650.01764446303
 0
VERTEX
 8
0
 10
16391.65494441392
 20
-36650.01764446303
 0
VERTEX
 8
0
 10
16391.65494441392
 20
-36649.42872299584
 0
VERTEX
 8
0
 10
16390.22218846681
 20
-36649.42872299584
 0
VERTEX
 8
0
 10
16390.22218846681
 20
-36645.14553185131
 0
VERTEX
 8
0
 10
16391.68276508488
 20
-36645.14553185131
 0
VERTEX
 8
0
 10
16391.68276508488
 20
-36644.55135558536
 0
VERTEX
 8
0
 10
16387.5502679152
 20
-36644.55135558536 
 0
SEQEND
 8
0
 0
POLYLINE
 8
0
 66
1
 10
0
 20
0
 70
0
 0
VERTEX
 8
0
 10
16400.61003304158
 20
-36649.1170450229
 0
VERTEX
 8
0
 10
16395.84187635282
 20
-36644.55135558536
 0
VERTEX
 8
0
 10
16392.54520096615
 20
-36644.55135558536
 0
VERTEX
 8
0
 10
16392.54520096615
 20
-36645.14553185131
 0
VERTEX
 8
0
 10
16393.93622467725
 20
-36645.14553185131
 0
VERTEX
 8
0
 10
16393.93622467725
 20
-36649.42872299584
 0
VERTEX
 8
0
 10
16392.53128940109
 20
-36649.42872299584
 0
VERTEX
 8
0
 10
16392.53128940109
 20
-36650.01764446303
 0
VERTEX
 8
0
 10
16396.6487241108
 20
-36650.01764446303
 0
VERTEX
 8
0
 10
16396.6487241108
 20
-36649.42872299584
 0
VERTEX
 8
0
 10
16395.2020590578
 20
-36649.42872299584
 0
VERTEX
 8
0
 10
16395.2020590578
 20
-36645.47384328346
 0
VERTEX
 8
0
 10
16395.38289218942
 20
-36645.47384328346
 0
VERTEX
 8
0
 10
16399.926693369
 20
-36649.86754844303
 0
VERTEX
 8
0
 10
16399.926693369
 20
-36650.01764446303
 0
VERTEX
 8
0
 10
16401.8252723117
 20
-36650.01764446303
 0
VERTEX
 8
0
 10
16401.8252723117
 20
-36645.14553185131
 0
VERTEX
 8
0
 10
16403.23019037362
 20
-36645.14553185131
 0
VERTEX
 8
0
 10
16403.23019037362
 20
-36644.55135558536
 0
VERTEX
 8
0
 10
16399.12955922129
 20
-36644.55135558536
 0
VERTEX
 8
0
 10
16399.12955922129
 20
-36645.14553185131
 0
VERTEX
 8
0
 10
16400.61003304158
 20
-36645.14553185131
 0
VERTEX
 8
0
 10
16400.61003304158
 20
-36649.1170450229
 0
VERTEX
 8
0
 10
16400.4983691853
 20
-36649.1170450229 
 0
SEQEND
 8
0
 0
POLYLINE
 8
0
 66
1
 10
0
 20
0
 70
1
 0
VERTEX
 8
0
 10
16405.3157742387
 20
-36646.2413470659
 0
VERTEX
 8
0
 10
16405.3157742387
 20
-36645.14553185131
 0
VERTEX
 8
0
 10
16410.36538463412
 20
-36645.14553185131
 0
VERTEX
 8
0
 10
16410.36538463412
 20
-36645.285441646
 0
VERTEX
 8
0
 10
16404.15323759381
 20
-36649.14107095788
 0
VERTEX
 8
0
 10
16404.08592982663
 20
-36649.20837872505
 0
VERTEX
 8
0
 10
16404.08592982663
 20
-36650.01764446303
 0
VERTEX
 8
0
 10
16412.03868499294
 20
-36650.01764446303
 0
VERTEX
 8
0
 10
16412.03868499294
 20
-36648.30070426002
 0
VERTEX
 8
0
 10
16410.90601013602
 20
-36648.30070426002
 0
VERTEX
 8
0
 10
16410.90601013602
 20
-36649.42872299584
 0
VERTEX
 8
0
 10
16405.55838927755
 20
-36649.42872299584
 0
VERTEX
 8
0
 10
16405.55838927755
 20
-36649.30639812096
 0
VERTEX
 8
0
 10
16411.68267729628
 20
-36645.45912673755
 0
VERTEX
 8
0
 10
16411.91569662593
 20
-36645.45912673755
 0
VERTEX
 8
0
 10
16411.91569662593
 20
-36644.55135558536
 0
VERTEX
 8
0
 10
16404.13274527072
 20
-36644.55183287033
 0
VERTEX
 8
0
 10
16404.13274527072
 20
-36646.2413470659
 0
SEQEND
 8
0
 0
POLYLINE
 8
0
 66
1
 10
0
 20
0
 70
0
 0
VERTEX
 8
0
 10
16413.17498467695
 20
-36644.55135558536
 0
VERTEX
 8
0
 10
16413.17498467695
 20
-36645.14553185131
 0
VERTEX
 8
0
 10
16414.48989193728
 20
-36645.14553185131
 0
VERTEX
 8
0
 10
16414.48989193728
 20
-36649.42872299584
 0
VERTEX
 8
0
 10
16413.21555126301
 20
-36649.42872299584
 0
VERTEX
 8
0
 10
16413.21555126301
 20
-36650.01764446303
 0
VERTEX
 8
0
 10
16417.19495481916
 20
-36650.01764446303
 0
VERTEX
 8
0
 10
16417.19495481916
 20
-36649.42872299584
 0
VERTEX
 8
0
 10
16415.88592007384
 20
-36649.42872299584
 0
VERTEX
 8
0
 10
16415.88592007384
 20
-36645.14553185131
 0
VERTEX
 8
0
 10
16417.22253940912
 20
-36645.14553185131
 0
VERTEX
 8
0
 10
16417.22253940912
 20
-36644.55135558536
 0
VERTEX
 8
0
 10
16413.17498467695
 20
-36644.55135558536 
 0
SEQEND
 8
0
 0
POLYLINE
 8
0
 66
1
 10
0
 20
0
 70
1
 0
VERTEX
 8
0
 10
16425.40444553052
 20
-36648.28968317466
 0
VERTEX
 8
0
 10
16425.40444553052
 20
-36649.42872299584
 0
VERTEX
 8
0
 10
16420.83585756071
 20
-36649.42872299584
 0
VERTEX
 8
0
 10
16420.82580936292
 20
-36647.52306089249
 0
VERTEX
 8
0
 10
16423.04634795095
 20
-36647.52306089249
 0
VERTEX
 8
0
 10
16423.04634795095
 20
-36648.33948560777
 0
VERTEX
 8
0
 10
16424.13932185216
 20
-36648.33948560777
 0
VERTEX
 8
0
 10
16424.13932185216
 20
-36646.15457914449
 0
VERTEX
 8
0
 10
16423.09476914879
 20
-36646.15457914449
 0
VERTEX
 8
0
 10
16423.09476914879
 20
-36646.97296896795
 0
VERTEX
 8
0
 10
16420.8639536595
 20
-36646.97296896795
 0
VERTEX
 8
0
 10
16420.8639536595
 20
-36645.14553185131
 0
VERTEX
 8
0
 10
16425.38257852741
 20
-36645.14553185131
 0
VERTEX
 8
0
 10
16425.38257852741
 20
-36646.22630403841
 0
VERTEX
 8
0
 10
16426.54242483252
 20
-36646.22630403841
 0
VERTEX
 8
0
 10
16426.54242483252
 20
-36644.55135558536
 0
VERTEX
 8
0
 10
16418.15118617564
 20
-36644.55135558536
 0
VERTEX
 8
0
 10
16418.15118617564
 20
-36645.14553185131
 0
VERTEX
 8
0
 10
16419.47262746963
 20
-36645.14553185131
 0
VERTEX
 8
0
 10
16419.47262746963
 20
-36649.42872299584
 0
VERTEX
 8
0
 10
16418.15907029755
 20
-36649.42872299584
 0
VERTEX
 8
0
 10
16418.15907029755
 20
-36650.01764446303
 0
VERTEX
 8
0
 10
16426.54704562636
 20
-36650.01764446303
 0
VERTEX
 8
0
 10
16426.54704562636
 20
-36648.28968317466
 0
SEQEND
 8
0
 0
POLYLINE
 8
0
 66
1
 10
0
 20
0
 70
0
 0
VERTEX
 8
0
 10
16437.79549766864
 20
-36644.55135558536
 0
VERTEX
 8
0
 10
16437.79549766864
 20
-36645.1516234277
 0
VERTEX
 8
0
 10
16439.1265450615
 20
-36645.1516234277
 0
VERTEX
 8
0
 10
16439.1265450615
 20
-36649.42872299584
 0
VERTEX
 8
0
 10
16437.7792632755
 20
-36649.42872299584
 0
VERTEX
 8
0
 10
16437.7792632755
 20
-36650.01764446303
 0
VERTEX
 8
0
 10
16445.74996572645
 20
-36650.01764446303
 0
VERTEX
 8
0
 10
16445.74996572645
 20
-36648.11595457742
 0
VERTEX
 8
0
 10
16444.59699540984
 20
-36648.11595457742
 0
VERTEX
 8
0
 10
16444.59699540984
 20
-36649.42872299584
 0
VERTEX
 8
0
 10
16440.46277778088
 20
-36649.42872299584
 0
VERTEX
 8
0
 10
16440.46277778088
 20
-36645.15248297639
 0
VERTEX
 8
0
 10
16442.2745870438
 20
-36645.15248297639
 0
VERTEX
 8
0
 10
16442.2745870438
 20
-36644.55135558536
 0
VERTEX
 8
0
 10
16437.79549766864
 20
-36644.55135558536 
 0
SEQEND
 8
0
 0
POLYLINE
 8
0
 66
1
 10
0
 20
0
 70
1
 0
VERTEX
 8
0
 10
16434.38461802395
 20
-36644.62706848027
 0
VERTEX
 8
0
 10
16435.02594995396
 20
-36644.78701238332
 0
VERTEX
 8
0
 10
16435.47240686292
 20
-36645.02216326993
 0
VERTEX
 8
0
 10
16435.85328211933
 20
-36645.32606908379
 42
-0.0699235852168989
 0
VERTEX
 8
0
 10
16435.96805128882
 20
-36645.47040762571
 42
-0.06700308743321358
 0
VERTEX
 8
0
 10
16436.12660032591
 20
-36645.7635472387
 42
-0.19310102538398752
 0
VERTEX
 8
0
 10
16436.1407689404
 20
-36646.23482107951
 0
VERTEX
 8
0
 10
16436.06671996081
 20
-36646.43707372448
 0
VERTEX
 8
0
 10
16435.97129789742
 20
-36646.60234958644
 0
VERTEX
 8
0
 10
16435.57929727089
 20
-36646.99435021296
 0
VERTEX
 8
0
 10
16435.34983159918
 20
-36647.12683228029
 0
VERTEX
 8
0
 10
16434.15943401004
 20
-36647.4127683412
 0
VERTEX
 8
0
 10
16434.34627998132
 20
-36647.52064391302
 0
VERTEX
 8
0
 10
16434.84753394973
 20
-36647.64076926343
 0
VERTEX
 8
0
 10
16435.16592634321
 20
-36647.82459319752
 0
VERTEX
 8
0
 10
16435.42353481677
 20
-36648.08220167107
 0
VERTEX
 8
0
 10
16436.2009492661
 20
-36649.42872299584
 0
VERTEX
 8
0
 10
16437.27206488236
 20
-36649.42872299584
 0
VERTEX
 8
0
 10
16437.27206488236
 20
-36650.01764446303
 0
VERTEX
 8
0
 10
16435.1331335341
 20
-36650.01764446303
 0
VERTEX
 8
0
 10
16434.03730294402
 20
-36648.14708410407
 0
VERTEX
 8
0
 10
16433.86521265477
 20
-36647.98909350741
 0
VERTEX
 8
0
 10
16433.66192913418
 20
-36647.86263020446
 0
VERTEX
 8
0
 10
16433.39584317476
 20
-36647.70900540416
 0
VERTEX
 8
0
 10
16430.72416417718
 20
-36647.70900540416
 0
VERTEX
 8
0
 10
16430.72416417718
 20
-36649.42872299584
 0
VERTEX
 8
0
 10
16432.2275761449
 20
-36649.42872299584
 0
VERTEX
 8
0
 10
16432.2275761449
 20
-36650.01764446303
 0
VERTEX
 8
0
 10
16428.03200746092
 20
-36650.01764446303
 0
VERTEX
 8
0
 10
16428.03200746092
 20
-36649.42872299584
 0
VERTEX
 8
0
 10
16429.3461463682
 20
-36649.42872299584
 0
VERTEX
 8
0
 10
16429.3461463682
 20
-36645.14097888749
 0
VERTEX
 8
0
 10
16428.0285808243
 20
-36645.14097888749
 0
VERTEX
 8
0
 10
16428.0285808243
 20
-36644.55135558536
 0
VERTEX
 8
0
 10
16433.74746448767
 20
-36644.55135558536
 0
SEQEND
 8
0
 0
POLYLINE
 8
0
 66
1
 10
0
 20
0
 70
0
 0
VERTEX
 8
0
 10
16363.78121413466
 20
-36658.42522087535
 0
VERTEX
 8
0
 10
16363.78121413466
 20
-36653.45630292777
 0
VERTEX
 8
0
 10
16364.9188790958
 20
-36653.45630292777
 0
VERTEX
 8
0
 10
16367.41433477135
 20
-36657.66041662333
 0
VERTEX
 8
0
 10
16369.95123416919
 20
-36653.45630292777
 0
VERTEX
 8
0
 10
16370.99691143773
 20
-36653.45630292777
 0
VERTEX
 8
0
 10
16370.99691143773
 20
-36658.43219985625
 0
VERTEX
 8
0
 10
16370.25327943939
 20
-36658.43219985625
 0
VERTEX
 8
0
 10
16370.25327943939
 20
-36654.18181748595
 0
VERTEX
 8
0
 10
16370.18723998496
 20
-36654.18181748595
 0
VERTEX
 8
0
 10
16367.73328057931
 20
-36658.43219985625
 0
VERTEX
 8
0
 10
16367.10160340741
 20
-36658.43219985625
 0
VERTEX
 8
0
 10
16364.52337695716
 20
-36654.08898068079
 0
VERTEX
 8
0
 10
16364.46731061408
 20
-36654.08898068079
 0
VERTEX
 8
0
 10
16364.46731061408
 20
-36658.43219985625
 0
VERTEX
 8
0
 10
16363.78121413466
 20
-36658.43219985625 
 0
SEQEND
 8
0
 0
POLYLINE
 8
0
 66
1
 10
0
 20
0
 70
1
 0
VERTEX
 8
0
 10
16372.68445002933
 20
-36656.29792379588
 0
VERTEX
 8
0
 10
16376.79513923917
 20
-36656.29792379588
 42
0.656447232314398
 0
SEQEND
 8
0
 0
POLYLINE
 8
0
 66
1
 10
0
 20
0
 70
0
 0
VERTEX
 8
0
 10
16377.79243741122
 20
-36655.13330462482
 0
VERTEX
 8
0
 10
16378.84820878208
 20
-36655.13330462482
 0
VERTEX
 8
0
 10
16378.84820878208
 20
-36658.43219985625
 0
VERTEX
 8
0
 10
16379.57454339535
 20
-36658.43219985625
 0
VERTEX
 8
0
 10
16379.57454339535
 20
-36655.20696794847
 0
VERTEX
 8
0
 10
16380.64600902116
 20
-36655.20696794847
 0
VERTEX
 8
0
 10
16380.64600902116
 20
-36654.70707660602
 0
VERTEX
 8
0
 10
16379.57224456726
 20
-36654.70707660602
 0
VERTEX
 8
0
 10
16379.57224456726
 20
-36653.47205207815
 0
VERTEX
 8
0
 10
16378.85149282221
 20
-36653.47205207815
 0
VERTEX
 8
0
 10
16378.85149282221
 20
-36654.70707660602
 0
VERTEX
 8
0
 10
16377.79243741122
 20
-36654.70707660602
 0
VERTEX
 8
0
 10
16377.79243741122
 20
-36655.13330462482 
 0
SEQEND
 8
0
 0
POLYLINE
 8
0
 66
1
 10
0
 20
0
 70
0
 0
VERTEX
 8
0
 10
16387.72007777236
 20
-36653.47156130357
 0
VERTEX
 8
0
 10
16387.72007777236
 20
-36658.43219985625
 0
VERTEX
 8
0
 10
16388.41607390435
 20
-36658.43219985625
 0
VERTEX
 8
0
 10
16388.41607390435
 20
-36653.47156130357
 0
VERTEX
 8
0
 10
16387.72007777236
 20
-36653.47156130357 
 0
SEQEND
 8
0
 0
POLYLINE
 8
0
 66
1
 10
0
 20
0
 70
1
 0
VERTEX
 8
0
 10
16390.261272349
 20
-36653.47156130357
 0
VERTEX
 8
0
 10
16390.261272349
 20
-36658.43219985625
 0
VERTEX
 8
0
 10
16389.53290249506
 20
-36658.43219985625
 0
VERTEX
 8
0
 10
16389.53290249506
 20
-36653.47156130357
 0
SEQEND
 8
0
 0
POLYLINE
 8
0
 66
1
 10
0
 20
0
 70
0
 0
VERTEX
 8
0
 10
16392.12862510124
 20
-36656.09644835317
 42
0.25139721932679154
 0
VERTEX
 8
0
 10
16392.12862510124
 20
-36657.06934380016
 42
0.5009605698536379
 0
VERTEX
 8
0
 10
16396.22441946063
 20
-36657.06934380016
 42
0.18713774140685618
 0
VERTEX
 8
0
 10
16396.22441946063
 20
-36656.09644835317
 42
0.5033574456728126
 0
VERTEX
 8
0
 10
16392.12862510124
 20
-36656.09644835317 
 0
SEQEND
 8
0
 0
POLYLINE
 8
0
 66
1
 10
0
 20
0
 70
1
 0
VERTEX
 8
0
 10
16392.21850409437
 20
-36655.20976009538
 0
VERTEX
 8
0
 10
16392.0463685381
 20
-36655.20976009538
 0
VERTEX
 8
0
 10
16392.0463685381
 20
-36653.47005016149
 0
VERTEX
 8
0
 10
16391.39608105945
 20
-36653.47005016149
 0
VERTEX
 8
0
 10
16391.39608105945
 20
-36658.43219985625
 0
VERTEX
 8
0
 10
16392.05816083484
 20
-36658.43219985625
 0
VERTEX
 8
0
 10
16392.05816083484
 20
-36657.9511215394
 0
VERTEX
 8
0
 10
16392.21291690504
 20
-36657.9511215394
 42
0.38169159141310516
 0
VERTEX
 8
0
 10
16396.83337187362
 20
-36657.41155015089
 42
0.21217140431004106
 0
VERTEX
 8
0
 10
16396.83394718002
 20
-36655.75553672923
 42
0.4129190194605446
 0
SEQEND
 8
0
 0
POLYLINE
 8
0
 66
1
 10
0
 20
0
 70
0
 0
VERTEX
 8
0
 10
16398.40577830292
 20
-36656.09644835317
 42
0.25139721932679154
 0
VERTEX
 8
0
 10
16398.40577830292
 20
-36657.06934380016
 42
0.5009605698530115
 0
VERTEX
 8
0
 10
16402.50157266232
 20
-36657.06934380016
 42
0.18713774140685618
 0
VERTEX
 8
0
 10
16402.50157266232
 20
-36656.09644835317
 42
0.5033574456736115
 0
VERTEX
 8
0
 10
16398.40577830292
 20
-36656.09644835317 
 0
SEQEND
 8
0
 0
POLYLINE
 8
0
 66
1
 10
0
 20
0
 70
0
 0
VERTEX
 8
0
 10
16381.72439273678
 20
-36656.09644835317
 42
0.25139721932679154
 0
VERTEX
 8
0
 10
16381.72439273678
 20
-36657.06934380016
 42
0.5009605698537711
 0
VERTEX
 8
0
 10
16385.82018709617
 20
-36657.06934380016
 42
0.18713774140685618
 0
VERTEX
 8
0
 10
16385.82018709617
 20
-36656.09644835317
 42
0.5033574456729457
 0
VERTEX
 8
0
 10
16381.72439273678
 20
-36656.09644835317 
 0
SEQEND
 8
0
 0
POLYLINE
 8
0
 66
1
 10
0
 20
0
 70
0
 0
VERTEX
 8
0
 10
16434.28536433495
 20
-36656.09644835317
 42
0.25139721932679154
 0
VERTEX
 8
0
 10
16434.28536433495
 20
-36657.06934380016
 42
0.5009605698536379
 0
VERTEX
 8
0
 10
16438.38115869434
 20
-36657.06934380016
 42
0.18713774140685618
 0
VERTEX
 8
0
 10
16438.38115869434
 20
-36656.09644835317
 42
0.5033574456728126
 0
VERTEX
 8
0
 10
16434.28536433495
 20
-36656.09644835317 
 0
SEQEND
 8
0
 0
POLYLINE
 8
0
 66
1
 10
0
 20
0
 70
0
 0
VERTEX
 8
0
 10
16385.49665100132
 20
-36658.12962929491
 42
-0.3652558171356208
 0
VERTEX
 8
0
 10
16381.10154815056
 20
-36657.46763359763
 42
-0.21217140431022993
 0
VERTEX
 8
0
 10
16381.10097284416
 20
-36655.81162017597
 42
-0.03189414532098577
 0
VERTEX
 8
0
 10
16381.38204768216
 20
-36655.49985264962
 42
-0.382959641846689
 0
VERTEX
 8
0
 10
16385.77249937655
 20
-36655.20976009538
 0
VERTEX
 8
0
 10
16385.85968780824
 20
-36655.26680917447
 0
VERTEX
 8
0
 10
16385.90834196824
 20
-36655.26680917447
 0
VERTEX
 8
0
 10
16385.90834196824
 20
-36654.6871822127
 0
VERTEX
 8
0
 10
16386.59492241147
 20
-36654.6871822127
 0
VERTEX
 8
0
 10
16386.59492241147
 20
-36658.43219985625
 0
VERTEX
 8
0
 10
16385.8890050214
 20
-36658.43219985625
 0
VERTEX
 8
0
 10
16385.8890050214
 20
-36657.82863862228
 0
VERTEX
 8
0
 10
16385.80398727188
 20
-36657.82863862228
 42
-0.08771227040046221
 0
VERTEX
 8
0
 10
16385.49665100132
 20
-36658.12962929491 
 0
SEQEND
 8
0
 0
POLYLINE
 8
0
 66
1
 10
0
 20
0
 70
0
 0
VERTEX
 8
0
 10
16402.61784064637
 20
-36657.69777271012
 0
VERTEX
 8
0
 10
16402.61784064637
 20
-36658.43317308721
 0
VERTEX
 8
0
 10
16403.26045816286
 20
-36658.43317308721
 0
VERTEX
 8
0
 10
16403.26045816286
 20
-36654.65478277217
 0
VERTEX
 8
0
 10
16402.57887723862
 20
-36654.65478277217
 0
VERTEX
 8
0
 10
16402.57887723862
 20
-36655.236883016
 0
VERTEX
 8
0
 10
16402.41864516156
 20
-36655.236883016
 0
VERTEX
 8
0
 10
16402.38455712702
 20
-36655.20976009538
 42
0.41291901946059834
 0
VERTEX
 8
0
 10
16397.76911404137
 20
-36655.75553672923
 42
0.21217140431023018
 0
VERTEX
 8
0
 10
16397.76968934778
 20
-36657.41155015089
 42
0.3545775883630204
 0
VERTEX
 8
0
 10
16402.10870875178
 20
-36658.12962929491
 42
0.09519426542863045
 0
VERTEX
 8
0
 10
16402.61784064637
 20
-36657.69777271012 
 0
SEQEND
 8
0
 0
POLYLINE
 8
0
 66
1
 10
0
 20
0
 70
1
 0
VERTEX
 8
0
 10
16404.34242407489
 20
-36657.23466551543
 42
0.4526768986613979
 0
VERTEX
 8
0
 10
16408.26530507902
 20
-36657.97658306114
 0
VERTEX
 8
0
 10
16408.26530507902
 20
-36658.43219985625
 0
VERTEX
 8
0
 10
16408.91685864157
 20
-36658.43219985625
 0
VERTEX
 8
0
 10
16408.91685864157
 20
-36654.69744688783
 0
VERTEX
 8
0
 10
16408.26530507902
 20
-36654.69744688783
 0
VERTEX
 8
0
 10
16408.26530507902
 20
-36657.23466551543
 42
-0.5333382155864556
 0
VERTEX
 8
0
 10
16405.06184491946
 20
-36657.23466551543
 0
VERTEX
 8
0
 10
16405.06184491946
 20
-36654.68387988206
 0
VERTEX
 8
0
 10
16404.34242407489
 20
-36654.68387988206
 0
SEQEND
 8
0
 0
ARC
 8
0
 10
16426.33833102364
 20
-36657.26710459795
 40
2.694332799103223
 50
44.12478938110208
 51
129.41081513260502
 0
POLYLINE
 8
0
 66
1
 10
0
 20
0
 70
1
 0
VERTEX
 8
0
 10
16434.315037366
 20
-36655.20976009538
 0
VERTEX
 8
0
 10
16434.14290180972
 20
-36655.20976009538
 0
VERTEX
 8
0
 10
16434.14290180972
 20
-36653.45630292777
 0
VERTEX
 8
0
 10
16433.49261433107
 20
-36653.45630292777
 0
VERTEX
 8
0
 10
16433.49261433107
 20
-36658.43219985625
 0
VERTEX
 8
0
 10
16434.15469410647
 20
-36658.43219985625
 0
VERTEX
 8
0
 10
16434.15469410647
 20
-36657.9511215394
 0
VERTEX
 8
0
 10
16434.30945017667
 20
-36657.9511215394
 42
0.3816915914130572
 0
VERTEX
 8
0
 10
16438.92990514524
 20
-36657.41155015089
 42
0.21217140431023024
 0
VERTEX
 8
0
 10
16438.93048045165
 20
-36655.75553672923
 42
0.4129190194605446
 0
SEQEND
 8
0
 0
POLYLINE
 8
0
 66
1
 10
0
 20
0
 70
0
 0
VERTEX
 8
0
 10
16440.06836888192
 20
-36653.45630292777
 0
VERTEX
 8
0
 10
16440.06836888192
 20
-36658.43219985625
 0
VERTEX
 8
0
 10
16440.87753044425
 20
-36658.43219985625
 0
VERTEX
 8
0
 10
16440.87753044425
 20
-36656.16398115367
 0
VERTEX
 8
0
 10
16444.29641067328
 20
-36656.16398115367
 0
VERTEX
 8
0
 10
16444.29641067328
 20
-36658.43219985625
 0
VERTEX
 8
0
 10
16445.05454430148
 20
-36658.43219985625
 0
VERTEX
 8
0
 10
16445.05454430148
 20
-36653.45630292777
 0
VERTEX
 8
0
 10
16444.25267244402
 20
-36653.45630292777
 0
VERTEX
 8
0
 10
16444.25267244402
 20
-36655.65401368225
 0
VERTEX
 8
0
 10
16440.88482014913
 20
-36655.65401368225
 0
VERTEX
 8
0
 10
16440.88482014913
 20
-36653.45630292777
 0
VERTEX
 8
0
 10
16440.06836888192
 20
-36653.45630292777 
 0
SEQEND
 8
0
 0
POLYLINE
 8
0
 66
1
 10
0
 20
0
 70
1
 0
VERTEX
 8
0
 10
16440.96024309926
 20
-36608.14176199144
 0
VERTEX
 8
0
 10
16443.06833579137
 20
-36608.14126361394
 0
VERTEX
 8
0
 10
16443.14023590077
 20
-36608.14126361394
 0
VERTEX
 8
0
 10
16443.14023590077
 20
-36607.19566978147
 0
VERTEX
 8
0
 10
16428.30117263175
 20
-36607.19566978147
 0
VERTEX
 8
0
 10
16428.30117263175
 20
-36608.14228561267
 0
VERTEX
 8
0
 10
16430.19909827704
 20
-36608.14228561267
 0
VERTEX
 8
0
 10
16431.69255655261
 20
-36608.31269923917
 0
VERTEX
 8
0
 10
16432.89441926653
 20
-36608.68510711785
 0
VERTEX
 8
0
 10
16433.31228619666
 20
-36608.96357155131
 0
VERTEX
 8
0
 10
16433.40458911393
 20
-36609.09594118167
 0
VERTEX
 8
0
 10
16433.47712832612
 20
-36609.24203598478
 0
VERTEX
 8
0
 10
16433.62968481226
 20
-36609.44941326776
 0
VERTEX
 8
0
 10
16433.64113474101
 20
-36610.20609185293
 0
VERTEX
 8
0
 10
16433.55472442327
 20
-36610.39079543871
 0
VERTEX
 8
0
 10
16433.48546296224
 20
-36610.51830367193
 0
VERTEX
 8
0
 10
16433.36731021347
 20
-36610.81292005833
 0
VERTEX
 8
0
 10
16433.21183049645
 20
-36611.09790565419
 0
VERTEX
 8
0
 10
16433.06796635481
 20
-36611.45290763815
 0
VERTEX
 8
0
 10
16422.35519867565
 20
-36624.26659946195
 0
VERTEX
 8
0
 10
16409.50775469367
 20
-36609.74585179846
 0
VERTEX
 8
0
 10
16409.27738862923
 20
-36609.48757479223
 0
VERTEX
 8
0
 10
16409.16288144239
 20
-36609.16240663182
 0
VERTEX
 8
0
 10
16409.25773283847
 20
-36608.88447815977
 0
VERTEX
 8
0
 10
16409.58784692516
 20
-36608.51050942636
 0
VERTEX
 8
0
 10
16410.08417550283
 20
-36608.27328865693
 0
VERTEX
 8
0
 10
16410.53642321706
 20
-36608.14146771617
 0
VERTEX
 8
0
 10
16411.10487149524
 20
-36608.04971642733
 0
VERTEX
 8
0
 10
16414.13939771576
 20
-36608.04971642733
 0
VERTEX
 8
0
 10
16414.13939771576
 20
-36607.19566978147
 0
VERTEX
 8
0
 10
16395.7038639894
 20
-36607.19566978147
 0
VERTEX
 8
0
 10
16395.7038639894
 20
-36608.04971642733
 0
VERTEX
 8
0
 10
16397.44814374775
 20
-36608.04971642733
 42
-0.126891312355607
 0
VERTEX
 8
0
 10
16401.50265667793
 20
-36609.51852101387
 0
VERTEX
 8
0
 10
16401.80648443741
 20
-36609.82234877335
 0
VERTEX
 8
0
 10
16402.18303546021
 20
-36610.19889979616
 0
VERTEX
 8
0
 10
16403.34656514445
 20
-36611.30386111699
 0
VERTEX
 8
0
 10
16403.69566263733
 20
-36611.65295860987
 0
VERTEX
 8
0
 10
16406.25390851062
 20
-36614.55874895062
 0
VERTEX
 8
0
 10
16398.9123228905
 20
-36624.07719350497
 0
VERTEX
 8
0
 10
16386.03583531783
 20
-36609.54714630626
 42
-0.1562881665377646
 0
VERTEX
 8
0
 10
16385.90160359296
 20
-36609.08270760174
 42
-0.21897103085641684
 0
VERTEX
 8
0
 10
16386.10945405891
 20
-36608.72270003434
 42
-0.06486855423737817
 0
VERTEX
 8
0
 10
16386.38629849248
 20
-36608.55638932519
 42
-0.0638530085471475
 0
VERTEX
 8
0
 10
16386.74225540099
 20
-36608.35735200915
 42
-0.049986247374240955
 0
VERTEX
 8
0
 10
16386.99610710234
 20
-36608.23817345157
 42
-0.013153591028108223
 0
VERTEX
 8
0
 10
16387.65151167123
 20
-36608.11587449604
 42
-0.021707785673559406
 0
VERTEX
 8
0
 10
16388.26591533368
 20
-36608.04971642733
 0
VERTEX
 8
0
 10
16390.82444340695
 20
-36608.03888069219
 0
VERTEX
 8
0
 10
16390.82444340695
 20
-36607.18548426991
 0
VERTEX
 8
0
 10
16372.33009600017
 20
-36607.18548426991
 0
VERTEX
 8
0
 10
16372.33009600017
 20
-36608.04971642733
 0
VERTEX
 8
0
 10
16373.81930235848
 20
-36608.04971642733
 0
VERTEX
 8
0
 10
16374.10645605242
 20
-36608.05696050175
 0
VERTEX
 8
0
 10
16374.83114909949
 20
-36608.13711535875
 42
-0.05867899056297879
 0
VERTEX
 8
0
 10
16377.50349709878
 20
-36608.99174126491
 42
-0.062318372192588144
 0
VERTEX
 8
0
 10
16379.18574711837
 20
-36610.46480668169
 0
VERTEX
 8
0
 10
16395.32766930223
 20
-36628.78748855904
 0
VERTEX
 8
0
 10
16396.32130644035
 20
-36628.78748855904
 0
VERTEX
 8
0
 10
16406.77593707968
 20
-36615.21354507275
 0
VERTEX
 8
0
 10
16418.76056781113
 20
-36628.78739301813
 0
VERTEX
 8
0
 10
16419.50427027995
 20
-36628.78758409993
 0
VERTEX
 8
0
 10
16434.67046910771
 20
-36610.71145083567
 42
-0.08202805304718706
 0
VERTEX
 8
0
 10
16435.41281228879
 20
-36609.9625430892
 42
-0.031341679454212706
 0
VERTEX
 8
0
 10
16436.89616738642
 20
-36609.10250095673
 42
-0.10384914502052284
 0
VERTEX
 8
0
 10
16439.50112340615
 20
-36608.34592625013
 0
VERTEX
 8
0
 10
16440.3548583094
 20
-36608.22017373873
 0
SEQEND
 8
0
 0
POLYLINE
 8
0
 66
1
 10
0
 20
0
 70
0
 0
VERTEX
 8
0
 10
16419.07994524251
 20
-36628.18417607652
 0
VERTEX
 8
0
 10
16421.07861429435
 20
-36625.79353996313
 0
VERTEX
 8
0
 10
16406.30377798965
 20
-36609.45266739207
 42
-0.3266118623738125
 0
VERTEX
 8
0
 10
16406.30377798965
 20
-36609.02044205139
 42
-0.09457360824567897
 0
VERTEX
 8
0
 10
16406.74363696519
 20
-36608.58058307584
 0
VERTEX
 8
0
 10
16406.92599166442
 20
-36608.4959070274
 0
VERTEX
 8
0
 10
16407.11813880874
 20
-36608.42102342405
 0
VERTEX
 8
0
 10
16407.5737603937
 20
-36608.32186474932
 0
VERTEX
 8
0
 10
16408.66811647683
 20
-36608.06017694145
 0
VERTEX
 8
0
 10
16409.57897834993
 20
-36608.06017694145
 0
VERTEX
 8
0
 10
16409.57897834993
 20
-36607.96606166942
 0
VERTEX
 8
0
 10
16398.9857008039
 20
-36607.96606166942
 0
VERTEX
 8
0
 10
16400.06840095376
 20
-36608.16807482343
 0
VERTEX
 8
0
 10
16400.82682593801
 20
-36608.39599472421
 0
VERTEX
 8
0
 10
16401.27870388256
 20
-36608.65688657713
 0
VERTEX
 8
0
 10
16401.85500777527
 20
-36608.94231773899
 0
VERTEX
 8
0
 10
16402.35471298987
 20
-36609.27011276034
 0
VERTEX
 8
0
 10
16402.98251912357
 20
-36609.81978508206
 0
VERTEX
 8
0
 10
16403.78658089674
 20
-36610.71535140876
 0
VERTEX
 8
0
 10
16404.43357069885
 20
-36611.43172462398
 0
VERTEX
 8
0
 10
16405.67229266173
 20
-36612.79504485364
 0
VERTEX
 8
0
 10
16407.79414447123
 20
-36615.14625015138
 0
VERTEX
 8
0
 10
16419.07994524251
 20
-36628.18417607652 
 0
SEQEND
 8
0
 0
POLYLINE
 8
0
 66
1
 10
0
 20
0
 70
0
 0
VERTEX
 8
0
 10
16424.62776281601
 20
-36655.18542603502
 0
VERTEX
 8
0
 10
16424.62776281601
 20
-36654.69088659033
 0
VERTEX
 8
0
 10
16423.94328243003
 20
-36654.69088659033
 0
VERTEX
 8
0
 10
16423.94328243003
 20
-36658.43219985625
 0
VERTEX
 8
0
 10
16424.62776281601
 20
-36658.43219985625
 0
VERTEX
 8
0
 10
16424.62776281601
 20
-36655.79745572398
 42
-0.44518447638005254
 0
VERTEX
 8
0
 10
16427.86835423462
 20
-36655.79745572398
 0
VERTEX
 8
0
 10
16427.86835423462
 20
-36658.43219985625
 0
VERTEX
 8
0
 10
16428.57825568391
 20
-36658.43219985625
 0
VERTEX
 8
0
 10
16428.57825568391
 20
-36655.82106281314
 42
-0.47339453787191493
 0
VERTEX
 8
0
 10
16431.72547233508
 20
-36655.82106281314
 0
VERTEX
 8
0
 10
16431.72547233508
 20
-36658.43219985625
 0
VERTEX
 8
0
 10
16432.38658850396
 20
-36658.43219985625
 0
VERTEX
 8
0
 10
16432.38658850396
 20
-36655.68393429525
 42
0.4657173297493534
 0
VERTEX
 8
0
 10
16428.2723908411
 20
-36655.39124696614 
 0
SEQEND
 8
0
 0
LINE
 8
0
 10
16378.97287938574
 20
-36647.52306089249
 11
16378.97287938574
 21
-36645.14553185131
 0
LINE
 8
0
 10
16380.32051276501
 20
-36648.33948560777
 11
16380.32051276501
 21
-36647.52306089249
 0
POLYLINE
 8
0
 66
1
 10
0
 20
0
 70
0
 0
VERTEX
 8
0
 10
16430.64611514808
 20
-36647.10278372376
 0
VERTEX
 8
0
 10
16430.64611514808
 20
-36645.12489277218
 0
VERTEX
 8
0
 10
16433.43726790394
 20
-36645.12489277218
 42
-0.39135985908184096
 0
VERTEX
 8
0
 10
16434.60363807391
 20
-36646.11383824796
 42
-0.3519119492027074
 0
VERTEX
 8
0
 10
16433.43726790394
 20
-36647.10278372376
 0
VERTEX
 8
0
 10
16430.64611514808
 20
-36647.10278372376 
 0
SEQEND
 8
0
 0
POLYLINE
 8
0
 66
1
 10
0
 20
0
 70
1
 0
VERTEX
 8
0
 10
16377.38615042387
 20
-36657.14602011928
 0
VERTEX
 8
0
 10
16376.59639615348
 20
-36657.14602011928
 42
-0.4718011439352515
 0
VERTEX
 8
0
 10
16372.67237797226
 20
-36657.14602011928
 0
VERTEX
 8
0
 10
16372.67237797226
 20
-36656.68515677453
 0
VERTEX
 8
0
 10
16377.64431704983
 20
-36656.68515677453
 42
0.33861441473564985
 0
VERTEX
 8
0
 10
16374.75164116725
 20
-36654.41393120153
 42
0.28175396088341986
 0
VERTEX
 8
0
 10
16372.07895375324
 20
-36656.02376426147
 42
0.1819455292681523
 0
VERTEX
 8
0
 10
16372.07895375324
 20
-36657.34654928761
 42
0.2526058971841422
 0
VERTEX
 8
0
 10
16374.75164116725
 20
-36658.66292933422
 42
0.23438412469513806
 0
SEQEND
 8
0
 0
POLYLINE
 8
0
 66
1
 10
0
 20
0
 70
0
 0
VERTEX
 8
0
 10
16422.78015258381
 20
-36654.74472917535
 0
VERTEX
 8
0
 10
16422.619822685618
 20
-36654.53627274294
 0
VERTEX
 8
0
 10
16422.434979566257
 20
-36654.33857895546
 0
VERTEX
 8
0
 10
16422.227012035026
 20
-36654.15313317505
 0
VERTEX
 8
0
 10
16421.997482645304
 20
-36653.98132873908
 0
VERTEX
 8
0
 10
16421.748115954393
 20
-36653.824456491355
 0
VERTEX
 8
0
 10
16421.48078556613
 20
-36653.68369508346
 0
VERTEX
 8
0
 10
16421.197500053688
 20
-36653.56010211904
 0
VERTEX
 8
0
 10
16420.90038786823
 20
-36653.454606207466
 0
VERTEX
 8
0
 10
16420.59168134693
 20
-36653.36799998687
 0
VERTEX
 8
0
 10
16420.2736999404
 20
-36653.300934168656
 0
VERTEX
 8
0
 10
16419.948832785634
 20
-36653.253912648404
 0
VERTEX
 8
0
 10
16419.619520755336
 20
-36653.22728871989
 0
VERTEX
 8
0
 10
16419.288238118563
 20
-36653.22126242065
 0
VERTEX
 8
0
 10
16418.957473950417
 20
-36653.235879028965
 0
VERTEX
 8
0
 10
16418.62971343051
 20
-36653.27102872369
 0
VERTEX
 8
0
 10
16418.3074191707
 20
-36653.32644740941
 0
VERTEX
 8
0
 10
16417.99301271238
 20
-36653.40171870067
 0
VERTEX
 8
0
 10
16417.688856332355
 20
-36653.49627705048
 0
VERTEX
 8
0
 10
16417.397235293985
 20
-36653.60941199952
 0
VERTEX
 8
0
 10
16417.12034067699
 20
-36653.740273514166
 0
VERTEX
 8
0
 10
16416.860252914874
 20
-36653.88787837313
 0
VERTEX
 8
0
 10
16416.618926163697
 20
-36654.051117554875
 0
VERTEX
 8
0
 10
16416.39817361963
 20
-36654.22876457018
 0
VERTEX
 8
0
 10
16416.199653895594
 20
-36654.41948467731
 0
VERTEX
 8
0
 10
16416.02485855935
 20
-36654.62184491052
 0
VERTEX
 8
0
 10
16415.8751009267
 20
-36654.83432484657
 0
VERTEX
 8
0
 10
16415.751506193934
 20
-36655.05532802836
 0
VERTEX
 8
0
 10
16415.655002983738
 20
-36655.28319395981
 0
VERTEX
 8
0
 10
16415.58631636803
 20
-36655.51621058195
 0
VERTEX
 8
0
 10
16415.54596242018
 20
-36655.75262713631
 0
VERTEX
 8
0
 10
16415.534244337505
 20
-36655.99066731926
 0
VERTEX
 8
0
 10
16415.551250163215
 20
-36656.22854262807
 0
VERTEX
 8
0
 10
16415.596852124912
 20
-36656.464465798825
 0
VERTEX
 8
0
 10
16415.670707594596
 20
-36656.69666423487
 0
VERTEX
 8
0
 10
16415.772261662984
 20
-36656.92339332516
 0
VERTEX
 8
0
 10
16415.900751308785
 20
-36657.14294955231
 0
VERTEX
 8
0
 10
16416.055211131643
 20
-36657.35368329187
 0
VERTEX
 8
0
 10
16416.2344806056
 20
-36657.55401120668
 0
VERTEX
 8
0
 10
16416.437212798646
 20
-36657.74242814324
 0
VERTEX
 8
0
 10
16416.661884492856
 20
-36657.91751844055
 0
VERTEX
 8
0
 10
16416.90680762897
 20
-36658.07796656664
 0
VERTEX
 8
0
 10
16417.170141989573
 20
-36658.222567002755
 0
VERTEX
 8
0
 10
16417.44990902544
 20
-36658.350233300924
 0
VERTEX
 8
0
 10
16417.744006721303
 20
-36658.460006246954
 0
VERTEX
 8
0
 10
16418.050225389205
 20
-36658.55106106746
 0
VERTEX
 8
0
 10
16418.366264270884
 20
-36658.62271362671
 0
VERTEX
 8
0
 10
16418.689748824414
 20
-36658.67442556688
 0
VERTEX
 8
0
 10
16419.018248565186
 20
-36658.705808352956
 0
VERTEX
 8
0
 10
16419.34929532725
 20
-36658.71662619198
 0
VERTEX
 8
0
 10
16419.68040180773
 20
-36658.706797804676
 0
VERTEX
 8
0
 10
16420.00908025507
 20
-36658.676397036135
 0
VERTEX
 8
0
 10
16420.33286116061
 20
-36658.62565230096
 0
VERTEX
 8
0
 10
16420.649311813115
 20
-36658.55494486713
 0
VERTEX
 8
0
 10
16420.95605457684
 20
-36658.46480599131
 0
VERTEX
 8
0
 10
16421.25078475576
 20
-36658.35591292733
 0
VERTEX
 8
0
 10
16421.53128790979
 20
-36658.229083837636
 0
VERTEX
 8
0
 10
16421.79545649287
 20
-36658.085271646094
 0
VERTEX
 8
0
 10
16422.041305687893
 20
-36657.925556878225
 0
VERTEX
 8
0
 10
16422.26698831954
 20
-36657.75113954276
 0
VERTEX
 8
0
 10
16422.470808732938
 20
-36657.56333011538
 0
VERTEX
 8
0
 10
16422.651235533856
 20
-36657.36353969261
 0
VERTEX
 8
0
 10
16422.80691309478
 20
-36657.153269389535
 0
VERTEX
 8
0
 10
16422.936671740343
 20
-36656.9340990613
 0
VERTEX
 8
0
 10
16423.03953653561
 20
-36656.707675432925
 0
VERTEX
 8
0
 10
16423.11473461122
 20
-36656.47569972672
 0
VERTEX
 8
0
 10
16423.161700970286
 20
-36656.23991488027
 0
VERTEX
 8
0
 10
16423.180082733485
 20
-36656.00209245092 
 0
SEQEND
 8
0
 0
LINE
 8
0
 10
16421.53617998992
 20
-36654.74472917535
 11
16422.78015258381
 21
-36654.74472917535
 0
POLYLINE
 8
0
 66
1
 10
0
 20
0
 70
0
 0
VERTEX
 8
0
 10
16422.10349330558
 20
-36656.60101228223
 0
VERTEX
 8
0
 10
16418.50720723182
 20
-36656.60101228223
 0
VERTEX
 8
0
 10
16418.50720723182
 20
-36656.00209245092
 0
VERTEX
 8
0
 10
16423.18008273347
 20
-36656.00209245092 
 0
SEQEND
 8
0
 0
SPLINE
 8
0
 70
8
 71
3
 72
124
 73
120
 40
7.071057196832211
 40
7.071057196832211
 40
7.071057196832211
 40
7.071057196832211
 40
7.118893269370176
 40
7.118893269370176
 40
7.194866720478412
 40
7.194866720478412
 40
7.270840171586647
 40
7.270840171586647
 40
7.346813622694883
 40
7.346813622694883
 40
7.422787073803118
 40
7.422787073803118
 40
7.498760524911354
 40
7.498760524911354
 40
7.601179146751011
 40
7.601179146751011
 40
7.703597768590668
 40
7.703597768590668
 40
7.806016390430325
 40
7.806016390430325
 40
7.908435012269983
 40
7.908435012269983
 40
8.01085363410964
 40
8.01085363410964
 40
8.113272255949298
 40
8.113272255949298
 40
8.215690877788955
 40
8.215690877788955
 40
8.318109499628612
 40
8.318109499628612
 40
8.42052812146827
 40
8.42052812146827
 40
8.522946743307926
 40
8.522946743307926
 40
8.625365365147584
 40
8.625365365147584
 40
8.72778398698724
 40
8.72778398698724
 40
8.830202608826898
 40
8.830202608826898
 40
8.914023877397591
 40
8.914023877397591
 40
8.997845145968284
 40
8.997845145968284
 40
9.081666414538976
 40
9.081666414538976
 40
9.165487683109667
 40
9.165487683109667
 40
9.249308951680362
 40
9.249308951680362
 40
9.333130220251054
 40
9.333130220251054
 40
9.416951488821747
 40
9.416951488821747
 40
9.50077275739244
 40
9.50077275739244
 40
9.584594025963133
 40
9.584594025963133
 40
9.668415294533826
 40
9.668415294533826
 40
9.752236563104518
 40
9.752236563104518
 40
9.83605783167521
 40
9.83605783167521
 40
9.919879100245902
 40
9.919879100245902
 40
10.00370036881659
 40
10.00370036881659
 40
10.08752163738729
 40
10.08752163738729
 40
10.17134290595798
 40
10.17134290595798
 40
10.25516417452867
 40
10.25516417452867
 40
10.33898544309937
 40
10.33898544309937
 40
10.42280671167006
 40
10.42280671167006
 40
10.50662798024075
 40
10.50662798024075
 40
10.59044924881144
 40
10.59044924881144
 40
10.67427051738214
 40
10.67427051738214
 40
10.75809178595283
 40
10.75809178595283
 40
10.84191305452352
 40
10.84191305452352
 40
10.92573432309421
 40
10.92573432309421
 40
11.0095555916649
 40
11.0095555916649
 40
11.09337686023559
 40
11.09337686023559
 40
11.17719812880629
 40
11.17719812880629
 40
11.26101939737698
 40
11.26101939737698
 40
11.34484066594767
 40
11.34484066594767
 40
11.42866193451836
 40
11.42866193451836
 40
11.51248320308906
 40
11.51248320308906
 40
11.59630447165975
 40
11.59630447165975
 40
11.68012574023044
 40
11.68012574023044
 40
11.76394700880113
 40
11.76394700880113
 40
11.84776827737183
 40
11.84776827737183
 40
11.93158954594252
 40
11.93158954594252
 40
12.01541081451321
 40
12.01541081451321
 40
12.0992320830839
 40
12.0992320830839
 40
12.15796531279343
 40
12.15796531279343
 40
12.15796531279343
 40
12.15796531279343
 10
16421.53617998992
 20
-36654.74472917535
 30
0
 10
16421.50389047043
 20
-36654.72163554416
 30
0
 10
16421.47058358767
 20
-36654.6989184654
 30
0
 10
16421.38183232575
 20
-36654.64124363596
 30
0
 10
16421.32489064187
 20
-36654.60694596056
 30
0
 10
16421.20638817221
 20
-36654.54096201351
 30
0
 10
16421.14482777209
 20
-36654.50927595336
 30
0
 10
16421.01749384517
 20
-36654.44890145185
 30
0
 10
16420.95172066384
 20
-36654.42021313189
 30
0
 10
16420.81641820257
 20
-36654.36617646711
 30
0
 10
16420.74688922436
 20
-36654.3408281846
 30
0
 10
16420.60457353651
 20
-36654.29376745047
 30
0
 10
16420.53178708827
 20
-36654.27205502499
 30
0
 10
16420.35767739399
 20
-36654.22563232973
 30
0
 10
16420.25523905283
 20
-36654.20251228637
 30
0
 10
16420.04677788438
 20
-36654.16380586378
 30
0
 10
16419.94075592095
 20
-36654.14821946158
 30
0
 10
16419.72655826807
 20
-36654.12489071099
 30
0
 10
16419.61838334805
 20
-36654.1171483348
 30
0
 10
16419.40134283035
 20
-36654.1096600053
 30
0
 10
16419.29247795768
 20
-36654.10991404116
 30
0
 10
16419.07553064621
 20
-36654.11841353165
 30
0
 10
16418.96744893384
 20
-36654.12665899848
 30
0
 10
16418.75352952453
 20
-36654.15097896411
 30
0
 10
16418.64769260145
 20
-36654.16705349124
 30
0
 10
16418.43969050174
 20
-36654.20671115933
 30
0
 10
16418.3375261968
 20
-36654.23029432175
 30
0
 10
16418.1382387354
 20
-36654.28448995414
 30
0
 10
16418.04111660523
 20
-36654.31510239028
 30
0
 10
16417.85319632497
 20
-36654.3827183383
 30
0
 10
16417.76239941452
 20
-36654.41972167113
 30
0
 10
16417.58829207073
 20
-36654.49932504293
 30
0
 10
16417.50498313277
 20
-36654.5419246043
 30
0
 10
16417.34685300158
 20
-36654.6317790988
 30
0
 10
16417.2720335416
 20
-36654.67903301949
 30
0
 10
16417.1316738048
 20
-36654.77712927077
 30
0
 10
16417.06613533883
 20
-36654.8279697405
 30
0
 10
16416.94486520274
 20
-36654.93208832142
 30
0
 10
16416.8891350002
 20
-36654.9853634127
 30
0
 10
16416.79690393798
 20
-36655.08339920027
 30
0
 10
16416.75874597664
 20
-36655.12794811431
 30
0
 10
16416.68907912411
 20
-36655.21730987338
 30
0
 10
16416.65756974201
 20
-36655.26212090137
 30
0
 10
16416.60099322614
 20
-36655.35151137193
 30
0
 10
16416.57592474059
 20
-36655.39608907409
 30
0
 10
16416.53189907968
 20
-36655.48466751888
 30
0
 10
16416.5129396347
 20
-36655.52866712718
 30
0
 10
16416.48073138295
 20
-36655.61593949993
 30
0
 10
16416.46747968266
 20
-36655.65921233464
 30
0
 10
16416.44629552693
 20
-36655.74509498898
 30
0
 10
16416.4383602543
 20
-36655.78770645925
 30
0
 10
16416.4275155742
 20
-36655.87251916359
 30
0
 10
16416.42460433214
 20
-36655.91472346759
 30
0
 10
16416.42368564309
 20
-36655.99909149293
 30
0
 10
16416.42567802606
 20
-36656.04125892548
 30
0
 10
16416.43464807642
 20
-36656.12593448787
 30
0
 10
16416.44162730477
 20
-36656.1684458822
 30
0
 10
16416.46083479202
 20
-36656.25409338455
 30
0
 10
16416.47306575333
 20
-36656.29723144009
 30
0
 10
16416.50315597188
 20
-36656.38423791751
 30
0
 10
16416.52101817222
 20
-36656.4281066887
 30
0
 10
16416.56277742305
 20
-36656.51646695808
 30
0
 10
16416.58667689466
 20
-36656.56095750343
 30
0
 10
16416.6408614099
 20
-36656.65025100964
 30
0
 10
16416.67114798083
 20
-36656.69505229812
 30
0
 10
16416.73834130334
 20
-36656.78449604169
 30
0
 10
16416.77524869157
 20
-36656.82913666266
 30
0
 10
16416.85576997016
 20
-36656.91768151771
 30
0
 10
16416.89938382297
 20
-36656.96158412228
 30
0
 10
16416.99324802619
 20
-36657.04802226588
 30
0
 10
16417.04349793171
 20
-36657.09055653887
 30
0
 10
16417.15041617263
 20
-36657.17361810445
 30
0
 10
16417.2070838776
 20
-36657.21414450743
 30
0
 10
16417.32648851716
 20
-36657.2925734731
 30
0
 10
16417.38922478262
 20
-36657.33047546185
 30
0
 10
16417.52030620892
 20
-36657.40308347503
 30
0
 10
16417.58865074145
 20
-36657.43778915893
 30
0
 10
16417.73039695437
 20
-36657.50349056857
 30
0
 10
16417.80379807977
 20
-36657.53448611123
 30
0
 10
16417.95503216229
 20
-36657.5923189454
 30
0
 10
16418.03286464265
 20
-36657.61915615179
 30
0
 10
16418.19227802891
 20
-36657.66829352801
 30
0
 10
16418.27385852761
 20
-36657.69059366863
 30
0
 10
16418.44003967227
 20
-36657.73034919982
 30
0
 10
16418.52463996674
 20
-36657.74780458931
 30
0
 10
16418.69609887638
 20
-36657.77763433328
 30
0
 10
16418.78295718113
 20
-36657.79000869751
 30
0
 10
16418.95814660792
 20
-36657.80951134447
 30
0
 10
16419.04647744693
 20
-36657.81663963764
 30
0
 10
16419.22381161146
 20
-36657.82555599728
 30
0
 10
16419.312814669
 20
-36657.82734406944
 30
0
 10
16419.49068633032
 20
-36657.82555648328
 30
0
 10
16419.57955466982
 20
-36657.82198082376
 30
0
 10
16419.7563512852
 20
-36657.80951283819
 30
0
 10
16419.84427928939
 20
-36657.80062050447
 30
0
 10
16420.01839895072
 20
-36657.77763693903
 30
0
 10
16420.10459031714
 20
-36657.76354569633
 30
0
 10
16420.27445813596
 20
-36657.73035308131
 30
0
 10
16420.35813426584
 20
-36657.71125170145
 30
0
 10
16420.5222199086
 20
-36657.66829888977
 30
0
 10
16420.60262905306
 20
-36657.64444746606
 30
0
 10
16420.75946619372
 20
-36657.59232600016
 30
0
 10
16420.8358937609
 20
-36657.56405600212
 30
0
 10
16420.98410229137
 20
-36657.5034994834
 30
0
 10
16421.05588275231
 20
-36657.47121307503
 30
0
 10
16421.19419461461
 20
-36657.40309428734
 30
0
 10
16421.26072543495
 20
-36657.36726213613
 30
0
 10
16421.38801480226
 20
-36657.29258596814
 30
0
 10
16421.44877270181
 20
-36657.25374236069
 30
0
 10
16421.56409075585
 20
-36657.17363165141
 30
0
 10
16421.61865024236
 20
-36657.13236521999
 30
0
 10
16421.72126369643
 20
-36657.04803562551
 30
0
 10
16421.76931707534
 20
-36657.00497347323
 30
0
 10
16421.85874754511
 20
-36656.9176926675
 30
0
 10
16421.90012429892
 20
-36656.8734754084
 30
0
 10
16421.97618239081
 20
-36656.78450211352
 30
0
 10
16422.01086388635
 20
-36656.73974780257
 30
0
 10
16422.06426896207
 20
-36656.66364223836
 30
0
 10
16422.0846623918
 20
-36656.63228951566
 30
0
 10
16422.10349330558
 20
-36656.60101228223
 30
0
 0
POLYLINE
 8
0
 66
1
 10
0
 20
0
 70
0
 0
VERTEX
 8
0
 10
16423.48596900949
 20
-36636.83171841864
 0
VERTEX
 8
0
 10
16423.40639449773
 20
-36637.31388010226
 0
VERTEX
 8
0
 10
16423.23719327396
 20
-36637.66550285097
 42
-0.11306832185377338
 0
VERTEX
 8
0
 10
16422.98001006975
 20
-36637.91614045805
 42
-0.0572278565548451
 0
VERTEX
 8
0
 10
16422.4640870022
 20
-36638.16991222901
 0
VERTEX
 8
0
 10
16420.44564359133
 20
-36638.65372372865
 0
VERTEX
 8
0
 10
16420.44564359133
 20
-36638.71704560855
 0
VERTEX
 8
0
 10
16429.86482566918
 20
-36638.71704560855
 0
VERTEX
 8
0
 10
16428.98267456479
 20
-36638.57674405103
 42
-0.015813092916972023
 0
VERTEX
 8
0
 10
16427.94109746576
 20
-36638.45484661752
 42
-0.04809776484444086
 0
VERTEX
 8
0
 10
16426.38564775848
 20
-36638.20767075591
 0
VERTEX
 8
0
 10
16425.13529866535
 20
-36637.7871503242
 42
-0.07720937978979883
 0
VERTEX
 8
0
 10
16424.02066005807
 20
-36637.18492246601
 42
-0.10808279344048775
 0
VERTEX
 8
0
 10
16423.64952029746
 20
-36636.83163493532
 0
VERTEX
 8
0
 10
16423.48596900949
 20
-36636.83171841864 
 0
SEQEND
 8
0
 0
POLYLINE
 8
0
 66
1
 10
0
 20
0
 70
1
 0
VERTEX
 8
0
 10
16430.13638238093
 20
-36638.26856334544
 0
VERTEX
 8
0
 10
16432.31637518244
 20
-36638.4503488397
 0
VERTEX
 8
0
 10
16432.31637518244
 20
-36639.21465555541
 0
VERTEX
 8
0
 10
16417.47731191342
 20
-36639.21465555541
 0
VERTEX
 8
0
 10
16417.47731191342
 20
-36638.39355930575
 0
VERTEX
 8
0
 10
16419.37523755871
 20
-36638.2680397242
 42
0.06707239331577587
 0
VERTEX
 8
0
 10
16420.86869583428
 20
-36638.0976260977
 42
0.09067926944980421
 0
VERTEX
 8
0
 10
16421.92771824866
 20
-36637.72521821904
 42
0.12350543423850066
 0
VERTEX
 8
0
 10
16422.27652616481
 20
-36637.44675378557
 0
VERTEX
 8
0
 10
16422.43965304669
 20
-36637.26549779153
 42
0.13391067868415552
 0
VERTEX
 8
0
 10
16422.42415211936
 20
-36636.4765351207
 42
0.08526026005256014
 0
VERTEX
 8
0
 10
16422.17169112307
 20
-36635.87989368856
 0
VERTEX
 8
0
 10
16421.90811472909
 20
-36635.43323701231
 0
VERTEX
 8
0
 10
16410.70243306209
 20
-36622.47413738137
 0
VERTEX
 8
0
 10
16399.78586776586
 20
-36636.66447353842
 0
VERTEX
 8
0
 10
16399.55550170141
 20
-36636.92275054465
 0
VERTEX
 8
0
 10
16399.44099451458
 20
-36637.24791870506
 0
VERTEX
 8
0
 10
16399.53584591065
 20
-36637.5258471771
 0
VERTEX
 8
0
 10
16399.86595999735
 20
-36637.89981591051
 0
VERTEX
 8
0
 10
16400.36228857501
 20
-36638.13703667995
 0
VERTEX
 8
0
 10
16400.81453628924
 20
-36638.26885762071
 0
VERTEX
 8
0
 10
16401.38298456743
 20
-36638.36060890956
 0
VERTEX
 8
0
 10
16404.41751078795
 20
-36638.36060890956
 0
VERTEX
 8
0
 10
16404.41751078795
 20
-36639.21465555541
 0
VERTEX
 8
0
 10
16385.98197706158
 20
-36639.21465555541
 0
VERTEX
 8
0
 10
16385.98197706158
 20
-36638.36060890956
 0
VERTEX
 8
0
 10
16387.72625681993
 20
-36638.36060890956
 42
0.12689131235570306
 0
VERTEX
 8
0
 10
16391.78076975011
 20
-36636.89180432301
 0
VERTEX
 8
0
 10
16392.08459750959
 20
-36636.58797656353
 0
VERTEX
 8
0
 10
16392.4611485324
 20
-36636.21142554072
 0
VERTEX
 8
0
 10
16395.51899957663
 20
-36631.85157638626
 0
VERTEX
 8
0
 10
16387.37530916362
 20
-36622.46418199449
 0
VERTEX
 8
0
 10
16376.31394839002
 20
-36636.86317903063
 42
0.15628816653728986
 0
VERTEX
 8
0
 10
16376.17971666514
 20
-36637.32761773514
 42
0.21897103085572317
 0
VERTEX
 8
0
 10
16376.38756713109
 20
-36637.68762530254
 42
0.06486855423723964
 0
VERTEX
 8
0
 10
16376.66441156467
 20
-36637.85393601169
 42
0.06385300854720391
 0
VERTEX
 8
0
 10
16377.02036847317
 20
-36638.05297332774
 42
0.04998624737397417
 0
VERTEX
 8
0
 10
16377.27422017453
 20
-36638.17215188533
 42
0.013153591028111944
 0
VERTEX
 8
0
 10
16377.92962474342
 20
-36638.29445084084
 42
0.021707785673537972
 0
VERTEX
 8
0
 10
16378.54402840587
 20
-36638.36060890956
 0
VERTEX
 8
0
 10
16381.10255647914
 20
-36638.37144464471
 0
VERTEX
 8
0
 10
16381.10255647914
 20
-36639.22484106697
 0
VERTEX
 8
0
 10
16362.60820907236
 20
-36639.22484106697
 0
VERTEX
 8
0
 10
16362.60820907236
 20
-36638.36060890956
 0
VERTEX
 8
0
 10
16364.09741543066
 20
-36638.36060890956
 0
VERTEX
 8
0
 10
16364.38456912461
 20
-36638.35336483513
 0
VERTEX
 8
0
 10
16365.10926217168
 20
-36638.27320997814
 42
0.11220128502471016
 0
VERTEX
 8
0
 10
16367.59098784112
 20
-36637.22796174212
 42
0.09794611747984523
 0
VERTEX
 8
0
 10
16369.22803501809
 20
-36635.70969348273
 0
VERTEX
 8
0
 10
16383.14236772825
 20
-36617.62283677785
 0
VERTEX
 8
0
 10
16384.13600486637
 20
-36617.62283677785
 0
VERTEX
 8
0
 10
16396.04102814569
 20
-36631.19678026415
 0
VERTEX
 8
0
 10
16406.36189721004
 20
-36617.67040580594
 0
VERTEX
 8
0
 10
16407.66957996049
 20
-36617.68372835372
 0
VERTEX
 8
0
 10
16423.62605801473
 20
-36635.79185379339
 42
0.02647893216335453
 0
VERTEX
 8
0
 10
16424.4331968894
 20
-36636.47596584625
 42
0.037653718466380895
 0
VERTEX
 8
0
 10
16426.02971629484
 20
-36637.3504147534
 42
0.08367823685826577
 0
VERTEX
 8
0
 10
16428.67726268782
 20
-36638.06439908675
 0
VERTEX
 8
0
 10
16429.53099759107
 20
-36638.19015159814
 0
SEQEND
 8
0
 0
POLYLINE
 8
0
 66
1
 10
0
 20
0
 70
0
 0
VERTEX
 8
0
 10
16406.96391473748
 20
-36618.37039264136
 0
VERTEX
 8
0
 10
16409.25658255003
 20
-36620.98129546496
 0
VERTEX
 8
0
 10
16396.58189106183
 20
-36637.13367906367
 42
0.3266118623738125
 0
VERTEX
 8
0
 10
16396.58189106183
 20
-36637.56590440435
 42
0.09457360824569655
 0
VERTEX
 8
0
 10
16397.02175003738
 20
-36638.00576337989
 0
VERTEX
 8
0
 10
16397.2041047366
 20
-36638.09043942834
 0
VERTEX
 8
0
 10
16397.39625188093
 20
-36638.16532303169
 0
VERTEX
 8
0
 10
16397.85187346589
 20
-36638.26448170642
 0
VERTEX
 8
0
 10
16398.94622954901
 20
-36638.52616951428
 0
VERTEX
 8
0
 10
16399.85709142211
 20
-36638.52616951428
 0
VERTEX
 8
0
 10
16399.85709142211
 20
-36638.68050541836
 0
VERTEX
 8
0
 10
16389.26381387609
 20
-36638.68050541836
 0
VERTEX
 8
0
 10
16390.34651402595
 20
-36638.4182716323
 0
VERTEX
 8
0
 10
16391.1049390102
 20
-36638.19035173153
 0
VERTEX
 8
0
 10
16391.55681695474
 20
-36637.92945987861
 0
VERTEX
 8
0
 10
16392.13312084746
 20
-36637.60170254621
 0
VERTEX
 8
0
 10
16392.63282606205
 20
-36637.23483853928
 0
VERTEX
 8
0
 10
16393.4044891893
 20
-36636.41592520227
 0
VERTEX
 8
0
 10
16406.96391473748
 20
-36618.37039264136 
 0
SEQEND
 8
0
 0
POLYLINE
 8
0
 66
1
 10
0
 20
0
 70
0
 0
VERTEX
 8
0
 10
16383.64576988116
 20
-36618.22997896725
 0
VERTEX
 8
0
 10
16385.8466726013
 20
-36620.76625284716
 0
VERTEX
 8
0
 10
16373.00130803402
 20
-36637.16393846863
 42
0.3266118623738125
 0
VERTEX
 8
0
 10
16373.00130803402
 20
-36637.59616380931
 42
0.0945736082455851
 0
VERTEX
 8
0
 10
16373.44116700957
 20
-36638.03602278486
 0
VERTEX
 8
0
 10
16373.62352170879
 20
-36638.1206988333
 0
VERTEX
 8
0
 10
16373.81566885312
 20
-36638.19558243665
 0
VERTEX
 8
0
 10
16374.27129043808
 20
-36638.29474111139
 0
VERTEX
 8
0
 10
16375.36564652121
 20
-36638.55642891926
 0
VERTEX
 8
0
 10
16376.27650839431
 20
-36638.55642891926
 0
VERTEX
 8
0
 10
16376.27650839431
 20
-36638.71076482333
 0
VERTEX
 8
0
 10
16365.68323084829
 20
-36638.71076482333
 0
VERTEX
 8
0
 10
16366.76593099814
 20
-36638.44853103727
 0
VERTEX
 8
0
 10
16367.52435598239
 20
-36638.2206111365
 0
VERTEX
 8
0
 10
16367.97623392694
 20
-36637.95971928357
 0
VERTEX
 8
0
 10
16368.55253781965
 20
-36637.63196195118
 0
VERTEX
 8
0
 10
16369.05224303425
 20
-36637.26509794425
 0
VERTEX
 8
0
 10
16369.82390616149
 20
-36636.44618460723
 0
VERTEX
 8
0
 10
16383.64576988116
 20
-36618.22997896725 
 0
SEQEND
 8
0
 0
POLYLINE
 8
0
 66
1
 10
0
 20
0
 70
1
 0
VERTEX
 8
0
 10
16358.45608808248
 20
-36665.53050029629
 0
VERTEX
 8
0
 10
16449.78937841474
 20
-36665.53050029629
 0
VERTEX
 8
0
 10
16449.78937841474
 20
-36600.82269482538
 0
VERTEX
 8
0
 10
16358.45608808248
 20
-36600.82269482538
 0
SEQEND
 8
0
 0
ENDBLK
 0
BLOCK
 70
65
 2
Stückliste TW
 10
0
 20
0
 0
POLYLINE
 8
0
 66
1
 10
0
 20
0
 70
1
 0
VERTEX
 8
0
 10
0
 20
0
 0
VERTEX
 8
0
 10
0
 20
-101.0246271104843
 0
VERTEX
 8
0
 10
150.0000357627868
 20
-101.0246271104843
 0
VERTEX
 8
0
 10
150.0000357627868
 20
0
 0
SEQEND
 8
0
 0
LINE
 8
1
 10
0
 20
-83.24463607979123
 11
58.66674543052795
 21
-83.24463607979123
 0
LINE
 8
Schriftfeld
 10
0
 20
-78.79963832211797
 11
58.66674543052795
 21
-78.79963832211797
 0
LINE
 8
1
 10
0
 20
-74.3556352169544
 11
58.66674543052795
 21
-74.3556352169544
 0
LINE
 8
1
 10
0
 20
-15.00000059604644
 11
150.0000357627868
 21
-15.00000059604644
 0
LINE
 8
1
 10
0
 20
-30.00000119209289
 11
150.0000357627868
 21
-30.00000119209289
 0
LINE
 8
1
 10
0
 20
-15.00000059604644
 11
150.0000357627868
 21
-15.00000059604644
 0
LINE
 8
1
 10
0
 20
-45.20582622769871
 11
150.0000357627868
 21
-45.20582622769871
 0
LINE
 8
1
 10
37.9656269158877
 20
-74.3556352169544
 11
37.9656269158877
 21
-101.0246271104843
 0
LINE
 8
1
 10
15.99997282028198
 20
-74.3556352169544
 11
15.99997282028198
 21
-101.0246271104843
 0
TEXT
 8
Schriftfeld
 10
39.78350999399663
 20
-77.82794181660756
 40
2.5
 1
Name
 7
Arial
 0
TEXT
 8
Schriftfeld
 10
17.44506395730968
 20
-77.82794181660756
 40
2.5
 1
Datum
 7
Arial
 0
LINE
 8
1
 10
30.05298955899707
 20
-15.00000059604644
 11
30.05298955899707
 21
-30.00000119209289
 0
LINE
 8
1
 10
104.9999594688415
 20
-15.00000059604644
 11
104.9999594688415
 21
-30.00000119209289
 0
LINE
 8
1
 10
0
 20
-87.6896338374645
 11
58.66674543052795
 21
-87.6896338374645
 0
LINE
 8
1
 10
0
 20
-92.13463159513778
 11
58.66674543052795
 21
-92.13463159513778
 0
LINE
 8
1
 10
0
 20
-96.57962935281103
 11
58.66674543052795
 21
-96.57962935281103
 0
LINE
 8
1
 10
0
 20
-101.0246271104843
 11
58.66674543052795
 21
-101.0246271104843
 0
TEXT
 8
0
 10
1
 20
0
 40
64.81403696335838
 1
Bauvorhaben
 11
1
 21
0
 50
-48.964425
 7
Arial
 72
1
 73
3
 0
TEXT
 8
0
 10
1
 20
0
 40
64.81403696335838
 1
Pos.
 11
1
 21
0
 50
-84.754856
 7
Arial
 72
1
 73
3
 0
TEXT
 8
0
 10
1
 20
0
 40
64.81403696335838
 1
Benennung
 11
1
 21
0
 50
-27.212316
 7
Arial
 72
1
 73
3
 0
TEXT
 8
0
 10
1
 20
0
 40
64.81403696335838
 1
Oberflächenbehandlung
 11
1
 21
0
 50
-8.596667
 7
Arial
 72
1
 73
3
 0
TEXT
 8
0
 10
1
 20
0
 40
64.81403696335838
 1
Änderung
 11
1
 21
0
 50
-89.670378
 7
Arial
 72
1
 73
3
 0
INSERT
 8
0
 2
Logo Linien
 10
-11953.31062522856
 20
26876.48225680475
 41
0.7357729866665159
 42
0.7357729866665159
 50
0
 0
POLYLINE
 8
0
 66
1
 10
0
 20
0
 70
1
 0
VERTEX
 8
0
 10
0
 20
0
 0
VERTEX
 8
0
 10
150.0000357627868
 20
0
 0
VERTEX
 8
0
 10
150.0000357627868
 20
-101.0246271104843
 0
VERTEX
 8
0
 10
0
 20
-101.0246271104843
 0
SEQEND
 8
0
 0
LINE
 8
1
 10
0
 20
-64.2286514932639
 11
58.66674543052795
 21
-64.2286514932639
 0
TEXT
 8
0
 10
1
 20
0
 40
64.81403696335838
 1
Stückzahl:  
 11
1
 21
0
 50
-88.728553
 7
Arial
 72
1
 73
3
 0
POLYLINE
 8
0
 66
1
 10
0
 20
0
 70
0
 0
VERTEX
 8
0
 10
58.66674543052795
 20
-101.0246271104843
 0
VERTEX
 8
0
 10
58.66674543052795
 20
-64.2286514932639
 0
VERTEX
 8
0
 10
82.79946795294018
 20
-64.2286514932639 
 0
SEQEND
 8
0
 0
TEXT
 8
0
 10
1
 20
0
 40
64.81403696335838
 1
Länge:  
 11
1
 21
0
 50
-89.110912
 7
Arial
 72
1
 73
3
 0
ENDBLK
 0
BLOCK
 70
65
 2
_ACMFILLED30
 10
0
 20
0
 0
SOLID
 8
0
 62
0
 10
-1
 20
-0.26794919
 11
-1
 21
0.26794919
 12
0
 22
0
 13
0
 23
0
 0
ENDBLK
 0
BLOCK
 70
65
 2
GENAXEH
 10
0
 20
0
 0
LINE
 8
0
 10
-1
 20
0
 11
1
 21
0
 0
ENDBLK
 0
BLOCK
 70
65
 2
_ACMFILLEDHALF
 10
0
 20
0
 0
SOLID
 8
0
 62
0
 10
-0.8
 20
0
 11
-1
 21
0.166666666
 12
0
 22
0
 13
0
 23
0
 0
LINE
 8
0
 62
0
 10
-1
 20
0
 11
-0.8
 21
0
 0
ENDBLK
 0
ENDTAB
 0
ENDSEC
 0
SECTION
 2
ENTITIES
 0
TEXT
 8
Beschriftung
 10
-21.564460120499927
 20
-590.9328137350316
 40
177.9071789599911
 1

 11
-21.564460120499927
 21
-590.9328137350316
 50
-2.186747
 7
Arial
 72
1
 73
3
 0
POLYLINE
 8
0
 62
0
 66
1
 10
0
 20
0
 70
1
 0
VERTEX
 8
0
 10
950.7131643211467
 20
-1047.641139732345
 0
VERTEX
 8
0
 10
946.2066584942071
 20
-1057.124016621988
 0
VERTEX
 8
0
 10
935.4125361045176
 20
-1058.744246263032
 0
VERTEX
 8
0
 10
916.2399546218141
 20
-1054.6140812170136
 0
VERTEX
 8
0
 10
886.5600092381212
 20
-1046.836802222045
 0
VERTEX
 8
0
 10
877.5406085597372
 20
-1052.5740790167968
 0
VERTEX
 8
0
 10
872.026064063763
 20
-1061.2354903705511
 0
VERTEX
 8
0
 10
865.4557671129174
 20
-1084.5405478234093
 0
VERTEX
 8
0
 10
857.2464132865376
 20
-1099.8376416851982
 0
VERTEX
 8
0
 10
843.0598543732369
 20
-1113.954668971472
 0
VERTEX
 8
0
 10
829.1767741640693
 20
-1115.165525211837
 0
VERTEX
 8
0
 10
819.6240258060005
 20
-1107.5479718508718
 0
VERTEX
 8
0
 10
812.8311324931761
 20
-1094.0659049346684
 0
VERTEX
 8
0
 10
807.2132760979127
 20
-1077.6570526936887
 0
VERTEX
 8
0
 10
801.1946103145243
 20
-1061.2405879970245
 0
VERTEX
 8
0
 10
798.1384812099648
 20
-1053.129992190414
 0
VERTEX
 8
0
 10
791.8131422099544
 20
-1047.751588309121
 0
VERTEX
 8
0
 10
778.076805679041
 20
-1048.144513367964
 0
VERTEX
 8
0
 10
763.483660067162
 20
-1050.3494747649795
 0
VERTEX
 8
0
 10
750.0524334805258
 20
-1052.8366407714173
 0
VERTEX
 8
0
 10
738.3625561430877
 20
-1054.0478368531828
 0
VERTEX
 8
0
 10
728.9900598619416
 20
-1052.4100034085898
 0
VERTEX
 8
0
 10
722.5340856836385
 20
-1046.3485175612348
 0
VERTEX
 8
0
 10
719.5962215170913
 20
-1034.3158078422575
 0
VERTEX
 8
0
 10
720.7469257632985
 20
-1014.7649824656015
 0
VERTEX
 8
0
 10
726.0441754293165
 20
-988.6686006186607
 0
VERTEX
 8
0
 10
737.5883965824055
 20
-983.4883244914336
 0
VERTEX
 8
0
 10
758.3299595664275
 20
-980.9926624407203
 0
VERTEX
 8
0
 10
781.7950824951638
 20
-985.0326334802347
 0
VERTEX
 8
0
 10
805.6744045774573
 20
-990.3879281211157
 0
VERTEX
 8
0
 10
821.6158384424216
 20
-996.2866977268164
 0
VERTEX
 8
0
 10
826.0774171863352
 20
-998.4902997570425
 0
VERTEX
 8
0
 10
831.5666094862804
 20
-999.9928761757823
 0
VERTEX
 8
0
 10
833.6295170220683
 20
-1000.3424374244158
 0
VERTEX
 8
0
 10
832.1403983372777
 20
-1027.565666624884
 0
VERTEX
 8
0
 10
842.9302387205705
 20
-1028.556509301002
 0
VERTEX
 8
0
 10
844.5065608046903
 20
-999.1230171714947
 0
VERTEX
 8
0
 10
846.4966742322072
 20
-998.5476650483919
 0
VERTEX
 8
0
 10
866.1560450718972
 20
-990.5581208814184
 0
VERTEX
 8
0
 10
890.066224787562
 20
-985.338898886939
 0
VERTEX
 8
0
 10
913.5541850831127
 20
-981.4324176963329
 0
VERTEX
 8
0
 10
934.2873199913759
 20
-984.0467524942649
 0
VERTEX
 8
0
 10
949.4358350294481
 20
-996.8838676918225
 0
VERTEX
 8
0
 10
951.0693184998387
 20
-1028.268935191749
 0
SEQEND
 8
0
 0
POLYLINE
 8
0
 62
0
 66
1
 10
0
 20
0
 70
1
 0
VERTEX
 8
0
 10
1654.393347512048
 20
1542.991461701533
 0
VERTEX
 8
0
 10
1646.2474761291141
 20
1530.1869713140527
 0
VERTEX
 8
0
 10
1624.071237112518
 20
1525.4733659105739
 0
VERTEX
 8
0
 10
1619.4850723743673
 20
1512.565563624041
 0
VERTEX
 8
0
 10
1621.445143789302
 20
1504.2628212784293
 0
VERTEX
 8
0
 10
1626.0625060022237
 20
1498.6270892055422
 0
VERTEX
 8
0
 10
1629.8997274396377
 20
1493.804326624515
 0
VERTEX
 8
0
 10
1629.4555542408302
 20
1487.9587762405633
 0
VERTEX
 8
0
 10
1621.2695135606527
 20
1479.297976602042
 0
VERTEX
 8
0
 10
1601.917699526179
 20
1465.976382971399
 0
VERTEX
 8
0
 10
1586.959427913129
 20
1444.078270462193
 0
VERTEX
 8
0
 10
1579.6345462876477
 20
1421.476413607922
 0
VERTEX
 8
0
 10
1578.768357574524
 20
1394.022431843073
 0
VERTEX
 8
0
 10
1587.975554816997
 20
1369.2421212497677
 0
VERTEX
 8
0
 10
1586.740977620512
 20
1359.35231782038
 0
VERTEX
 8
0
 10
1577.6559874796228
 20
1353.0014227185488
 0
VERTEX
 8
0
 10
1563.7511573970714
 20
1339.159055554054
 0
VERTEX
 8
0
 10
1565.4347335450009
 20
1332.9024325602832
 0
VERTEX
 8
0
 10
1585.3882714240012
 20
1322.8096076552051
 0
VERTEX
 8
0
 10
1598.6754050986272
 20
1315.874456576071
 0
VERTEX
 8
0
 10
1607.2175319896908
 20
1300.9741619691292
 0
VERTEX
 8
0
 10
1608.235969817458
 20
1272.820038181862
 0
VERTEX
 8
0
 10
1614.6122171157936
 20
1253.7791793706456
 0
VERTEX
 8
0
 10
1625.7104299246137
 20
1241.0739227813713
 0
VERTEX
 8
0
 10
1640.9006095644665
 20
1231.950394583387
 0
VERTEX
 8
0
 10
1659.5521456394858
 20
1223.66600369359
 0
VERTEX
 8
0
 10
1681.0404089695764
 20
1213.4729254649126
 0
VERTEX
 8
0
 10
1689.5601063034983
 20
1201.029347041669
 0
VERTEX
 8
0
 10
1696.8274187325605
 20
1189.9070054663337
 0
VERTEX
 8
0
 10
1704.765035076292
 20
1179.338605982836
 0
VERTEX
 8
0
 10
1727.1742016448445
 20
1165.2404059308135
 0
VERTEX
 8
0
 10
1737.2994474551645
 20
1153.830898056862
 0
VERTEX
 8
0
 10
1738.6013812913359
 20
1144.0463096405058
 0
VERTEX
 8
0
 10
1734.5721492517155
 20
1134.8572599485346
 0
VERTEX
 8
0
 10
1728.7272785515156
 20
1125.2066371595217
 0
VERTEX
 8
0
 10
1724.557963732693
 20
1114.0209490777809
 0
VERTEX
 8
0
 10
1726.2834763555263
 20
1100.9409149804032
 0
VERTEX
 8
0
 10
1744.280341237393
 20
1097.099207631752
 0
VERTEX
 8
0
 10
1758.9557965262616
 20
1101.9919096499657
 0
VERTEX
 8
0
 10
1771.99436992741
 20
1107.280799208506
 0
VERTEX
 8
0
 10
1785.8310957187182
 20
1105.2493610208453
 0
VERTEX
 8
0
 10
1802.8759958239152
 20
1088.2012664031581
 0
VERTEX
 8
0
 10
1806.7991972297123
 20
1076.1952682479705
 0
VERTEX
 8
0
 10
1810.4640509187768
 20
1064.2080973267718
 0
VERTEX
 8
0
 10
1813.9154160058404
 20
1052.092874025244
 0
VERTEX
 8
0
 10
1835.9031108063166
 20
1033.6557781095662
 0
VERTEX
 8
0
 10
1848.1113148173818
 20
1019.550713253653
 0
VERTEX
 8
0
 10
1852.201854313109
 20
1009.0035878651016
 0
VERTEX
 8
0
 10
1849.8298946680432
 20
1001.252952465147
 0
VERTEX
 8
0
 10
1842.6863526129148
 20
995.5540098226516
 0
VERTEX
 8
0
 10
1832.4716604476466
 20
991.1211816925738
 0
VERTEX
 8
0
 10
1820.8600146865876
 20
987.1739194894893
 0
VERTEX
 8
0
 10
1809.526427464883
 20
982.937859746451
 0
VERTEX
 8
0
 10
1800.1559022657589
 20
977.6402022702767
 0
VERTEX
 8
0
 10
1794.7249588459924
 20
970.8964500783577
 0
VERTEX
 8
0
 10
1806.4200697466968
 20
941.4606470247155
 0
VERTEX
 8
0
 10
1809.0574458167612
 20
921.891470191767
 0
VERTEX
 8
0
 10
1797.6550746205332
 20
906.9376844899548
 0
VERTEX
 8
0
 10
1764.1521131856443
 20
890.8872293839964
 0
VERTEX
 8
0
 10
1761.1343862020908
 20
889.8327683278721
 0
VERTEX
 8
0
 10
1757.4494818480794
 20
888.510987732771
 0
VERTEX
 8
0
 10
1725.318053844193
 20
982.4268736551475
 0
VERTEX
 8
0
 10
1715.12116938779
 20
979.409010735038
 0
VERTEX
 8
0
 10
1747.214739017854
 20
885.6060202496585
 0
VERTEX
 8
0
 10
1742.4534198290137
 20
883.7947315632797
 0
VERTEX
 8
0
 10
1719.009638964455
 20
870.5553116737744
 0
VERTEX
 8
0
 10
1701.6056620411966
 20
859.3742454400661
 0
VERTEX
 8
0
 10
1684.3982496001365
 20
847.3975416456485
 0
VERTEX
 8
0
 10
1667.6773546424652
 20
834.5984207582338
 0
VERTEX
 8
0
 10
1651.7221911697197
 20
820.9426267275984
 0
VERTEX
 8
0
 10
1636.822644214807
 20
806.3989620782575
 0
VERTEX
 8
0
 10
1623.259015273174
 20
790.9392199435708
 0
VERTEX
 8
0
 10
1611.3165675294574
 20
774.5279888101757
 0
VERTEX
 8
0
 10
1601.2807680736105
 20
757.1342751083746
 0
VERTEX
 8
0
 10
1593.4355207241936
 20
738.7279688575494
 0
VERTEX
 8
0
 10
1588.0642535199133
 20
719.2746101014422
 0
VERTEX
 8
0
 10
1585.451685899164
 20
698.7458560359003
 0
VERTEX
 8
0
 10
1585.8823333950302
 20
677.1045279710944
 0
VERTEX
 8
0
 10
1589.642886527932
 20
654.3010090079184
 0
VERTEX
 8
0
 10
1583.6649337885037
 20
640.8538098581225
 0
VERTEX
 8
0
 10
1574.2916898553267
 20
632.3455312076019
 0
VERTEX
 8
0
 10
1562.2059648199163
 20
628.3059679784807
 0
VERTEX
 8
0
 10
1548.0961421794073
 20
628.2547198389918
 0
VERTEX
 8
0
 10
1532.6440125001654
 20
631.7154645589239
 0
VERTEX
 8
0
 10
1516.5257929443671
 20
638.2144627055598
 0
VERTEX
 8
0
 10
1500.4204873755614
 20
647.274372523302
 0
VERTEX
 8
0
 10
1485.0090027729489
 20
658.4257365860644
 0
VERTEX
 8
0
 10
1470.9702750308588
 20
671.1914170426184
 0
VERTEX
 8
0
 10
1458.9841916033351
 20
685.100121321411
 0
VERTEX
 8
0
 10
1449.7316594681556
 20
699.67804202145
 0
VERTEX
 8
0
 10
1443.892634046695
 20
714.4540225072732
 0
VERTEX
 8
0
 10
1442.14972152468
 20
728.9578577007694
 0
VERTEX
 8
0
 10
1445.19008197068
 20
742.7233526563867
 0
VERTEX
 8
0
 10
1458.580187702725
 20
751.395163168161
 0
VERTEX
 8
0
 10
1474.1110247367797
 20
762.1495920388048
 0
VERTEX
 8
0
 10
1491.235787658504
 20
774.7406617923339
 0
VERTEX
 8
0
 10
1509.380687616892
 20
788.9096848698896
 0
VERTEX
 8
0
 10
1527.9799560270374
 20
804.3917206251537
 0
VERTEX
 8
0
 10
1546.460755594799
 20
820.9298486769279
 0
VERTEX
 8
0
 10
1564.2564341466684
 20
838.2617111756629
 0
VERTEX
 8
0
 10
1580.795037976641
 20
856.1277369743972
 0
VERTEX
 8
0
 10
1595.5081477344895
 20
874.2665877494502
 0
VERTEX
 8
0
 10
1607.8254409548288
 20
892.4177407967362
 0
VERTEX
 8
0
 10
1617.177682666654
 20
910.3180226461699
 0
VERTEX
 8
0
 10
1622.995569929726
 20
927.7087457400804
 0
VERTEX
 8
0
 10
1624.711431046332
 20
944.3257850517458
 0
VERTEX
 8
0
 10
1621.7535841831077
 20
959.9519816875312
 0
VERTEX
 8
0
 10
1629.8777056921824
 20
967.9746944112965
 0
VERTEX
 8
0
 10
1643.1832587911467
 20
979.6215477801618
 0
VERTEX
 8
0
 10
1653.434246057891
 20
991.8882725447631
 0
VERTEX
 8
0
 10
1651.868459069063
 20
1001.857938791153
 0
VERTEX
 8
0
 10
1631.9126782344472
 20
1006.25494759795
 0
VERTEX
 8
0
 10
1615.549432759531
 20
1018.0310088093263
 0
VERTEX
 8
0
 10
1612.254802698821
 20
1027.937940264301
 0
VERTEX
 8
0
 10
1617.7979618720715
 20
1036.5500745608274
 0
VERTEX
 8
0
 10
1627.8685611253316
 20
1044.4728058348273
 0
VERTEX
 8
0
 10
1638.203693215478
 20
1052.337628071001
 0
VERTEX
 8
0
 10
1644.5448688423278
 20
1060.746876828154
 0
VERTEX
 8
0
 10
1642.2338768119691
 20
1070.4551367825861
 0
VERTEX
 8
0
 10
1627.1634574127656
 20
1075.2942797369376
 0
VERTEX
 8
0
 10
1613.4677659580077
 20
1081.3686116030078
 0
VERTEX
 8
0
 10
1600.5685276840313
 20
1095.0447961404757
 0
VERTEX
 8
0
 10
1595.1074742834005
 20
1125.57910374373
 0
VERTEX
 8
0
 10
1588.4836182689312
 20
1149.4800397626077
 0
VERTEX
 8
0
 10
1578.4902310664204
 20
1169.5046725407353
 0
VERTEX
 8
0
 10
1562.92534188698
 20
1188.3940298893426
 0
VERTEX
 8
0
 10
1539.5815424717118
 20
1208.8786045241234
 0
VERTEX
 8
0
 10
1519.786234922181
 20
1220.6319643047682
 0
VERTEX
 8
0
 10
1508.1126020217414
 20
1233.1174792031502
 0
VERTEX
 8
0
 10
1502.7987001090462
 20
1254.6443485586167
 0
VERTEX
 8
0
 10
1510.4001449702882
 20
1275.8688946719003
 0
VERTEX
 8
0
 10
1511.5832701217312
 20
1287.550819711776
 0
VERTEX
 8
0
 10
1507.5133250381516
 20
1292.1462281462345
 0
VERTEX
 8
0
 10
1499.2695112557572
 20
1292.114215051153
 0
VERTEX
 8
0
 10
1487.947886464651
 20
1289.8357118940733
 0
VERTEX
 8
0
 10
1474.68671670152
 20
1287.7206046619242
 0
VERTEX
 8
0
 10
1460.6076157573455
 20
1288.189926151683
 0
VERTEX
 8
0
 10
1446.817652194051
 20
1293.674632539915
 0
VERTEX
 8
0
 10
1443.5968357662878
 20
1315.099617331638
 0
VERTEX
 8
0
 10
1446.4522543188139
 20
1335.6938249226462
 0
VERTEX
 8
0
 10
1454.1640118197968
 20
1355.4013173576145
 0
VERTEX
 8
0
 10
1465.5155426869278
 20
1374.1465138252229
 0
VERTEX
 8
0
 10
1479.2936797566604
 20
1391.8520663386344
 0
VERTEX
 8
0
 10
1494.2815855726067
 20
1408.4423261182444
 0
VERTEX
 8
0
 10
1509.2660929707513
 20
1423.8399451767532
 0
VERTEX
 8
0
 10
1523.0349863439424
 20
1437.969274735504
 0
VERTEX
 8
0
 10
1534.3632040658229
 20
1450.7391012618925
 0
VERTEX
 8
0
 10
1539.7197901049585
 20
1471.0525315792186
 0
VERTEX
 8
0
 10
1544.406140198682
 20
1488.910673049192
 0
VERTEX
 8
0
 10
1557.7076151960891
 20
1502.299895192405
 0
VERTEX
 8
0
 10
1561.1300257635278
 20
1517.1279394382664
 0
VERTEX
 8
0
 10
1553.8645484804117
 20
1523.959574713028
 0
VERTEX
 8
0
 10
1539.613283693197
 20
1530.8145911020354
 0
VERTEX
 8
0
 10
1537.9798002228063
 20
1537.9437918341473
 0
VERTEX
 8
0
 10
1539.980584682651
 20
1542.7626122506588
 0
VERTEX
 8
0
 10
1542.9836305015467
 20
1546.7868146318513
 0
VERTEX
 8
0
 10
1563.715609947624
 20
1560.432481378063
 0
VERTEX
 8
0
 10
1566.9360865335113
 20
1575.6389054544372
 0
VERTEX
 8
0
 10
1576.6480847471482
 20
1588.221275258374
 0
VERTEX
 8
0
 10
1600.770529634336
 20
1591.7658929281101
 0
VERTEX
 8
0
 10
1627.0944015646544
 20
1596.0770577028431
 0
VERTEX
 8
0
 10
1653.4439655328724
 20
1599.11972907298
 0
VERTEX
 8
0
 10
1677.6228921230543
 20
1598.8541767107101
 0
VERTEX
 8
0
 10
1696.6629353137232
 20
1593.454362797433
 0
VERTEX
 8
0
 10
1692.72274181937
 20
1580.234449825694
 0
VERTEX
 8
0
 10
1678.9590820094545
 20
1572.2399439690607
 0
VERTEX
 8
0
 10
1661.7590101507192
 20
1562.1068817977293
 0
SEQEND
 8
0
 0
POLYLINE
 8
0
 62
0
 66
1
 10
0
 20
0
 70
1
 0
VERTEX
 8
0
 10
2430.154599483791
 20
822.0607819959025
 42
-0.6593986726156728
 0
VERTEX
 8
0
 10
2440.1377213280593
 20
803.6008003592037
 0
VERTEX
 8
0
 10
2414.9149220532777
 20
784.4315218473438
 0
VERTEX
 8
0
 10
2402.95942438553
 20
772.5806954459117
 0
VERTEX
 8
0
 10
2392.464090883419
 20
747.3679701795555
 0
VERTEX
 8
0
 10
2375.051414010807
 20
727.8473907205599
 0
VERTEX
 8
0
 10
2365.7269033876687
 20
712.1376609766107
 0
VERTEX
 8
0
 10
2362.797331360319
 20
699.5329295842939
 0
VERTEX
 8
0
 10
2364.5850350273754
 20
689.3267334633027
 0
VERTEX
 8
0
 10
2369.416157716361
 20
680.8080556542857
 0
VERTEX
 8
0
 10
2375.6254067666173
 20
673.2755986734377
 0
VERTEX
 8
0
 10
2381.537702075289
 20
666.0323470418208
 0
VERTEX
 8
0
 10
2385.477555727767
 20
658.3715658069685
 0
VERTEX
 8
0
 10
2385.7560220772716
 20
649.5971230791823
 0
VERTEX
 8
0
 10
2380.6887773238386
 20
639.0187322473438
 0
VERTEX
 8
0
 10
2375.997193667348
 20
635.7144506804115
 0
VERTEX
 8
0
 10
2371.551655455107
 20
632.5178309869628
 0
VERTEX
 8
0
 10
2367.3859429594045
 20
629.0449199315916
 0
VERTEX
 8
0
 10
2371.887962874632
 20
609.1277451223531
 0
VERTEX
 8
0
 10
2385.065191719201
 20
599.5466539598926
 0
VERTEX
 8
0
 10
2399.8366183255075
 20
581.8347803897815
 0
VERTEX
 8
0
 10
2398.84264910518
 20
555.5878486373341
 0
VERTEX
 8
0
 10
2399.220349252417
 20
530.9981892794445
 0
VERTEX
 8
0
 10
2401.027559837714
 20
507.81493111801234
 0
VERTEX
 8
0
 10
2404.3196750696857
 20
485.81119578562414
 0
VERTEX
 8
0
 10
2409.1580024039636
 20
464.7614642809181
 0
VERTEX
 8
0
 10
2415.5981399554253
 20
444.44089728606104
 0
VERTEX
 8
0
 10
2423.6972491103447
 20
424.620373477297
 0
VERTEX
 8
0
 10
2433.516773260915
 20
405.0745097903176
 0
VERTEX
 8
0
 10
2445.1140097309117
 20
385.57615598313845
 0
VERTEX
 8
0
 10
2458.5445566337958
 20
365.90244382067135
 0
VERTEX
 8
0
 10
2473.88066433159
 20
345.80943487770617
 0
VERTEX
 8
0
 10
2476.474880496285
 20
328.5713007403119
 0
VERTEX
 8
0
 10
2473.0313317699824
 20
315.87732689788743
 0
VERTEX
 8
0
 10
2466.2429923371515
 20
306.53392107221737
 0
VERTEX
 8
0
 10
2458.8103808694236
 20
299.33722776385605
 0
VERTEX
 8
0
 10
2453.4287824751646
 20
293.0973929537962
 0
VERTEX
 8
0
 10
2452.759498085639
 20
286.61871734523675
 0
VERTEX
 8
0
 10
2459.472800455058
 20
278.65771988749685
 0
VERTEX
 8
0
 10
2476.306115071527
 20
268.0021849729483
 0
VERTEX
 8
0
 10
2485.224106964365
 20
257.49434529352374
 0
VERTEX
 8
0
 10
2488.04458978244
 20
248.38638184878445
 0
VERTEX
 8
0
 10
2488.2817313725122
 20
236.34782685154215
 0
VERTEX
 8
0
 10
2478.9197701861826
 20
214.46106505746206
 0
VERTEX
 8
0
 10
2470.637962093407
 20
192.86248908810236
 0
VERTEX
 8
0
 10
2463.3537935128384
 20
171.49765629029667
 0
VERTEX
 8
0
 10
2456.991275822283
 20
150.31980443701795
 0
VERTEX
 8
0
 10
2451.468575123669
 20
129.28652127412644
 0
VERTEX
 8
0
 10
2446.7099746693584
 20
108.35491876967298
 0
VERTEX
 8
0
 10
2442.6373108512494
 20
87.47823469612094
 0
VERTEX
 8
0
 10
2439.1728278718742
 20
66.61385289503968
 0
VERTEX
 8
0
 10
2436.2387019645307
 20
45.71902127078196
 0
VERTEX
 8
0
 10
2433.7569734264425
 20
24.74711353204268
 0
VERTEX
 8
0
 10
2431.65185754263
 20
3.657076792784444
 0
VERTEX
 8
0
 10
2429.8413844765596
 20
-17.597307428181633
 0
VERTEX
 8
0
 10
2428.251740595292
 20
-39.05913106788734
 0
VERTEX
 8
0
 10
2426.8031310496262
 20
-60.7710102848262
 0
VERTEX
 8
0
 10
2424.017040219286
 20
-105.12545940107678
 0
VERTEX
 8
0
 10
2422.523911401687
 20
-127.85557254071882
 0
VERTEX
 8
0
 10
2420.092955224887
 20
-151.0388307016597
 0
VERTEX
 8
0
 10
2403.503511065345
 20
-150.37036193244546
 0
VERTEX
 8
0
 10
2386.449911011269
 20
-149.46189690254417
 0
VERTEX
 8
0
 10
2368.3595896411803
 20
-148.55329593632013
 0
VERTEX
 8
0
 10
2360.860369186271
 20
-147.92526833794534
 0
VERTEX
 8
0
 10
2364.351291855583
 20
-63.984961908740424
 0
VERTEX
 8
0
 10
2354.1636510952485
 20
-63.47757814032012
 0
VERTEX
 8
0
 10
2350.698964210558
 20
-147.2996876005043
 0
VERTEX
 8
0
 10
2344.8954862385426
 20
-147.2211161824868
 0
VERTEX
 8
0
 10
2328.319635749749
 20
-146.39523270364188
 0
VERTEX
 8
0
 10
2303.3269240478853
 20
-143.36676672019814
 0
VERTEX
 8
0
 10
2288.829070070158
 20
-141.49872445746638
 0
VERTEX
 8
0
 10
2289.75058502409
 20
-117.76213592038428
 0
VERTEX
 8
0
 10
2291.828241692336
 20
-94.92137029864946
 0
VERTEX
 8
0
 10
2294.385958850717
 20
-72.7392180350046
 0
VERTEX
 8
0
 10
2297.4803541387764
 20
-51.131942116306604
 0
VERTEX
 8
0
 10
2301.172259233245
 20
-30.010436028697885
 0
VERTEX
 8
0
 10
2305.522233938673
 20
-9.291234633061269
 0
VERTEX
 8
0
 10
2310.5889349453846
 20
11.113069374795066
 0
VERTEX
 8
0
 10
2316.4291158290325
 20
31.288048153806248
 0
VERTEX
 8
0
 10
2323.105375444948
 20
51.31886605209668
 0
VERTEX
 8
0
 10
2330.674467369231
 20
71.29306631080448
 0
VERTEX
 8
0
 10
2339.197019374249
 20
91.29601718359167
 0
VERTEX
 8
0
 10
2348.731688150326
 20
111.41322286109823
 0
VERTEX
 8
0
 10
2359.337266323897
 20
131.73202267854344
 0
VERTEX
 8
0
 10
2371.072274648727
 20
152.33588177625157
 0
VERTEX
 8
0
 10
2383.9885050112566
 20
173.2948755272665
 0
VERTEX
 8
0
 10
2382.2729837370007
 20
194.7748467179234
 0
VERTEX
 8
0
 10
2377.0334392039676
 20
209.94483975650692
 0
VERTEX
 8
0
 10
2372.930121658281
 20
223.21314619663482
 0
VERTEX
 8
0
 10
2374.6423124830126
 20
238.97894983318665
 0
VERTEX
 8
0
 10
2386.81082297527
 20
261.59236130766334
 0
VERTEX
 8
0
 10
2377.3808254655023
 20
279.5809340503326
 0
VERTEX
 8
0
 10
2360.7112466153626
 20
289.937612108783
 0
VERTEX
 8
0
 10
2348.952653271688
 20
315.3381339392268
 0
VERTEX
 8
0
 10
2348.695664921974
 20
339.86301945540964
 0
VERTEX
 8
0
 10
2347.6193180559044
 20
363.8029013417774
 0
VERTEX
 8
0
 10
2345.6570716536307
 20
387.2983381564533
 0
VERTEX
 8
0
 10
2342.745103429831
 20
410.4699737286803
 0
VERTEX
 8
0
 10
2338.8140856637424
 20
433.4467440283306
 0
VERTEX
 8
0
 10
2333.798224986123
 20
456.3493608524385
 0
VERTEX
 8
0
 10
2327.631999904642
 20
479.30458518354567
 0
VERTEX
 8
0
 10
2320.2477819055516
 20
502.4351678694646
 0
VERTEX
 8
0
 10
2311.5801174629046
 20
525.867869892483
 0
VERTEX
 8
0
 10
2301.550842969547
 20
549.7478716585292
 0
VERTEX
 8
0
 10
2308.4653316689596
 20
568.5947487850412
 0
VERTEX
 8
0
 10
2317.593549683023
 20
586.4653284637685
 0
VERTEX
 8
0
 10
2315.071108100497
 20
602.3871874429243
 0
VERTEX
 8
0
 10
2293.053167382598
 20
614.4560563263435
 0
VERTEX
 8
0
 10
2291.002969928964
 20
630.6577410220301
 0
VERTEX
 8
0
 10
2300.2799706720634
 20
650.379099001107
 0
VERTEX
 8
0
 10
2312.185647535863
 20
673.0936473875296
 0
VERTEX
 8
0
 10
2312.5780288477526
 20
696.6548096015109
 0
VERTEX
 8
0
 10
2311.6739817608095
 20
716.7475466706396
 0
VERTEX
 8
0
 10
2311.033176111998
 20
734.0917794101343
 0
VERTEX
 8
0
 10
2312.223845751084
 20
749.4185754431098
 0
VERTEX
 8
0
 10
2316.8123214136094
 20
763.4592062987049
 0
VERTEX
 8
0
 10
2326.3622830693434
 20
776.9351560625743
 0
VERTEX
 8
0
 10
2342.433740396653
 20
790.5721908277119
 0
VERTEX
 8
0
 10
2366.589217905028
 20
805.1057961601961
 0
VERTEX
 8
0
 10
2385.6851990514947
 20
813.3916823540507
 0
VERTEX
 8
0
 10
2409.447003848283
 20
822.1678242907415
 0
VERTEX
 8
0
 10
2430.154650623481
 20
822.0607741317712
 0
SEQEND
 8
0
 0
POLYLINE
 8
0
 62
0
 66
1
 10
0
 20
0
 70
1
 0
VERTEX
 8
0
 10
2497.718525717416
 20
-1062.611985491465
 0
VERTEX
 8
0
 10
2492.083473328285
 20
-1067.5862495353463
 0
VERTEX
 8
0
 10
2442.389974008235
 20
-1001.9437718629282
 0
VERTEX
 8
0
 10
2434.2046130113335
 20
-1008.030338032718
 0
VERTEX
 8
0
 10
2483.836125191525
 20
-1073.5909818061107
 0
VERTEX
 8
0
 10
2479.040821825585
 20
-1076.842859772078
 0
VERTEX
 8
0
 10
2458.180450157304
 20
-1092.9666527330257
 0
VERTEX
 8
0
 10
2443.682460242547
 20
-1103.5266241405332
 0
VERTEX
 8
0
 10
2432.429347552837
 20
-1108.061064960997
 0
VERTEX
 8
0
 10
2415.691800348486
 20
-1087.8456450111323
 0
VERTEX
 8
0
 10
2400.6566565260955
 20
-1068.655255819564
 0
VERTEX
 8
0
 10
2386.9407784693362
 20
-1050.2528917330183
 0
VERTEX
 8
0
 10
2374.7278166734395
 20
-1032.223741882479
 0
VERTEX
 8
0
 10
2364.2053637976414
 20
-1014.1472180889257
 0
VERTEX
 8
0
 10
2355.563051551973
 20
-995.6045673183393
 0
VERTEX
 8
0
 10
2348.988540563011
 20
-976.1752013912396
 0
VERTEX
 8
0
 10
2344.669355522199
 20
-955.4443774071083
 0
VERTEX
 8
0
 10
2342.793157057066
 20
-932.9894001674154
 0
VERTEX
 8
0
 10
2343.545634712645
 20
-908.3955947396888
 0
VERTEX
 8
0
 10
2347.118255344421
 20
-881.2403338941433
 0
VERTEX
 8
0
 10
2353.566413161964
 20
-855.7064581515846
 0
VERTEX
 8
0
 10
2356.9494700524697
 20
-831.8768889047227
 0
VERTEX
 8
0
 10
2357.194360034549
 20
-808.7900098706423
 0
VERTEX
 8
0
 10
2354.22998820931
 20
-785.487807088644
 0
VERTEX
 8
0
 10
2347.987230760357
 20
-761.0164126680496
 0
VERTEX
 8
0
 10
2338.393021705822
 20
-734.4200556035333
 0
VERTEX
 8
0
 10
2324.7442963839185
 20
-711.645151317871
 0
VERTEX
 8
0
 10
2318.963655778718
 20
-695.9305958210427
 0
VERTEX
 8
0
 10
2319.388254091005
 20
-685.6115722310972
 0
VERTEX
 8
0
 10
2324.3591876855976
 20
-679.0390323243969
 0
VERTEX
 8
0
 10
2332.175956294774
 20
-674.5559755802205
 0
VERTEX
 8
0
 10
2341.155935326993
 20
-670.4816805219629
 0
VERTEX
 8
0
 10
2349.6323368194703
 20
-665.1454170201746
 0
VERTEX
 8
0
 10
2355.938304838749
 20
-656.884271307828
 0
VERTEX
 8
0
 10
2358.408954534358
 20
-644.0393397492702
 0
VERTEX
 8
0
 10
2344.5271657239373
 20
-627.1852947848056
 0
VERTEX
 8
0
 10
2340.213893930146
 20
-611.0204489375492
 0
VERTEX
 8
0
 10
2343.4468766933464
 20
-595.1202718634981
 0
VERTEX
 8
0
 10
2352.170139249925
 20
-579.0246178013928
 0
VERTEX
 8
0
 10
2364.3298138553164
 20
-562.2633496411622
 0
VERTEX
 8
0
 10
2377.87978115792
 20
-544.3665341773468
 0
VERTEX
 8
0
 10
2390.7701835455146
 20
-524.8660733513447
 0
VERTEX
 8
0
 10
2400.75738562745
 20
-501.1629932125661
 0
VERTEX
 8
0
 10
2410.084954826479
 20
-478.8126872395655
 0
VERTEX
 8
0
 10
2418.1426712532116
 20
-457.03712167405325
 0
VERTEX
 8
0
 10
2424.332141512136
 20
-435.0600979051917
 0
VERTEX
 8
0
 10
2428.052865189195
 20
-412.0956298780149
 0
VERTEX
 8
0
 10
2428.7026426609546
 20
-387.3615377660086
 0
VERTEX
 8
0
 10
2425.6770313483617
 20
-360.0482504955964
 0
VERTEX
 8
0
 10
2439.2132010744363
 20
-343.9249333130847
 0
VERTEX
 8
0
 10
2449.8798148309893
 20
-333.2741561833708
 0
VERTEX
 8
0
 10
2451.021343348932
 20
-321.0177626089831
 0
VERTEX
 8
0
 10
2435.946709912087
 20
-300.00446214231306
 0
VERTEX
 8
0
 10
2438.4883865392585
 20
-276.62525121463267
 0
VERTEX
 8
0
 10
2442.456039249175
 20
-261.5328100689253
 0
VERTEX
 8
0
 10
2442.3810021852864
 20
-250.2856106259959
 0
VERTEX
 8
0
 10
2432.812485169131
 20
-238.41629683194927
 0
VERTEX
 8
0
 10
2408.2463428615697
 20
-221.47532034174898
 0
VERTEX
 8
0
 10
2395.666012108412
 20
-213.36030659171115
 0
VERTEX
 8
0
 10
2377.723725815323
 20
-208.20973263542865
 0
VERTEX
 8
0
 10
2359.4812912676243
 20
-204.02485306359875
 0
VERTEX
 8
0
 10
2346.00833211093
 20
-198.80311623990545
 0
VERTEX
 8
0
 10
2342.6055643978175
 20
-190.9665688396065
 0
VERTEX
 8
0
 10
2353.817216391062
 20
-177.2151433338837
 0
VERTEX
 8
0
 10
2373.426290647907
 20
-171.1738440880409
 0
VERTEX
 8
0
 10
2392.9642700058384
 20
-165.35174278685608
 0
VERTEX
 8
0
 10
2412.1290351277785
 20
-160.72051502911842
 0
VERTEX
 8
0
 10
2430.60052303119
 20
-158.2578176305952
 0
VERTEX
 8
0
 10
2448.0589426066663
 20
-158.94110350126064
 0
VERTEX
 8
0
 10
2464.180288706675
 20
-163.74809742397107
 0
VERTEX
 8
0
 10
2478.6406921212088
 20
-173.65829136019175
 0
VERTEX
 8
0
 10
2491.1124094435286
 20
-189.64533199145885
 0
VERTEX
 8
0
 10
2501.27938782391
 20
-212.6849050505629
 0
VERTEX
 8
0
 10
2501.830339307617
 20
-246.6142319744454
 0
VERTEX
 8
0
 10
2509.107982926649
 20
-268.08366807028403
 0
VERTEX
 8
0
 10
2531.578728824903
 20
-290.7262379692272
 0
VERTEX
 8
0
 10
2528.031732262276
 20
-311.52421468796473
 0
VERTEX
 8
0
 10
2520.7363489031377
 20
-323.2494355695279
 0
VERTEX
 8
0
 10
2514.7167995306836
 20
-331.39598663574
 0
VERTEX
 8
0
 10
2514.945852886398
 20
-341.4681491613465
 0
VERTEX
 8
0
 10
2526.443923526468
 20
-359.02722987009855
 0
VERTEX
 8
0
 10
2521.1510918038816
 20
-386.8816811814305
 0
VERTEX
 8
0
 10
2509.4693706690846
 20
-412.54388117766894
 0
VERTEX
 8
0
 10
2497.681007185472
 20
-435.56965666094703
 0
VERTEX
 8
0
 10
2490.026207165919
 20
-462.3239721818255
 0
VERTEX
 8
0
 10
2483.720239147116
 20
-487.871713468707
 0
VERTEX
 8
0
 10
2478.6604709125695
 20
-512.6254484352864
 0
VERTEX
 8
0
 10
2474.7501155259597
 20
-537.0139214634014
 0
VERTEX
 8
0
 10
2471.8904149670366
 20
-561.4556137128279
 0
VERTEX
 8
0
 10
2469.984582299002
 20
-586.3713172687826
 0
VERTEX
 8
0
 10
2468.9299853063185
 20
-612.2093513989779
 0
VERTEX
 8
0
 10
2452.7059390220134
 20
-630.6216388653412
 0
VERTEX
 8
0
 10
2439.2507196063766
 20
-638.8511792930005
 0
VERTEX
 8
0
 10
2432.434785021421
 20
-656.191605804295
 0
VERTEX
 8
0
 10
2456.2430122048195
 20
-675.5809383704764
 0
VERTEX
 8
0
 10
2458.16862366374
 20
-693.2368060162652
 0
VERTEX
 8
0
 10
2440.6825409678618
 20
-718.5060129851419
 0
VERTEX
 8
0
 10
2433.408907482106
 20
-737.0782979586312
 0
VERTEX
 8
0
 10
2429.1213277262204
 20
-756.3358398845664
 0
VERTEX
 8
0
 10
2427.557171978016
 20
-776.1444012632035
 0
VERTEX
 8
0
 10
2428.4538105138777
 20
-796.3677055421177
 0
VERTEX
 8
0
 10
2431.5485456433394
 20
-816.8733503672394
 0
VERTEX
 8
0
 10
2436.578679674983
 20
-837.5232240406991
 0
VERTEX
 8
0
 10
2443.285525050666
 20
-858.1849921764773
 0
VERTEX
 8
0
 10
2451.402509882727
 20
-878.7242133685552
 0
VERTEX
 8
0
 10
2460.6708106759943
 20
-899.0048149707642
 0
VERTEX
 8
0
 10
2470.823923512508
 20
-918.8923555770972
 0
VERTEX
 8
0
 10
2481.6030928639407
 20
-938.2525976875736
 0
VERTEX
 8
0
 10
2492.7417468440835
 20
-956.9512358322557
 0
VERTEX
 8
0
 10
2503.981061957724
 20
-974.851993460592
 0
VERTEX
 8
0
 10
2515.0584084817374
 20
-991.8206330711756
 0
VERTEX
 8
0
 10
2525.7092535797537
 20
-1007.7227132592204
 0
VERTEX
 8
0
 10
2535.8347032953893
 20
-1025.5148574562538
 0
VERTEX
 8
0
 10
2536.342698779043
 20
-1031.5074913598603
 0
VERTEX
 8
0
 10
2521.4532791092674
 20
-1043.2537144637308
 0
VERTEX
 8
0
 10
2506.2225903298195
 20
-1054.1316418347064
 0
SEQEND
 8
0
 0
POLYLINE
 8
0
 62
0
 66
1
 10
0
 20
0
 70
1
 0
VERTEX
 8
0
 10
2831.447633563536
 20
-1136.940614998672
 0
VERTEX
 8
0
 10
2830.1361161898917
 20
-1132.7120997432748
 0
VERTEX
 8
0
 10
2911.813824057137
 20
-1124.8238963933322
 0
VERTEX
 8
0
 10
2911.028993464603
 20
-1114.652296165153
 0
VERTEX
 8
0
 10
2828.6391131760583
 20
-1122.6092834900908
 0
VERTEX
 8
0
 10
2828.9404848611302
 20
-1116.6696649031755
 0
VERTEX
 8
0
 10
2830.032600385763
 20
-1092.3353626538842
 0
VERTEX
 8
0
 10
2835.1497339114208
 20
-1080.355872156894
 0
VERTEX
 8
0
 10
2849.920888644131
 20
-1064.138622707962
 0
VERTEX
 8
0
 10
2854.580731079144
 20
-1041.9408377225843
 0
VERTEX
 8
0
 10
2853.889696816235
 20
-1022.0002138312974
 0
VERTEX
 8
0
 10
2856.8033642484634
 20
-1007.1530704776
 0
VERTEX
 8
0
 10
2857.706595715096
 20
-1002.9006983297458
 0
VERTEX
 8
0
 10
2923.690002655075
 20
-1022.1953509777119
 0
VERTEX
 8
0
 10
2926.678095435722
 20
-1012.441960036126
 0
VERTEX
 8
0
 10
2856.867798248781
 20
-992.0282763951595
 42
-0.1038626996287749
 0
VERTEX
 8
0
 10
2832.381314853382
 20
-973.5701782578907
 0
VERTEX
 8
0
 10
2818.4132062322246
 20
-963.2917317758199
 0
VERTEX
 8
0
 10
2808.1716665668646
 20
-950.6970596996449
 0
VERTEX
 8
0
 10
2802.5788904940346
 20
-935.3124905651692
 0
VERTEX
 8
0
 10
2802.5587038925178
 20
-916.6663239902161
 0
VERTEX
 8
0
 10
2809.0277279948505
 20
-894.2806744724699
 0
VERTEX
 8
0
 10
2827.9819951219733
 20
-877.2418235510897
 0
VERTEX
 8
0
 10
2850.3033465761973
 20
-864.9006054697919
 0
VERTEX
 8
0
 10
2928.64584727486
 20
-837.9276357517053
 0
VERTEX
 8
0
 10
2925.3956005495106
 20
-828.2609724307757
 0
VERTEX
 8
0
 10
2860.367760709323
 20
-850.6498164614875
 0
VERTEX
 8
0
 10
2858.2080662362587
 20
-840.7352045823139
 0
VERTEX
 8
0
 10
2855.7346978061228
 20
-833.3189734879036
 0
VERTEX
 8
0
 10
2854.8785684093796
 20
-828.477927419333
 0
VERTEX
 8
0
 10
2854.4454060847747
 20
-819.2016063597579
 0
VERTEX
 8
0
 10
2854.0571028739655
 20
-790.6078632536671
 0
VERTEX
 8
0
 10
2844.3895559644434
 20
-773.3789048440635
 0
VERTEX
 8
0
 10
2825.3713306149666
 20
-755.2514727526584
 0
VERTEX
 8
0
 10
2826.689712792501
 20
-726.8211935397724
 0
VERTEX
 8
0
 10
2826.807705856444
 20
-722.4731899168584
 0
VERTEX
 8
0
 10
2907.8548033282946
 20
-731.3586929361796
 0
VERTEX
 8
0
 10
2908.96635780241
 20
-721.2195136127625
 0
VERTEX
 8
0
 10
2827.4112648469036
 20
-712.256798542451
 0
VERTEX
 8
0
 10
2828.0491478563436
 20
-706.3691077785251
 0
VERTEX
 8
0
 10
2833.013964299554
 20
-679.2268288887217
 0
VERTEX
 8
0
 10
2841.601833893481
 20
-660.8754410683118
 0
VERTEX
 8
0
 10
2854.878636378135
 20
-649.6338150305268
 0
VERTEX
 8
0
 10
2873.768809346338
 20
-647.2857802466586
 0
VERTEX
 8
0
 10
2899.189517778298
 20
-655.5971545733431
 0
VERTEX
 8
0
 10
2920.112012522995
 20
-667.2803710122038
 0
VERTEX
 8
0
 10
2944.1685960745585
 20
-674.3263784780262
 0
VERTEX
 8
0
 10
2970.362784383941
 20
-678.866188798322
 0
VERTEX
 8
0
 10
2996.9469751125293
 20
-683.7096817278225
 0
VERTEX
 8
0
 10
2997.1279748414822
 20
-759.9750695045288
 0
VERTEX
 8
0
 10
2997.0905922465736
 20
-765.8599735655977
 0
VERTEX
 8
0
 10
2950.291321409265
 20
-765.1811736066443
 0
VERTEX
 8
0
 10
2950.3162657951407
 20
-775.3825439742853
 0
VERTEX
 8
0
 10
2997.1473458226883
 20
-776.061819711912
 0
VERTEX
 8
0
 10
2997.177251898707
 20
-780.3976569993271
 0
VERTEX
 8
0
 10
2998.2722220939536
 20
-908.3531145180613
 0
VERTEX
 8
0
 10
2997.997629941167
 20
-916.6767911167534
 0
VERTEX
 8
0
 10
2950.649378702176
 20
-915.9899708917224
 0
VERTEX
 8
0
 10
2950.674323088526
 20
-926.1913412598389
 0
VERTEX
 8
0
 10
2997.389449102433
 20
-926.8689177885624
 0
VERTEX
 8
0
 10
2997.5353771599007
 20
-931.2065222532325
 0
VERTEX
 8
0
 10
2997.8506143893173
 20
-1064.0264069542486
 0
VERTEX
 8
0
 10
2998.117458150573
 20
-1069.89846499641
 0
VERTEX
 8
0
 10
2951.012329716954
 20
-1069.2325110566467
 0
VERTEX
 8
0
 10
2951.038429565015
 20
-1079.433881424288
 0
VERTEX
 8
0
 10
2997.829340294369
 20
-1080.110642332938
 0
VERTEX
 8
0
 10
2997.8999594153015
 20
-1084.4470913356479
 0
VERTEX
 8
0
 10
2998.0829302258026
 20
-1162.6143016470708
 0
VERTEX
 8
0
 10
2972.8326864279775
 20
-1170.0041610198243
 0
VERTEX
 8
0
 10
2942.2094762169695
 20
-1172.9113714587925
 0
VERTEX
 8
0
 10
2914.905024832235
 20
-1178.588632195946
 0
VERTEX
 8
0
 10
2898.485161717762
 20
-1188.9676038749722
 0
VERTEX
 8
0
 10
2883.063345925175
 20
-1194.3709521426138
 0
VERTEX
 8
0
 10
2865.30613746212
 20
-1195.4460076101743
 0
VERTEX
 8
0
 10
2842.127501148964
 20
-1182.3279792024157
 0
VERTEX
 8
0
 10
2832.85709333664
 20
-1162.3864037537821
 0
SEQEND
 8
0
 0
POLYLINE
 8
0
 62
0
 66
1
 10
0
 20
0
 70
1
 0
VERTEX
 8
0
 10
778.6278862923974
 20
-1492.3084198758067
 42
0.3253944919529393
 0
VERTEX
 8
0
 10
802.1717913511409
 20
-1472.650660544758
 0
VERTEX
 8
0
 10
808.8976678656791
 20
-1451.2664567664624
 0
VERTEX
 8
0
 10
817.1858941008117
 20
-1432.3117832077794
 42
-0.5728909249290846
 0
VERTEX
 8
0
 10
865.8066197600612
 20
-1432.817534356984
 0
VERTEX
 8
0
 10
869.5561620192353
 20
-1443.6098216012115
 0
VERTEX
 8
0
 10
871.5971157767997
 20
-1452.558467222103
 0
VERTEX
 8
0
 10
880.5028088379415
 20
-1472.677855658923
 42
0.3254275993311047
 0
VERTEX
 8
0
 10
904.0320116102467
 20
-1492.3577301586342
 0
VERTEX
 8
0
 10
913.337569936428
 20
-1489.9111562712455
 0
VERTEX
 8
0
 10
929.2106956048361
 20
-1485.1629549751917
 0
VERTEX
 8
0
 10
945.0691490755381
 20
-1482.2668772963273
 42
-0.4022383410863311
 0
VERTEX
 8
0
 10
958.338194201236
 20
-1495.271276665239
 0
VERTEX
 8
0
 10
960.5581086360252
 20
-1508.0097697800575
 0
VERTEX
 8
0
 10
960.9199721568965
 20
-1529.7312325349847
 0
VERTEX
 8
0
 10
960.2095669132553
 20
-1562.511758326882
 0
VERTEX
 8
0
 10
936.4375668630546
 20
-1568.1052140827487
 0
VERTEX
 8
0
 10
906.6980812004382
 20
-1563.032327955893
 0
VERTEX
 8
0
 10
877.0861721397196
 20
-1553.5296043070869
 0
VERTEX
 8
0
 10
854.0381710048639
 20
-1546.8160980325908
 0
VERTEX
 8
0
 10
845.2667868527506
 20
-1544.3432053808863
 0
VERTEX
 8
0
 10
846.049102616071
 20
-1511.1488882453568
 0
VERTEX
 8
0
 10
835.8441978940643
 20
-1511.239490062016
 0
VERTEX
 8
0
 10
835.0808453013191
 20
-1543.630557180914
 0
VERTEX
 8
0
 10
830.7059262095452
 20
-1545.2735562212079
 0
VERTEX
 8
0
 10
810.2078938405749
 20
-1555.2040726952673
 0
VERTEX
 8
0
 10
774.6898066235416
 20
-1562.9517854556143
 0
VERTEX
 8
0
 10
743.1297885789478
 20
-1568.0303809244117
 0
VERTEX
 8
0
 10
722.3626015243503
 20
-1561.8525332539748
 0
VERTEX
 8
0
 10
720.4155120656409
 20
-1531.5172369936174
 0
VERTEX
 8
0
 10
719.5981925991146
 20
-1511.9772865531786
 0
VERTEX
 8
0
 10
721.2258987595206
 20
-1499.939411239451
 42
-0.37495246453930414
 0
VERTEX
 8
0
 10
739.7525769667063
 20
-1482.185873067559
 0
VERTEX
 8
0
 10
751.925709306284
 20
-1484.4564239273157
 0
VERTEX
 8
0
 10
765.6193617107435
 20
-1489.415055249435
 0
VERTEX
 8
0
 10
778.6278930993078
 20
-1492.308468112342
 0
SEQEND
 8
0
 0
POLYLINE
 8
0
 62
0
 66
1
 10
0
 20
0
 70
1
 0
VERTEX
 8
0
 10
2168.647470224762
 20
241.55011069246353
 42
0.30103078951795953
 0
VERTEX
 8
0
 10
2230.025055621912
 20
220.21329517387466
 42
0.33477200624324893
 0
VERTEX
 8
0
 10
2237.972700167987
 20
284.7109135951793
 0
VERTEX
 8
0
 10
2232.409626266339
 20
296.6152310919567
 0
VERTEX
 8
0
 10
2223.9868518062453
 20
324.4053163712538
 0
VERTEX
 8
0
 10
2221.6143484144645
 20
347.5554739434564
 0
VERTEX
 8
0
 10
2232.7260189584176
 20
372.11454754204755
 0
VERTEX
 8
0
 10
2240.997088050587
 20
394.80680230813795
 0
VERTEX
 8
0
 10
2245.5762520482876
 20
416.7268006272877
 0
VERTEX
 8
0
 10
2245.6096924786743
 20
438.98426182815103
 0
VERTEX
 8
0
 10
2240.2508634834294
 20
462.6823123083693
 0
VERTEX
 8
0
 10
2228.649820785469
 20
488.93298232049426
 0
VERTEX
 8
0
 10
2215.23905267395
 20
502.81551878270795
 0
VERTEX
 8
0
 10
2200.591736283445
 20
514.0610869850144
 0
VERTEX
 8
0
 10
2185.6883151322904
 20
522.5989318699196
 0
VERTEX
 8
0
 10
2171.509980390384
 20
528.35557964564
 0
VERTEX
 8
0
 10
2159.034592776663
 20
531.2596635399229
 0
VERTEX
 8
0
 10
2149.238381771347
 20
531.2336996284216
 0
VERTEX
 8
0
 10
2143.09417843685
 20
528.1862704741649
 0
VERTEX
 8
0
 10
2141.628440866067
 20
522.0350663987418
 0
VERTEX
 8
0
 10
2145.820728988265
 20
512.7537836492514
 0
VERTEX
 8
0
 10
2156.622735707473
 20
500.2659578269695
 0
VERTEX
 8
0
 10
2175.006408496561
 20
484.4943768804328
 0
VERTEX
 8
0
 10
2185.050771964728
 20
461.95307983023804
 0
VERTEX
 8
0
 10
2190.249739389409
 20
439.86030595281625
 0
VERTEX
 8
0
 10
2190.364537940862
 20
418.3938604648645
 0
VERTEX
 8
0
 10
2185.1727751614726
 20
397.7244119051249
 0
VERTEX
 8
0
 10
2174.442882866784
 20
378.0186186792974
 0
VERTEX
 8
0
 10
2156.0833388442134
 20
357.56340637382397
 0
VERTEX
 8
0
 10
2152.502222167444
 20
354.09171874868014
 0
VERTEX
 8
0
 10
2173.371837532264
 20
321.319485096222
 0
VERTEX
 8
0
 10
2164.2066447329726
 20
315.5732364782839
 0
VERTEX
 8
0
 10
2143.513135375712
 20
348.8113932029331
 0
VERTEX
 8
0
 10
2135.969803457608
 20
346.942739225205
 0
VERTEX
 8
0
 10
2106.150047168313
 20
339.728034302667
 0
VERTEX
 8
0
 10
2081.7967137799455
 20
339.8663499046871
 0
VERTEX
 8
0
 10
2061.4138198038304
 20
346.7544668824434
 0
VERTEX
 8
0
 10
2042.5780215190878
 20
360.3854524637657
 0
VERTEX
 8
0
 10
2022.873247818413
 20
380.7455090728268
 0
VERTEX
 8
0
 10
2016.2212529051012
 20
401.704638760647
 0
VERTEX
 8
0
 10
2011.0446470688007
 20
419.401831166094
 0
VERTEX
 8
0
 10
1995.015058247636
 20
432.23133390820465
 0
VERTEX
 8
0
 10
1989.0846153887287
 20
430.3641072657844
 0
VERTEX
 8
0
 10
1986.3709788243111
 20
425.5525594633229
 0
VERTEX
 8
0
 10
1983.9839302044381
 20
420.83976967991487
 0
VERTEX
 8
0
 10
1981.747907269209
 20
416.1560023841773
 0
VERTEX
 8
0
 10
1980.964232138861
 20
391.0545413146744
 0
VERTEX
 8
0
 10
1983.1623967007401
 20
368.5690462834824
 0
VERTEX
 8
0
 10
1988.263761567837
 20
348.6798744365243
 0
VERTEX
 8
0
 10
1996.1902311017566
 20
331.38328751387564
 0
VERTEX
 8
0
 10
2006.8617385792313
 20
316.6652160661153
 0
VERTEX
 8
0
 10
2020.200800076862
 20
304.5192030999853
 0
VERTEX
 8
0
 10
2036.1270769992125
 20
294.93817990604185
 0
VERTEX
 8
0
 10
2054.5616580856777
 20
287.909708275962
 0
VERTEX
 8
0
 10
2075.4243406778514
 20
283.426787468345
 0
VERTEX
 8
0
 10
2098.6360775799953
 20
281.4767074017478
 0
VERTEX
 8
0
 10
2124.0987224868586
 20
282.049612664155
 0
VERTEX
 8
0
 10
2143.2814312542223
 20
268.44758160174854
 0
VERTEX
 8
0
 10
2160.419855814972
 20
251.79988856226626
 0
VERTEX
 8
0
 10
2168.647425160372
 20
241.5501247257501
 0
SEQEND
 8
0
 0
POLYLINE
 8
0
 62
0
 66
1
 10
0
 20
0
 70
1
 0
VERTEX
 8
0
 10
853.5958863007052
 20
1588.446623761349
 42
0.1566299722585248
 0
VERTEX
 8
0
 10
839.0508769038895
 20
1596.081951424711
 0
VERTEX
 8
0
 10
814.8565214970199
 20
1599.1127283320538
 0
VERTEX
 8
0
 10
786.5082121202112
 20
1597.7903360217185
 0
VERTEX
 8
0
 10
757.2436213523465
 20
1593.9648051415472
 0
VERTEX
 8
0
 10
730.2864202924958
 20
1590.3386934146602
 0
VERTEX
 8
0
 10
726.4936501591967
 20
1586.8702003022447
 0
VERTEX
 8
0
 10
722.5967525067734
 20
1582.200230582571
 0
VERTEX
 8
0
 10
719.6880467642173
 20
1575.309734712398
 0
VERTEX
 8
0
 10
722.3235876888178
 20
1563.661250103137
 0
VERTEX
 8
0
 10
725.1341471270744
 20
1552.399369495807
 0
VERTEX
 8
0
 10
729.2824597240618
 20
1537.4898991610737
 0
VERTEX
 8
0
 10
735.9249390677201
 20
1514.9197835283094
 0
VERTEX
 8
0
 10
746.2150081382657
 20
1480.670529558188
 0
VERTEX
 8
0
 10
762.7107239364648
 20
1424.1759127546482
 0
VERTEX
 8
0
 10
763.8467470184956
 20
1419.8611456567887
 0
VERTEX
 8
0
 10
810.765098413177
 20
1420.7260429714029
 0
VERTEX
 8
0
 10
811.2903578589784
 20
1410.534052236392
 0
VERTEX
 8
0
 10
766.5197385067612
 20
1409.7087125045002
 0
VERTEX
 8
0
 10
763.143682356703
 20
1403.7517619871335
 0
VERTEX
 8
0
 10
755.0330185813435
 20
1389.1395852361627
 0
VERTEX
 8
0
 10
746.4656754308094
 20
1367.543320190469
 0
VERTEX
 8
0
 10
738.0626117937959
 20
1341.1232050703093
 0
VERTEX
 8
0
 10
730.4108703496981
 20
1312.7207249146356
 0
VERTEX
 8
0
 10
724.1129225969715
 20
1285.1782483517136
 0
VERTEX
 8
0
 10
720.1142083488458
 20
1263.2863889311652
 0
VERTEX
 8
0
 10
722.1976423275529
 20
1250.125472491398
 42
0.2629817154869063
 0
VERTEX
 8
0
 10
728.7062919804149
 20
1242.833351613028
 0
VERTEX
 8
0
 10
744.7530767959223
 20
1237.377055996994
 0
VERTEX
 8
0
 10
772.6421919678739
 20
1235.5682821398289
 0
VERTEX
 8
0
 10
802.4626279409252
 20
1237.0924045271133
 0
VERTEX
 8
0
 10
829.5895459828238
 20
1239.8367627876316
 0
VERTEX
 8
0
 10
849.4289649940868
 20
1241.693454335234
 0
VERTEX
 8
0
 10
858.9359026810127
 20
1252.2779623189322
 0
VERTEX
 8
0
 10
860.7277524179051
 20
1264.585807937648
 0
VERTEX
 8
0
 10
857.0014553361775
 20
1278.2185606961548
 0
VERTEX
 8
0
 10
849.9468838575606
 20
1292.7878494153592
 0
VERTEX
 8
0
 10
841.7487448097478
 20
1307.910944288884
 0
VERTEX
 8
0
 10
834.5831810076404
 20
1323.1998139799914
 0
VERTEX
 8
0
 10
828.3141877735911
 20
1338.3212776128905
 0
VERTEX
 8
0
 10
829.7538934645931
 20
1352.756124926314
 0
VERTEX
 8
0
 10
840.2927267134716
 20
1366.1522798419362
 0
VERTEX
 8
0
 10
867.7401835163206
 20
1368.3867395050565
 0
VERTEX
 8
0
 10
890.7155944486879
 20
1370.450462660919
 0
VERTEX
 8
0
 10
910.0564655777142
 20
1374.4478175420181
 0
VERTEX
 8
0
 10
925.846601885383
 20
1382.511175342175
 0
VERTEX
 8
0
 10
938.16532244103
 20
1396.765906515237
 0
VERTEX
 8
0
 10
944.533821346409
 20
1412.866794140611
 0
VERTEX
 8
0
 10
939.8669102026641
 20
1439.9797786696179
 0
VERTEX
 8
0
 10
928.2048319226669
 20
1452.1887303324781
 0
VERTEX
 8
0
 10
913.2258299609096
 20
1458.2958909137042
 0
VERTEX
 8
0
 10
896.0432939374423
 20
1460.6485475458444
 0
VERTEX
 8
0
 10
877.7590588518812
 20
1461.5799179115547
 0
VERTEX
 8
0
 10
859.4764550064621
 20
1463.4277056042515
 0
VERTEX
 8
0
 10
842.3054736034411
 20
1468.5167002313058
 0
VERTEX
 8
0
 10
832.5257789087157
 20
1478.0821586715292
 0
VERTEX
 8
0
 10
828.5522129522551
 20
1486.274588377875
 0
VERTEX
 8
0
 10
831.9169863549855
 20
1499.4842381276792
 0
VERTEX
 8
0
 10
840.1305542194797
 20
1528.5914141857572
 0
VERTEX
 8
0
 10
855.8655687779004
 20
1583.3637149217616
 42
0.07665069055793888
 0
VERTEX
 8
0
 10
853.5958779455822
 20
1588.446675033631
 0
SEQEND
 8
0
 0
POLYLINE
 8
0
 62
0
 66
1
 10
0
 20
0
 70
1
 0
VERTEX
 8
0
 10
2659.239632639538
 20
-1358.6705554940245
 42
0.20279598732287216
 0
VERTEX
 8
0
 10
2646.8858726945464
 20
-1326.066583464059
 42
-0.015603195673930051
 0
VERTEX
 8
0
 10
2625.5063614403684
 20
-1295.5999301805928
 42
-0.5602969443369409
 0
VERTEX
 8
0
 10
2631.11068225658
 20
-1265.1085870350985
 42
0.10630123712353816
 0
VERTEX
 8
0
 10
2691.2433463805346
 20
-1249.0021460245498
 42
-0.704990057950102
 0
VERTEX
 8
0
 10
2740.740601638085
 20
-1286.817158330161
 0
VERTEX
 8
0
 10
2737.5578001114663
 20
-1306.731664125329
 42
0.19401146264793157
 0
VERTEX
 8
0
 10
2742.1005860551804
 20
-1359.0473519768047
 0
VERTEX
 8
0
 10
2743.834385210675
 20
-1385.982716070231
 42
-0.846686647508688
 0
VERTEX
 8
0
 10
2668.2173232218483
 20
-1395.130095148935
 42
-0.05314637135854522
 0
VERTEX
 8
0
 10
2659.2396588117676
 20
-1358.670521824915
 0
SEQEND
 8
0
 0
POLYLINE
 8
0
 62
0
 66
1
 10
0
 20
0
 70
1
 0
VERTEX
 8
0
 10
2892.690033326279
 20
-501.94566353750804
 42
0.3701173063469172
 0
VERTEX
 8
0
 10
2853.3344867774235
 20
-439.6381225393676
 42
-0.2847232043109447
 0
VERTEX
 8
0
 10
2816.266425746631
 20
-385.1017259066203
 0
VERTEX
 8
0
 10
2816.556922495013
 20
-360.75294639804986
 0
VERTEX
 8
0
 10
2816.724736362901
 20
-353.2003707838391
 0
VERTEX
 8
0
 10
2865.857156914108
 20
-353.7873454956661
 0
VERTEX
 8
0
 10
2866.4068169990665
 20
-343.5932477415966
 0
VERTEX
 8
0
 10
2817.467902353654
 20
-343.0085839541433
 0
VERTEX
 8
0
 10
2817.6196756903364
 20
-337.9136760803075
 0
VERTEX
 8
0
 10
2817.119836408845
 20
-313.5090265839334
 42
-0.24290664383426674
 0
VERTEX
 8
0
 10
2844.0860372226257
 20
-235.67470613857046
 42
0.3790756949628863
 0
VERTEX
 8
0
 10
2871.688365975281
 20
-133.5506409869601
 0
VERTEX
 8
0
 10
2859.0718454401426
 20
-104.71236514789013
 42
-0.4250973758904615
 0
VERTEX
 8
0
 10
2894.06443195532
 20
-50.38041601735625
 0
VERTEX
 8
0
 10
2922.6259580610063
 20
-51.47321122549854
 0
VERTEX
 8
0
 10
2928.4978801666134
 20
-51.56972628917719
 0
VERTEX
 8
0
 10
2924.642579147217
 20
-267.1165463498117
 0
VERTEX
 8
0
 10
2934.84225030643
 20
-267.22495587580926
 0
VERTEX
 8
0
 10
2938.704076287368
 20
-51.97298253823422
 0
VERTEX
 8
0
 10
2943.0448072967233
 20
-51.688195131555794
 0
VERTEX
 8
0
 10
2963.1146189818987
 20
-51.11385792621373
 42
-0.18517309358041245
 0
VERTEX
 8
0
 10
2994.060148917503
 20
-64.64691755265261
 42
-0.1726203809760518
 0
VERTEX
 8
0
 10
3015.772441848647
 20
-622.3284461905977
 42
-0.06014704411199834
 0
VERTEX
 8
0
 10
3000.903320268949
 20
-648.6911782589115
 42
-0.40421637275109096
 0
VERTEX
 8
0
 10
2947.760791592857
 20
-663.7847585258635
 0
VERTEX
 8
0
 10
2934.034786251445
 20
-655.4512944841562
 0
VERTEX
 8
0
 10
2921.9254880343888
 20
-621.1423269801624
 42
0.25781734590765093
 0
VERTEX
 8
0
 10
2904.545640486802
 20
-591.4781027051981
 0
SEQEND
 8
0
 0
POLYLINE
 8
0
 62
0
 66
1
 10
0
 20
0
 70
1
 0
VERTEX
 8
0
 10
2681.8186262416903
 20
1307.49559548694
 42
-0.18958801535672995
 0
VERTEX
 8
0
 10
2659.725716519183
 20
1264.4249563395197
 42
0.2112556026069262
 0
VERTEX
 8
0
 10
2640.4401550642237
 20
1220.0372563127191
 42
0.433965878629292
 0
VERTEX
 8
0
 10
2673.9233728865925
 20
1205.650541067961
 42
0.07873942881808922
 0
VERTEX
 8
0
 10
2709.676159531295
 20
1229.8558289514378
 42
-0.23862940353303422
 0
VERTEX
 8
0
 10
2746.933581851992
 20
1244.474029718725
 42
0.40378670320886156
 0
VERTEX
 8
0
 10
2774.114479763995
 20
1272.9763474354947
 42
0.0868055753695952
 0
VERTEX
 8
0
 10
2712.017311790765
 20
1330.8824030796395
 42
0.35392918180589017
 0
VERTEX
 8
0
 10
2681.8186682929863
 20
1307.4956056639728
 0
SEQEND
 8
0
 0
POLYLINE
 8
0
 62
0
 66
1
 10
0
 20
0
 70
1
 0
VERTEX
 8
0
 10
874.2802345497263
 20
1096.403279647211
 0
VERTEX
 8
0
 10
865.1779804466903
 20
1096.621458065996
 0
VERTEX
 8
0
 10
866.557262270176
 20
1132.626266671501
 0
VERTEX
 8
0
 10
856.3473278897412
 20
1132.5651631207077
 0
VERTEX
 8
0
 10
854.9710366739054
 20
1096.961571713245
 0
VERTEX
 8
0
 10
850.6392091988108
 20
1097.1275504479459
 42
0.505073288919215
 0
VERTEX
 8
0
 10
789.3820428799542
 20
1004.9159743497867
 42
-0.6925682681423727
 0
VERTEX
 8
0
 10
759.3066648246074
 20
1002.988184562484
 0
VERTEX
 8
0
 10
748.0195061067684
 20
1021.9941598602315
 42
-0.3435620348924438
 0
VERTEX
 8
0
 10
770.1909812212759
 20
1120.636309047737
 0
VERTEX
 8
0
 10
787.4968118402323
 20
1133.8765445575525
 0
VERTEX
 8
0
 10
807.2012886826141
 20
1146.8961301985316
 42
0.08522722382726715
 0
VERTEX
 8
0
 10
821.3012375047573
 20
1183.6107065305284
 42
-0.05386027952912486
 0
VERTEX
 8
0
 10
832.3778721083544
 20
1218.8911723697518
 42
-0.6097558560986642
 0
VERTEX
 8
0
 10
890.4637037261563
 20
1215.784189369105
 0
VERTEX
 8
0
 10
900.7405189678432
 20
1176.0443157637596
 0
VERTEX
 8
0
 10
908.4834059753148
 20
1144.8040888278695
 0
VERTEX
 8
0
 10
930.5336996306467
 20
1131.2900088165864
 0
VERTEX
 8
0
 10
949.8373920696023
 20
1116.101256512277
 42
-0.3629604148118097
 0
VERTEX
 8
0
 10
969.7865120056423
 20
1021.537632168919
 0
VERTEX
 8
0
 10
955.563274079348
 20
996.930886130765
 42
-0.5393518687533955
 0
VERTEX
 8
0
 10
929.8509290161019
 20
1008.2569705928489
 42
0.5205615769184357
 0
VERTEX
 8
0
 10
874.2802598428036
 20
1096.4033001171808
 0
SEQEND
 8
0
 0
POLYLINE
 8
0
 62
0
 66
1
 10
0
 20
0
 70
1
 0
VERTEX
 8
0
 10
1244.9844788123683
 20
-1294.4196198827033
 42
-0.7018633718867615
 0
VERTEX
 8
0
 10
1252.224252479523
 20
-1235.248276165053
 0
VERTEX
 8
0
 10
1268.9573979045272
 20
-1230.145227887502
 42
0.636390491691476
 0
VERTEX
 8
0
 10
1284.2743738446986
 20
-1163.0129986542415
 42
0.1454429148854755
 0
VERTEX
 8
0
 10
1232.2170889223269
 20
-1141.2852689151805
 42
-0.008928715764391028
 0
VERTEX
 8
0
 10
1169.4071777689585
 20
-1131.4159817803907
 42
-0.21581491939936998
 0
VERTEX
 8
0
 10
1114.3466601969756
 20
-1096.8423539021233
 42
-0.44450625357112605
 0
VERTEX
 8
0
 10
1119.626458566694
 20
-1063.911677271613
 42
0.2385302340172849
 0
VERTEX
 8
0
 10
1167.6781978796896
 20
-1017.5668727230915
 42
-0.5184049755393793
 0
VERTEX
 8
0
 10
1214.285472306908
 20
-1009.560781477177
 0
VERTEX
 8
0
 10
1226.3352713022298
 20
-1036.494013212244
 42
0.3698700384766454
 0
VERTEX
 8
0
 10
1345.143858257911
 20
-1103.542868577291
 0
VERTEX
 8
0
 10
1371.7843267846692
 20
-1101.7552328787528
 0
VERTEX
 8
0
 10
1374.89734540143
 20
-1101.273065369565
 0
VERTEX
 8
0
 10
1398.1760991009025
 20
-1235.6614557937144
 0
VERTEX
 8
0
 10
1399.150289529877
 20
-1241.4637783039962
 0
VERTEX
 8
0
 10
1352.2424732300117
 20
-1249.0387834750643
 0
VERTEX
 8
0
 10
1354.4610962665297
 20
-1259.0125957912899
 0
VERTEX
 8
0
 10
1400.883550544716
 20
-1251.515958133162
 0
VERTEX
 8
0
 10
1401.7711492898268
 20
-1255.763776401487
 0
VERTEX
 8
0
 10
1420.5518252390752
 20
-1359.367123961305
 0
VERTEX
 8
0
 10
1407.6461588164561
 20
-1366.433611323872
 42
0.2545375687774676
 0
VERTEX
 8
0
 10
1357.502642069691
 20
-1401.6858699784325
 42
-0.17236261609616943
 0
VERTEX
 8
0
 10
1214.648619257166
 20
-1559.8415870166511
 42
-0.0809239454008441
 0
VERTEX
 8
0
 10
1135.360278903054
 20
-1590.878419159747
 0
VERTEX
 8
0
 10
1121.1124889971254
 20
-1589.7835907764322
 42
-0.662174888819312
 0
VERTEX
 8
0
 10
1114.9077482852742
 20
-1558.9755902989293
 42
0.14174271158717658
 0
VERTEX
 8
0
 10
1246.2504726027296
 20
-1460.645162184219
 42
0.12629476128200173
 0
VERTEX
 8
0
 10
1296.9956875972791
 20
-1356.2638184388413
 0
VERTEX
 8
0
 10
1297.486758814959
 20
-1334.759317052438
 42
0.44373096967610165
 0
VERTEX
 8
0
 10
1273.5078184566094
 20
-1303.5599863985053
 42
-0.019137031330706808
 0
VERTEX
 8
0
 10
1244.9844432241377
 20
-1294.4196548541363
 0
SEQEND
 8
0
 0
POLYLINE
 8
0
 62
0
 66
1
 10
0
 20
0
 70
1
 0
VERTEX
 8
0
 10
2095.594869202594
 20
-1286.730146011604
 42
0.288035025229977
 0
VERTEX
 8
0
 10
2084.83984178811
 20
-1258.7989291151107
 42
0.03195573131592039
 0
VERTEX
 8
0
 10
1998.019871243714
 20
-1258.575695206767
 0
VERTEX
 8
0
 10
1988.2756548701543
 20
-1260.3057498475187
 42
0.3809727328692869
 0
VERTEX
 8
0
 10
1981.2488166227154
 20
-1281.6547035839164
 42
0.02587821611627745
 0
VERTEX
 8
0
 10
1996.1931599055215
 20
-1333.4276343606418
 42
-0.4811366501745729
 0
VERTEX
 8
0
 10
1985.461293848308
 20
-1357.5454077942281
 0
VERTEX
 8
0
 10
1972.896796237147
 20
-1361.554481554772
 42
0.01881953344338271
 0
VERTEX
 8
0
 10
1927.3053017322845
 20
-1370.5273981465418
 42
0.8211735460945033
 0
VERTEX
 8
0
 10
1928.275177363074
 20
-1449.6166326904636
 42
0.01881934198482393
 0
VERTEX
 8
0
 10
1974.0718298024728
 20
-1457.472918133771
 0
VERTEX
 8
0
 10
1986.7292605773073
 20
-1461.1747594611977
 42
-0.4811489338233585
 0
VERTEX
 8
0
 10
1998.0494876937803
 20
-1485.0192051333183
 42
0.02587831000766557
 0
VERTEX
 8
0
 10
1984.3790514586303
 20
-1537.1432809749358
 42
0.3808978881107892
 0
VERTEX
 8
0
 10
1991.9251640032105
 20
-1558.3130051596124
 0
VERTEX
 8
0
 10
2001.7090813758043
 20
-1559.8039026950698
 42
0.0319554972567035
 0
VERTEX
 8
0
 10
2088.4971750473055
 20
-1557.4554095308138
 42
0.28802638093086796
 0
VERTEX
 8
0
 10
2098.565524368198
 20
-1529.2695202385366
 42
0.06829385755576135
 0
VERTEX
 8
0
 10
2060.4730350815726
 20
-1418.2645476702355
 0
VERTEX
 8
0
 10
2058.546234915866
 20
-1413.917438008484
 0
VERTEX
 8
0
 10
2017.8088577360702
 20
-1413.6606535640847
 0
VERTEX
 8
0
 10
2017.6838639316757
 20
-1403.459691006362
 0
VERTEX
 8
0
 10
2057.877902083211
 20
-1403.733059729395
 0
VERTEX
 8
0
 10
2062.0826403963224
 20
-1395.7089124827482
 42
0.06626123981462202
 0
VERTEX
 8
0
 10
2095.5948441246674
 20
-1286.7301479222178
 0
SEQEND
 8
0
 0
POLYLINE
 8
0
 62
0
 66
1
 10
0
 20
0
 70
1
 0
VERTEX
 8
0
 10
1894.013983844058
 20
-1119.4730050619944
 42
0.4339101407306138
 0
VERTEX
 8
0
 10
1911.8733934573156
 20
-1151.2410368894296
 42
0.21125903323500772
 0
VERTEX
 8
0
 10
1953.9630256982678
 20
-1127.352461391426
 42
-0.18958913326300347
 0
VERTEX
 8
0
 10
1994.4453852046636
 20
-1100.8132859594607
 42
0.3539194188650304
 0
VERTEX
 8
0
 10
2014.4935545115836
 20
-1068.3029527128792
 42
0.08680475482773345
 0
VERTEX
 8
0
 10
1950.323597349786
 20
-1012.704367723601
 42
0.40376057927200704
 0
VERTEX
 8
0
 10
1924.8675479138426
 20
-1042.7555414012782
 42
-0.2386399482631587
 0
VERTEX
 8
0
 10
1914.2874295283552
 20
-1081.3537004053667
 0
SEQEND
 8
0
 0
POLYLINE
 8
0
 62
0
 66
1
 10
0
 20
0
 70
1
 0
VERTEX
 8
0
 10
1722.8110075082711
 20
563.2889590338175
 42
-0.13589518826119476
 0
VERTEX
 8
0
 10
1710.783682011092
 20
766.9551912118022
 42
-0.14924845808299003
 0
VERTEX
 8
0
 10
1759.9240659293969
 20
863.8278595944429
 42
-0.06868837263701431
 0
VERTEX
 8
0
 10
1828.678756752425
 20
915.8975688543169
 42
0.1411654695436919
 0
VERTEX
 8
0
 10
1862.4335978090016
 20
947.309161885668
 0
VERTEX
 8
0
 10
1868.7692207880475
 20
966.281027005866
 42
0.022210399006767193
 0
VERTEX
 8
0
 10
1876.6386302556962
 20
1019.2100863047758
 42
-1.0000010002264643
 0
VERTEX
 8
0
 10
1955.015864598062
 20
1019.4895689176394
 42
0.022210221028427783
 0
VERTEX
 8
0
 10
1963.2624300547902
 20
966.6183503017919
 0
VERTEX
 8
0
 10
1969.7340840501945
 20
947.691535463807
 42
0.1411657620559957
 0
VERTEX
 8
0
 10
2003.7128668321006
 20
916.5219647342919
 42
-0.06868689801049017
 0
VERTEX
 8
0
 10
2072.8355952866177
 20
864.9456368979556
 42
-0.14925035494106287
 0
VERTEX
 8
0
 10
2122.666705446656
 20
768.4246113039101
 42
-0.13589378716850686
 0
VERTEX
 8
0
 10
2112.0940672444904
 20
564.6800417688015
 42
-0.09783218651176624
 0
VERTEX
 8
0
 10
2051.17459106237
 20
429.4566617612722
 0
VERTEX
 8
0
 10
2036.4782957524378
 20
415.92058419375184
 42
-0.558486603840186
 0
VERTEX
 8
0
 10
2020.289440827019
 20
438.08741869784194
 42
0.1289480601060287
 0
VERTEX
 8
0
 10
2083.6525704167902
 20
706.4494901355826
 42
0.29068952913585994
 0
VERTEX
 8
0
 10
1973.9984631533162
 20
870.0816525725833
 42
0.028710858469300923
 0
VERTEX
 8
0
 10
1926.1509434121278
 20
876.8724711342435
 0
VERTEX
 8
0
 10
1920.2555093707285
 20
877.0519309279949
 0
VERTEX
 8
0
 10
1921.676183922401
 20
926.2330847897138
 0
VERTEX
 8
0
 10
1911.4709393580438
 20
926.1968576567539
 0
VERTEX
 8
0
 10
1910.080102914589
 20
878.0485509140968
 0
VERTEX
 8
0
 10
1905.7281816910765
 20
877.5228751125278
 42
0.02825972518423135
 0
VERTEX
 8
0
 10
1858.7216249508774
 20
869.6695038642545
 42
0.2906854140148903
 0
VERTEX
 8
0
 10
1750.2379626073084
 20
705.2594506908271
 42
0.12894791149291895
 0
VERTEX
 8
0
 10
1815.5178338138605
 20
437.35736209161075
 42
-0.5584528643122335
 0
VERTEX
 8
0
 10
1799.4879808528685
 20
415.0742085127352
 0
VERTEX
 8
0
 10
1784.694121080293
 20
428.505512604438
 42
-0.09783105249031172
 0
VERTEX
 8
0
 10
1722.8110287000713
 20
563.2889408247635
 0
SEQEND
 8
0
 0
POLYLINE
 8
0
 62
0
 66
1
 10
0
 20
0
 70
1
 0
VERTEX
 8
0
 10
2655.6895926571724
 20
-922.7829832382579
 42
0.4064494817090693
 0
VERTEX
 8
0
 10
2717.072321297329
 20
-894.2913455040846
 0
VERTEX
 8
0
 10
2727.2646518742145
 20
-876.4240283063662
 0
VERTEX
 8
0
 10
2758.513102980789
 20
-708.6092767835815
 0
VERTEX
 8
0
 10
2768.524501797003
 20
-710.5636388565754
 0
VERTEX
 8
0
 10
2749.236306143011
 20
-814.1474115303488
 0
VERTEX
 8
0
 10
2753.661497583013
 20
-814.0627247249894
 42
0.4182838065929397
 0
VERTEX
 8
0
 10
2811.483356684406
 20
-760.13302796106
 0
VERTEX
 8
0
 10
2822.268303346781
 20
-683.4204084096681
 0
VERTEX
 8
0
 10
2791.1244555377693
 20
-498.26298741997147
 0
VERTEX
 8
0
 10
2653.4251226476563
 20
-498.60405262409193
 0
VERTEX
 8
0
 10
2646.76136920906
 20
-498.8143467138342
 0
VERTEX
 8
0
 10
2647.8724479047387
 20
-601.3721370724367
 0
VERTEX
 8
0
 10
2637.672572840211
 20
-601.4329687498711
 0
VERTEX
 8
0
 10
2636.560950398291
 20
-498.8249497771686
 0
VERTEX
 8
0
 10
2633.0052538863088
 20
-498.7195988273383
 0
VERTEX
 8
0
 10
2493.758553431701
 20
-498.0995914948038
 0
VERTEX
 8
0
 10
2493.3884657399094
 20
-501.23551544736887
 0
VERTEX
 8
0
 10
2468.226444866093
 20
-678.8134453550077
 0
VERTEX
 8
0
 10
2480.565284054977
 20
-767.8373769111982
 42
0.4000493737427848
 0
VERTEX
 8
0
 10
2536.988534086281
 20
-815.3046407388085
 0
VERTEX
 8
0
 10
2541.3687547096038
 20
-814.6300548177346
 0
VERTEX
 8
0
 10
2519.6256100493324
 20
-712.0564278325293
 0
VERTEX
 8
0
 10
2529.612404321073
 20
-709.9815578663785
 0
VERTEX
 8
0
 10
2566.1416567518295
 20
-882.1950174051017
 0
VERTEX
 8
0
 10
2573.294442503502
 20
-895.1477467741854
 42
0.4300912473844513
 0
VERTEX
 8
0
 10
2635.535104019443
 20
-922.7100700967511
 0
VERTEX
 8
0
 10
2641.118500458692
 20
-919.519907396805
 0
VERTEX
 8
0
 10
2639.9914492000867
 20
-815.4837373535437
 0
VERTEX
 8
0
 10
2650.1913242641417
 20
-815.4222259925958
 0
VERTEX
 8
0
 10
2651.28044918112
 20
-919.1734726926186
 0
VERTEX
 8
0
 10
2655.689624323594
 20
-922.7829321728271
 0
SEQEND
 8
0
 0
POLYLINE
 8
0
 62
0
 66
1
 10
0
 20
0
 70
1
 0
VERTEX
 8
0
 10
2690.0635376807218
 20
710.4155616457455
 42
-0.40420760803012606
 0
VERTEX
 8
0
 10
2743.2129712002375
 20
695.3491095460448
 42
-0.06014971304471966
 0
VERTEX
 8
0
 10
2758.096827941803
 20
668.9935295867235
 42
-0.1726195933274709
 0
VERTEX
 8
0
 10
2736.673823296966
 20
111.30408067921985
 42
-0.1851653904980099
 0
VERTEX
 8
0
 10
2705.737510645628
 20
97.75301088727751
 0
VERTEX
 8
0
 10
2684.885295179515
 20
97.52062708227504
 0
VERTEX
 8
0
 10
2679.7856974891274
 20
97.53850275941853
 0
VERTEX
 8
0
 10
2678.1705654747902
 20
313.85846285582136
 0
VERTEX
 8
0
 10
2667.9712341574523
 20
313.74407211476176
 0
VERTEX
 8
0
 10
2669.580113083369
 20
98.253597820087
 0
VERTEX
 8
0
 10
2665.2462468779045
 20
98.09128938906353
 0
VERTEX
 8
0
 10
2636.68588394683
 20
96.98211674652585
 42
-0.4250948138598714
 0
VERTEX
 8
0
 10
2601.664093944018
 20
151.2973253154879
 0
VERTEX
 8
0
 10
2614.2668488768145
 20
180.14103052756576
 42
0.379071038518894
 0
VERTEX
 8
0
 10
2586.61317393184
 20
282.2505814447098
 42
-0.24290779125639853
 0
VERTEX
 8
0
 10
2559.605819756999
 20
360.0713706962972
 0
VERTEX
 8
0
 10
2559.197329945149
 20
381.3836639558549
 0
VERTEX
 8
0
 10
2559.4040217120064
 20
390.36221565277674
 0
VERTEX
 8
0
 10
2608.876623878506
 20
390.1687777150264
 0
VERTEX
 8
0
 10
2608.320642736846
 20
400.37096370345375
 0
VERTEX
 8
0
 10
2560.0410211328576
 20
400.55971182441425
 0
VERTEX
 8
0
 10
2559.83698013177
 20
404.89554911224764
 0
VERTEX
 8
0
 10
2558.7150289066685
 20
431.66503210780184
 42
-0.28471958650657775
 0
VERTEX
 8
0
 10
2595.7539656704776
 20
486.21976526492085
 42
0.37012050583117084
 0
VERTEX
 8
0
 10
2635.0757459607144
 20
548.5465133008547
 42
-0.3064557038550286
 0
VERTEX
 8
0
 10
2646.885014313885
 20
638.0862579417922
 42
0.25783691310541373
 0
VERTEX
 8
0
 10
2664.251258132425
 20
667.7590830948822
 0
VERTEX
 8
0
 10
2676.342964383136
 20
702.0737226223982
 0
VERTEX
 8
0
 10
2690.063532255964
 20
710.4155467720586
 0
SEQEND
 8
0
 0
POLYLINE
 8
0
 62
0
 66
1
 10
0
 20
0
 70
1
 0
VERTEX
 8
0
 10
2897.1032514766234
 20
305.87259651500005
 42
0.560443746001903
 0
VERTEX
 8
0
 10
2902.6841772947114
 20
275.3773670022732
 42
-0.10630055904040354
 0
VERTEX
 8
0
 10
2962.8039199585287
 20
259.2252488451791
 42
0.7048843061120693
 0
VERTEX
 8
0
 10
3012.329709101779
 20
297.0030585240916
 0
VERTEX
 8
0
 10
3010.746250352828
 20
306.96178189774326
 0
VERTEX
 8
0
 10
3009.162859547798
 20
316.9205052069262
 42
-0.19401332109658864
 0
VERTEX
 8
0
 10
3013.745621470099
 20
369.232689778294
 0
VERTEX
 8
0
 10
3015.5007668075264
 20
396.16602791975714
 42
0.8466863507738303
 0
VERTEX
 8
0
 10
2939.888565446057
 20
405.3703962927362
 42
0.05314298180227356
 0
VERTEX
 8
0
 10
2930.883727825821
 20
368.92003696175016
 42
-0.20279806890589303
 0
VERTEX
 8
0
 10
2918.506224047367
 20
336.32439104301596
 42
0.015603724309054377
 0
VERTEX
 8
0
 10
2897.1032707649233
 20
305.8726607440751
 0
SEQEND
 8
0
 0
POLYLINE
 8
0
 62
0
 66
1
 10
0
 20
0
 70
1
 0
VERTEX
 8
0
 10
786.400031220162
 20
675.0680119786081
 42
0.27846244262957304
 0
VERTEX
 8
0
 10
822.6654977571659
 20
551.7619857777543
 42
0.09325502015358986
 0
VERTEX
 8
0
 10
890.0980339773241
 20
513.0370077835865
 0
VERTEX
 8
0
 10
910.2535844097889
 20
506.01399361012335
 42
-0.26475973702578776
 0
VERTEX
 8
0
 10
950.7205302381989
 20
474.77122609166895
 42
-0.043785535858665216
 0
VERTEX
 8
0
 10
969.129849084096
 20
428.7707765215579
 42
0.05757134910411034
 0
VERTEX
 8
0
 10
984.19609945067
 20
393.93350127705486
 42
0.8759187014386779
 0
VERTEX
 8
0
 10
1056.2569865690045
 20
412.4947752174767
 42
0.057570362268677795
 0
VERTEX
 8
0
 10
1052.6160905660442
 20
450.27519013923313
 42
-0.04378534298923176
 0
VERTEX
 8
0
 10
1046.5107314187753
 20
499.44474629342596
 42
-0.264766987788347
 0
VERTEX
 8
0
 10
1066.8464141939749
 20
546.3514008898061
 0
VERTEX
 8
0
 10
1081.1001897309
 20
562.2376685630715
 42
0.09325433778186912
 0
VERTEX
 8
0
 10
1121.4319839819668
 20
628.7209593634277
 42
0.2784635125390434
 0
VERTEX
 8
0
 10
1093.6118320495345
 20
754.2039096985559
 42
0.0951828679370796
 0
VERTEX
 8
0
 10
1039.654108340534
 20
791.871016848524
 42
0.7497980466156525
 0
VERTEX
 8
0
 10
1021.400389221344
 20
770.3648591119661
 0
VERTEX
 8
0
 10
1033.6803514847109
 20
758.1798485141408
 42
-0.25397440559655066
 0
VERTEX
 8
0
 10
1061.0468222341765
 20
725.3044633815289
 42
-0.12680424299781615
 0
VERTEX
 8
0
 10
1071.0003393004822
 20
661.7878721272491
 42
-0.1516160687335303
 0
VERTEX
 8
0
 10
1048.2645216499707
 20
607.262611490182
 42
-0.16365707399343152
 0
VERTEX
 8
0
 10
988.0543789062164
 20
570.6234278593331
 0
VERTEX
 8
0
 10
983.8147046519663
 20
569.7184016263163
 0
VERTEX
 8
0
 10
994.6557252071809
 20
521.2725294265452
 0
VERTEX
 8
0
 10
984.7731264228471
 20
518.7271145401679
 0
VERTEX
 8
0
 10
973.8440868489425
 20
567.5665235140154
 0
VERTEX
 8
0
 10
964.983596183776
 20
565.4205586489715
 42
-0.15866468327549277
 0
VERTEX
 8
0
 10
897.0962416724334
 20
568.322900818921
 42
-0.15162030079242664
 0
VERTEX
 8
0
 10
850.8460119684224
 20
605.0793310337281
 42
-0.12680696615471498
 0
VERTEX
 8
0
 10
828.8736318658832
 20
665.4997745612828
 42
-0.25397592647944833
 0
VERTEX
 8
0
 10
836.9517476326952
 20
707.505296178474
 0
VERTEX
 8
0
 10
841.8158295758415
 20
724.1051890432382
 42
0.7496173479454148
 0
VERTEX
 8
0
 10
815.4440650141828
 20
734.1154897877498
 42
0.09518213413164663
 0
VERTEX
 8
0
 10
786.4000701859984
 20
675.0679895498142
 0
SEQEND
 8
0
 0
POLYLINE
 8
0
 62
0
 66
1
 10
0
 20
0
 70
1
 0
VERTEX
 8
0
 10
1432.0933155822584
 20
1084.5207112538524
 42
-0.09666983907325734
 0
VERTEX
 8
0
 10
1396.388395433855
 20
970.0239403080589
 0
VERTEX
 8
0
 10
1392.6202298450303
 20
959.2336241458528
 0
VERTEX
 8
0
 10
1389.7555675964347
 20
950.5167506144946
 0
VERTEX
 8
0
 10
1347.0790532547767
 20
951.0292999781408
 0
VERTEX
 8
0
 10
1347.4379261679978
 20
940.8243272871416
 0
VERTEX
 8
0
 10
1389.57959752591
 20
940.3182349177059
 0
VERTEX
 8
0
 10
1390.9289732733732
 20
935.9666969399404
 0
VERTEX
 8
0
 10
1396.497620579689
 20
923.1414082361819
 42
-0.0966682102928424
 0
VERTEX
 8
0
 10
1432.7321148941242
 20
808.8122078357428
 42
-0.36606760522210646
 0
VERTEX
 8
0
 10
1411.4586548485415
 20
783.9892956176382
 42
-0.07395055090361685
 0
VERTEX
 8
0
 10
1328.9195695794328
 20
777.3300270313694
 42
-0.5393096833985219
 0
VERTEX
 8
0
 10
1302.529602929232
 20
811.3169483244615
 0
VERTEX
 8
0
 10
1310.2162969895762
 20
830.4527625044408
 42
0.04863115799304022
 0
VERTEX
 8
0
 10
1327.296140720434
 20
870.939321730387
 42
0.2768997487285555
 0
VERTEX
 8
0
 10
1317.795633694385
 20
893.4891103441112
 42
-0.01918597220775223
 0
VERTEX
 8
0
 10
1241.831241407379
 20
908.9644165016317
 42
-0.7519376435546284
 0
VERTEX
 8
0
 10
1241.6575794096102
 20
983.4817585113431
 42
-0.019186146396698807
 0
VERTEX
 8
0
 10
1317.5498812166984
 20
999.309367989891
 42
0.2769194500755653
 0
VERTEX
 8
0
 10
1326.9461334386858
 20
1021.903051038333
 42
0.04863175860679769
 0
VERTEX
 8
0
 10
1309.677562927317
 20
1062.309809146368
 0
VERTEX
 8
0
 10
1301.902255014608
 20
1081.410344172832
 42
-0.53930566679187
 0
VERTEX
 8
0
 10
1328.1348583917893
 20
1115.5200315982654
 42
-0.07395039936562903
 0
VERTEX
 8
0
 10
1410.7029211581184
 20
1109.2437849742903
 0
SEQEND
 8
0
 0
POLYLINE
 8
0
 62
0
 66
1
 10
0
 20
0
 70
1
 0
VERTEX
 8
0
 10
857.1259389467012
 20
-1368.7384442105263
 42
0.06473932908194005
 0
VERTEX
 8
0
 10
829.5151807174595
 20
-1390.808916672345
 42
-0.6947523835619105
 0
VERTEX
 8
0
 10
799.8559150203869
 20
-1383.7187950315404
 42
0.18881593390259352
 0
VERTEX
 8
0
 10
773.8758180044409
 20
-1296.0176250825284
 42
-0.4519665119302986
 0
VERTEX
 8
0
 10
853.8497266621685
 20
-1144.2336371653496
 42
-0.09385070217479242
 0
VERTEX
 8
0
 10
905.0785551689538
 20
-1140.4507508639372
 42
0.4002246652934242
 0
VERTEX
 8
0
 10
979.0869904684007
 20
-1076.7268607718336
 42
-0.08012617801031979
 0
VERTEX
 8
0
 10
1082.135464565353
 20
-700.23729688181
 42
-0.6333688714535892
 0
VERTEX
 8
0
 10
1099.799991814022
 20
-710.9879846817205
 42
0.0700450535861946
 0
VERTEX
 8
0
 10
1084.4282607044654
 20
-1126.1134773559181
 42
0.32721687357362084
 0
VERTEX
 8
0
 10
1156.845599215981
 20
-1177.2087352950202
 42
-0.26705830386603197
 0
VERTEX
 8
0
 10
1177.5119450228174
 20
-1232.4912998579455
 42
-0.09053039236783535
 0
VERTEX
 8
0
 10
1153.848419053144
 20
-1315.340146378989
 0
VERTEX
 8
0
 10
1149.639750557388
 20
-1323.498999717198
 0
VERTEX
 8
0
 10
1052.928869949764
 20
-1304.368966424867
 0
VERTEX
 8
0
 10
1051.448926992763
 20
-1314.4737537605492
 0
VERTEX
 8
0
 10
1147.642432484103
 20
-1333.5327601225047
 0
VERTEX
 8
0
 10
1147.892080251491
 20
-1337.969802290224
 42
-0.05193712862179857
 0
VERTEX
 8
0
 10
1142.647141122396
 20
-1395.088433091671
 42
0.20458768280329795
 0
VERTEX
 8
0
 10
1147.7320089351315
 20
-1442.2691529525373
 42
-0.0009472768762871219
 0
VERTEX
 8
0
 10
1172.7094167673838
 20
-1473.7413110741775
 42
-0.8718932269696474
 0
VERTEX
 8
0
 10
1122.485150854992
 20
-1519.1923063476268
 42
0.294689643293112
 0
VERTEX
 8
0
 10
1003.7387384134815
 20
-1477.056326504063
 42
-0.43869542408307677
 0
VERTEX
 8
0
 10
897.8425522254189
 20
-1409.401552548914
 0
VERTEX
 8
0
 10
891.0412751261516
 20
-1384.7484452599833
 42
0.4219647210742819
 0
VERTEX
 8
0
 10
857.1259368578363
 20
-1368.7384994083127
 0
SEQEND
 8
0
 0
POLYLINE
 8
0
 62
0
 66
1
 10
0
 20
0
 70
1
 0
VERTEX
 8
0
 10
1806.562958570814
 20
-1496.7771720389026
 42
0.1726432901845787
 0
VERTEX
 8
0
 10
1927.2801880472916
 20
-1280.918590280057
 42
0.691071428260889
 0
VERTEX
 8
0
 10
1898.9445618928926
 20
-1279.396301224746
 42
-0.0878501425227632
 0
VERTEX
 8
0
 10
1812.772163861461
 20
-1422.6635867949103
 42
-0.2803331158269438
 0
VERTEX
 8
0
 10
1677.8071854900177
 20
-1475.3553953885532
 42
-0.12097031789722025
 0
VERTEX
 8
0
 10
1618.1710711725418
 20
-1443.8030195184708
 0
VERTEX
 8
0
 10
1615.1308836308249
 20
-1440.83290649866
 0
VERTEX
 8
0
 10
1581.2598735554
 20
-1474.72444301724
 0
VERTEX
 8
0
 10
1574.04557644278
 20
-1467.5138841645369
 0
VERTEX
 8
0
 10
1607.9553964493707
 20
-1433.5834697467478
 0
VERTEX
 8
0
 10
1602.369281275118
 20
-1427.51063318474
 42
-0.11395712547112745
 0
VERTEX
 8
0
 10
1572.7003687625718
 20
-1370.3083183449392
 42
-0.28033242217529514
 0
VERTEX
 8
0
 10
1625.3146905875874
 20
-1235.3129913261491
 42
-0.08785009243989027
 0
VERTEX
 8
0
 10
1768.532697688961
 20
-1149.0594507758378
 42
0.6909640578457542
 0
VERTEX
 8
0
 10
1766.9947312231623
 20
-1120.7240665606407
 42
0.17264173182984438
 0
VERTEX
 8
0
 10
1551.2063032636206
 20
-1241.5646072579075
 42
0.25559041300275626
 0
VERTEX
 8
0
 10
1522.1229846489437
 20
-1396.5866916282998
 42
-0.2731266782649348
 0
VERTEX
 8
0
 10
1515.5533866089543
 20
-1458.4886152861081
 0
VERTEX
 8
0
 10
1503.968299558023
 20
-1474.083773305227
 42
0.031441114939003686
 0
VERTEX
 8
0
 10
1468.522866295501
 20
-1518.4559606471664
 42
0.7186510807379901
 0
VERTEX
 8
0
 10
1529.7174442037942
 20
-1579.6186308212186
 42
0.03144285704286276
 0
VERTEX
 8
0
 10
1574.071948164437
 20
-1544.146097151972
 0
VERTEX
 8
0
 10
1589.659470806328
 20
-1532.552055194702
 42
-0.2731029886000059
 0
VERTEX
 8
0
 10
1651.556285544779
 20
-1525.9469398217261
 42
0.2555912109980804
 0
VERTEX
 8
0
 10
1806.5628976049572
 20
-1496.7771392367338
 0
SEQEND
 8
0
 0
POLYLINE
 8
0
 62
0
 66
1
 10
0
 20
0
 70
1
 0
VERTEX
 8
0
 10
1795.5436126733314
 20
-1181.8572333632826
 42
0.2340729172078185
 0
VERTEX
 8
0
 10
1733.6499440702598
 20
-1043.337324156391
 42
0.17740926388786504
 0
VERTEX
 8
0
 10
1638.895747004015
 20
-1013.460737705768
 0
VERTEX
 8
0
 10
1629.7701797552522
 20
-1013.806424758161
 0
VERTEX
 8
0
 10
1631.5811285997543
 20
-963.7247581641013
 0
VERTEX
 8
0
 10
1621.3760199724331
 20
-963.6837052777908
 0
VERTEX
 8
0
 10
1619.5790726088314
 20
-1013.3767967876852
 0
VERTEX
 8
0
 10
1615.2651631472083
 20
-1012.7169664258165
 42
0.1811349458882962
 0
VERTEX
 8
0
 10
1517.8470906659861
 20
-1042.475681399514
 42
0.23718216259365238
 0
VERTEX
 8
0
 10
1454.849668667032
 20
-1180.4972308096815
 42
0.09557452655477831
 0
VERTEX
 8
0
 10
1514.2424623120278
 20
-1436.2897333691983
 42
-0.8303108838269961
 0
VERTEX
 8
0
 10
1491.704003810704
 20
-1447.013624483378
 42
-0.2169732432665054
 0
VERTEX
 8
0
 10
1419.3102732990897
 20
-1092.9238489822596
 42
-0.21615333996733457
 0
VERTEX
 8
0
 10
1537.2509558204135
 20
-967.2234231585749
 42
0.1507920234284728
 0
VERTEX
 8
0
 10
1570.4264081204797
 20
-942.6701528257329
 42
0.07664054827434989
 0
VERTEX
 8
0
 10
1580.445879122622
 20
-907.631196793954
 42
-0.01928096312695621
 0
VERTEX
 8
0
 10
1588.5655686443042
 20
-855.5521708936122
 42
-0.8266578315169766
 0
VERTEX
 8
0
 10
1664.4255106163844
 20
-855.8539081009613
 42
-0.019281421074880574
 0
VERTEX
 8
0
 10
1672.1293204401043
 20
-907.9972524752495
 42
0.07664081244824228
 0
VERTEX
 8
0
 10
1681.8698418352353
 20
-943.1152226882881
 42
0.15079506955447014
 0
VERTEX
 8
0
 10
1714.8485228625916
 20
-967.931883740494
 42
-0.21615438623356575
 0
VERTEX
 8
0
 10
1831.7802224208071
 20
-1094.569701636008
 42
-0.21697343010646292
 0
VERTEX
 8
0
 10
1756.5637684980431
 20
-1448.0693302852922
 42
-0.8307343623029237
 0
VERTEX
 8
0
 10
1734.1125830611413
 20
-1437.1674727640093
 42
0.09557450453878176
 0
VERTEX
 8
0
 10
1795.5435687248819
 20
-1181.8572531077689
 0
SEQEND
 8
0
 0
POLYLINE
 8
0
 62
0
 66
1
 10
0
 20
0
 70
1
 0
VERTEX
 8
0
 10
2157.8192834848314
 20
-714.7147559595908
 42
0.39229729677430586
 0
VERTEX
 8
0
 10
2076.145971957526
 20
-776.0674157741257
 42
0.02371820830909537
 0
VERTEX
 8
0
 10
2064.5788518857453
 20
-832.1581382860221
 42
-0.18488383497317576
 0
VERTEX
 8
0
 10
2000.7028282745778
 20
-932.4611234539816
 42
-0.40594856635986254
 0
VERTEX
 8
0
 10
1876.548234614935
 20
-930.376588305443
 0
VERTEX
 8
0
 10
1864.774572610346
 20
-906.9988450492131
 42
0.0801190440952206
 0
VERTEX
 8
0
 10
1846.3494972236747
 20
-868.1773960390559
 42
0.3711137425364569
 0
VERTEX
 8
0
 10
1835.100569949777
 20
-870.5328098243772
 42
0.18212942690859424
 0
VERTEX
 8
0
 10
1827.3652803967861
 20
-936.1967078553239
 42
0.0826063990363205
 0
VERTEX
 8
0
 10
1864.5748705282367
 20
-1019.5180127323831
 42
-0.26989522116662074
 0
VERTEX
 8
0
 10
1873.051292173633
 20
-1064.496540017612
 42
-0.0629430355529676
 0
VERTEX
 8
0
 10
1856.5218359059886
 20
-1098.4310028211999
 0
VERTEX
 8
0
 10
1849.777083256449
 20
-1116.310588084858
 42
0.3720474204059361
 0
VERTEX
 8
0
 10
1863.781777930696
 20
-1157.9337084895537
 42
-0.21814215128180278
 0
VERTEX
 8
0
 10
1878.5440561199268
 20
-1194.3000904159633
 0
VERTEX
 8
0
 10
1879.9717529906497
 20
-1204.2752328320546
 0
VERTEX
 8
0
 10
1885.1156366088132
 20
-1223.616539819621
 42
0.44216867629715256
 0
VERTEX
 8
0
 10
1922.101707836032
 20
-1245.3660022945078
 42
-0.014487684587013707
 0
VERTEX
 8
0
 10
1972.39560462416
 20
-1235.8548010367722
 42
-0.2772291270167229
 0
VERTEX
 8
0
 10
2015.5877783973447
 20
-1244.362296202818
 42
0.6932261710850411
 0
VERTEX
 8
0
 10
2063.828333100192
 20
-1202.1802714545295
 42
-0.09042065043871278
 0
VERTEX
 8
0
 10
2048.5454920454417
 20
-1158.5892864116454
 42
-0.4664127307136269
 0
VERTEX
 8
0
 10
2103.1803744705967
 20
-1084.1295693926024
 0
VERTEX
 8
0
 10
2121.4338549435433
 20
-1095.4537987272597
 42
-0.24665027743049953
 0
VERTEX
 8
0
 10
2129.402225241297
 20
-1121.321555040611
 0
VERTEX
 8
0
 10
2126.879851627052
 20
-1134.8127976843662
 0
VERTEX
 8
0
 10
2125.3541709134397
 20
-1147.0504602906415
 42
0.35919125008025854
 0
VERTEX
 8
0
 10
2140.9287014642778
 20
-1165.3419586018877
 42
0.27380280031977045
 0
VERTEX
 8
0
 10
2242.3568128250254
 20
-1053.794980222004
 0
VERTEX
 8
0
 10
2245.640346206729
 20
-1031.563701189497
 42
0.1400546768103526
 0
VERTEX
 8
0
 10
2237.8183779504675
 20
-954.4034251640221
 42
-0.09320575530645417
 0
VERTEX
 8
0
 10
2228.445032132828
 20
-819.2676716006905
 0
VERTEX
 8
0
 10
2236.585237602926
 20
-789.9954886508044
 42
0.06973208547241154
 0
VERTEX
 8
0
 10
2248.443182289726
 20
-731.8449422357148
 42
0.46356893347483025
 0
VERTEX
 8
0
 10
2180.815867683875
 20
-708.0517323693412
 0
VERTEX
 8
0
 10
2176.36570762337
 20
-712.168847491328
 0
VERTEX
 8
0
 10
2171.0859258243404
 20
-903.5725602848208
 0
VERTEX
 8
0
 10
2160.900528020099
 20
-902.9044993259997
 0
VERTEX
 8
0
 10
2166.0411106280435
 20
-716.5464853171579
 0
VERTEX
 8
0
 10
2157.819318593103
 20
-714.7147381561417
 0
SEQEND
 8
0
 0
POLYLINE
 8
0
 62
0
 66
1
 10
0
 20
0
 70
1
 0
VERTEX
 8
0
 10
1714.572258007961
 20
-654.3525954231854
 42
0.6991365356622592
 0
VERTEX
 8
0
 10
1692.6856639080308
 20
-639.8712869369205
 42
-0.0637585971084899
 0
VERTEX
 8
0
 10
1611.970462334576
 20
-736.983338545276
 42
-0.1837487786671257
 0
VERTEX
 8
0
 10
1555.263694113697
 20
-751.5438045393797
 42
-0.10544159074870744
 0
VERTEX
 8
0
 10
1467.2554004523927
 20
-707.7165184204574
 0
VERTEX
 8
0
 10
1464.920547709262
 20
-704.0631454063513
 0
VERTEX
 8
0
 10
1426.0588252478817
 20
-727.8477196019101
 0
VERTEX
 8
0
 10
1420.432064997949
 20
-719.3328480213315
 0
VERTEX
 8
0
 10
1459.5896537075398
 20
-695.379848242177
 0
VERTEX
 8
0
 10
1454.9753397056963
 20
-687.5139208438176
 42
-0.13247824699781346
 0
VERTEX
 8
0
 10
1437.515195914096
 20
-607.9574498787719
 42
-0.18632268671416247
 0
VERTEX
 8
0
 10
1466.313132838323
 20
-552.8901956550743
 42
-0.13254523103046015
 0
VERTEX
 8
0
 10
1589.7631212463048
 20
-503.0426191060511
 42
0.8604385745380964
 0
VERTEX
 8
0
 10
1590.6166294493112
 20
-472.8084591774429
 42
0.11553289612940056
 0
VERTEX
 8
0
 10
1446.9055553004653
 20
-504.71364563296083
 42
0.2538687761948578
 0
VERTEX
 8
0
 10
1379.6856479282546
 20
-602.4229880580328
 42
0.07248442295613328
 0
VERTEX
 8
0
 10
1381.5883357392115
 20
-666.2821595223597
 42
-0.18098369301854286
 0
VERTEX
 8
0
 10
1358.8397804130325
 20
-717.3595857313347
 42
0.021881502353533092
 0
VERTEX
 8
0
 10
1323.6832695455046
 20
-754.1989346691032
 42
0.7059990470640071
 0
VERTEX
 8
0
 10
1352.888971449514
 20
-810.4033216070388
 42
0.044791877669607835
 0
VERTEX
 8
0
 10
1417.3426629570145
 20
-784.1746387566363
 42
-0.2902331764267187
 0
VERTEX
 8
0
 10
1473.8622878979936
 20
-789.2141515459734
 42
0.19760872044185343
 0
VERTEX
 8
0
 10
1593.2160154467797
 20
-805.5900747874532
 42
0.24939102924853038
 0
VERTEX
 8
0
 10
1714.5722095762137
 20
-654.3525630807378
 0
SEQEND
 8
0
 0
POLYLINE
 8
0
 62
0
 66
1
 10
0
 20
0
 70
1
 0
VERTEX
 8
0
 10
2122.5962235503957
 20
803.511858522659
 42
0.38328886694442516
 0
VERTEX
 8
0
 10
2149.2331409153817
 20
782.7924443492858
 42
0.030318950120757755
 0
VERTEX
 8
0
 10
2236.3484634565225
 20
783.0697845699834
 42
0.3567375250187172
 0
VERTEX
 8
0
 10
2249.451781046265
 20
815.7224150953354
 42
0.07344593916678024
 0
VERTEX
 8
0
 10
2213.916388490018
 20
929.6397266995425
 0
VERTEX
 8
0
 10
2210.9508612030672
 20
934.0300746075271
 0
VERTEX
 8
0
 10
2162.3086963944556
 20
934.9270529855029
 0
VERTEX
 8
0
 10
2162.339757932665
 20
945.128151479786
 0
VERTEX
 8
0
 10
2208.527993260149
 20
944.2621666717398
 42
0.24951615297133106
 0
VERTEX
 8
0
 10
2215.381313363446
 20
952.1688583671382
 42
0.07146510607272448
 0
VERTEX
 8
0
 10
2250.2237139831977
 20
1062.9648387704153
 42
0.3567361787636617
 0
VERTEX
 8
0
 10
2237.323856940763
 20
1095.7010118739433
 42
0.03031831020559034
 0
VERTEX
 8
0
 10
2150.2138077403897
 20
1096.5210477882674
 42
0.3833391446938167
 0
VERTEX
 8
0
 10
2123.445750502134
 20
1075.967642227782
 0
VERTEX
 8
0
 10
2127.2791008457943
 20
1057.7309811018472
 42
-0.01752238977357287
 0
VERTEX
 8
0
 10
2141.4676314896174
 20
1019.1849854986302
 42
-0.3373407990134109
 0
VERTEX
 8
0
 10
2133.63179594746
 20
988.5492557320767
 0
VERTEX
 8
0
 10
2110.8168903437495
 20
986.1169436043896
 0
VERTEX
 8
0
 10
2087.7506736894206
 20
983.5045119202009
 0
VERTEX
 8
0
 10
2066.180236618904
 20
978.6293457372542
 42
0.342185004014686
 0
VERTEX
 8
0
 10
2034.3642190075823
 20
940.0170940126324
 42
0.34220072069075486
 0
VERTEX
 8
0
 10
2065.9374484281843
 20
901.203729825886
 0
VERTEX
 8
0
 10
2087.479140112089
 20
896.1946743029562
 0
VERTEX
 8
0
 10
2110.5276170258876
 20
893.4388293905118
 0
VERTEX
 8
0
 10
2133.3274565156817
 20
890.8651407050021
 42
-0.3373499608526896
 0
VERTEX
 8
0
 10
2140.9724589007806
 20
860.1808981404713
 42
-0.017522387723381435
 0
VERTEX
 8
0
 10
2126.543057143342
 20
821.7243466658838
 0
VERTEX
 8
0
 10
2122.596282004442
 20
803.5118702725279
 0
SEQEND
 8
0
 0
POLYLINE
 8
0
 62
0
 66
1
 10
0
 20
0
 70
1
 0
VERTEX
 8
0
 10
2579.5571454040582
 20
1067.1453519159966
 42
0.8312038572716136
 0
VERTEX
 8
0
 10
2559.458668269065
 20
1170.44182021643
 0
VERTEX
 8
0
 10
2547.056508446399
 20
1171.0729085325493
 42
-0.35827855276590176
 0
VERTEX
 8
0
 10
2470.4575078980774
 20
1211.9929313730597
 0
VERTEX
 8
0
 10
2467.016064404401
 20
1310.501286257807
 0
VERTEX
 8
0
 10
2467.114890392454
 20
1314.8369196402193
 0
VERTEX
 8
0
 10
2363.48890937042
 20
1314.1868702951022
 0
VERTEX
 8
0
 10
2363.3474672237153
 20
1324.3861336441603
 0
VERTEX
 8
0
 10
2467.582784546669
 20
1325.040057185281
 0
VERTEX
 8
0
 10
2467.817275370493
 20
1333.3542182145572
 0
VERTEX
 8
0
 10
2472.739679559889
 20
1407.996113869376
 42
-0.4091839318629525
 0
VERTEX
 8
0
 10
2512.23179532913
 20
1457.9765681133722
 42
-0.06630826489555113
 0
VERTEX
 8
0
 10
2559.894473480951
 20
1460.0994319559868
 42
0.962907298301238
 0
VERTEX
 8
0
 10
2561.120335950583
 20
1572.2935612764509
 42
-0.06379066641301273
 0
VERTEX
 8
0
 10
2408.402375116112
 20
1599.5121571016966
 42
0.43271283332741345
 0
VERTEX
 8
0
 10
2366.485226321985
 20
1546.006334013993
 0
VERTEX
 8
0
 10
2366.2074396557578
 20
1539.9661902303417
 0
VERTEX
 8
0
 10
2472.106690271841
 20
1530.897172652854
 0
VERTEX
 8
0
 10
2471.070104893335
 20
1520.7486816653245
 0
VERTEX
 8
0
 10
2364.919235428317
 20
1529.839245211119
 0
VERTEX
 8
0
 10
2364.553561158702
 20
1525.5196669316633
 42
0.19926910483736202
 0
VERTEX
 8
0
 10
2400.497378520714
 20
1458.0995000098985
 42
-0.5021947005108548
 0
VERTEX
 8
0
 10
2366.888097891331
 20
1375.145301227284
 42
-0.093751577189824
 0
VERTEX
 8
0
 10
2310.082586280934
 20
1370.2939865739372
 42
0.05200249179261793
 0
VERTEX
 8
0
 10
2237.5732282075337
 20
1371.9894011649274
 42
1.0287864712489854
 0
VERTEX
 8
0
 10
2244.741843440877
 20
1262.5185941956486
 42
0.031481153778106265
 0
VERTEX
 8
0
 10
2319.472273291212
 20
1267.0469072700412
 42
-0.08286537351930877
 0
VERTEX
 8
0
 10
2362.849239971603
 20
1262.9409280306443
 42
-0.6310929932050322
 0
VERTEX
 8
0
 10
2391.8778052911944
 20
1170.6621677777555
 0
VERTEX
 8
0
 10
2380.838191962838
 20
1158.9263711464614
 42
0.25667896531247736
 0
VERTEX
 8
0
 10
2361.567919759297
 20
1108.093564794565
 0
VERTEX
 8
0
 10
2362.375927560524
 20
1102.493312203324
 0
VERTEX
 8
0
 10
2466.5243133577433
 20
1113.662280069636
 0
VERTEX
 8
0
 10
2467.48022029941
 20
1103.506380531262
 0
VERTEX
 8
0
 10
2363.955919935568
 20
1092.408915374
 0
VERTEX
 8
0
 10
2363.302809433196
 20
1087.9744384752914
 42
0.5226756804137009
 0
VERTEX
 8
0
 10
2412.089332627522
 20
1037.3305337169168
 42
-0.0777922038595108
 0
VERTEX
 8
0
 10
2562.214725398246
 20
1061.9376644898896
 0
VERTEX
 8
0
 10
2579.557114680377
 20
1067.145349778311
 0
SEQEND
 8
0
 0
POLYLINE
 8
0
 62
0
 66
1
 10
0
 20
0
 70
1
 0
VERTEX
 8
0
 10
2586.879912860112
 20
786.8296229401924
 42
0.12082598919691932
 0
VERTEX
 8
0
 10
2493.650460995168
 20
872.0868750277706
 42
-0.2477354571617455
 0
VERTEX
 8
0
 10
2469.9863863105684
 20
914.89336589709
 42
0.011796361332693255
 0
VERTEX
 8
0
 10
2462.774083495137
 20
972.7424127709792
 42
0.9115740657576972
 0
VERTEX
 8
0
 10
2379.6274250435044
 20
973.0585320201785
 42
0.01179619769579262
 0
VERTEX
 8
0
 10
2371.9755508911185
 20
915.2668310377804
 42
-0.24773517366684306
 0
VERTEX
 8
0
 10
2347.986235444636
 20
872.6416168406569
 42
0.1208267145744813
 0
VERTEX
 8
0
 10
2254.1091347246274
 20
788.0977254857545
 42
0.13146870761905416
 0
VERTEX
 8
0
 10
2234.578648230275
 20
617.618377328593
 42
0.09535059778730186
 0
VERTEX
 8
0
 10
2304.6551288288506
 20
416.6319366856794
 42
0.7740333743923787
 0
VERTEX
 8
0
 10
2331.211719337847
 20
423.04108905886585
 42
0.07937951040843319
 0
VERTEX
 8
0
 10
2302.5202255868303
 20
507.742253434993
 42
-0.1297736785390933
 0
VERTEX
 8
0
 10
2284.5729142335836
 20
714.629972330792
 42
-0.20363241286170272
 0
VERTEX
 8
0
 10
2349.268830475081
 20
810.5096146115973
 42
-0.12357497396052473
 0
VERTEX
 8
0
 10
2410.846301978911
 20
831.480984185967
 0
VERTEX
 8
0
 10
2415.9434191979008
 20
831.4790810845357
 0
VERTEX
 8
0
 10
2416.106543249235
 20
874.5441025420798
 0
VERTEX
 8
0
 10
2426.30641831329
 20
874.5053605796681
 0
VERTEX
 8
0
 10
2426.14370207211
 20
831.5488845849194
 0
VERTEX
 8
0
 10
2433.526760498304
 20
830.9518180914205
 42
-0.1193186852103779
 0
VERTEX
 8
0
 10
2491.8914094752113
 20
809.965619202941
 42
-0.2036359421176458
 0
VERTEX
 8
0
 10
2555.8569072339847
 20
713.5956735906356
 42
-0.12977230040148333
 0
VERTEX
 8
0
 10
2536.335177537934
 20
506.8514809640485
 42
0.07937984408430052
 0
VERTEX
 8
0
 10
2506.9977525227914
 20
422.3716901877102
 42
0.7738213643804659
 0
VERTEX
 8
0
 10
2533.5054574788737
 20
415.7591312904792
 42
0.09534999324602032
 0
VERTEX
 8
0
 10
2605.110643717827
 20
616.2044693180903
 42
0.131470172019932
 0
VERTEX
 8
0
 10
2586.8799542715306
 20
786.8296391633185
 0
SEQEND
 8
0
 0
POLYLINE
 8
0
 62
0
 66
1
 10
0
 20
0
 70
1
 0
VERTEX
 8
0
 10
2264.4601510523776
 20
-1035.1756899559948
 42
-0.9550004511943858
 0
VERTEX
 8
0
 10
2351.4971793365703
 20
-1035.112865187654
 42
0.06155320604119529
 0
VERTEX
 8
0
 10
2360.364412680807
 20
-1100.8202802100793
 42
0.28885269457653623
 0
VERTEX
 8
0
 10
2406.228285248614
 20
-1140.5540738718785
 42
-0.3197605837331596
 0
VERTEX
 8
0
 10
2511.983612213798
 20
-1317.1034108490874
 42
-0.12963587401988064
 0
VERTEX
 8
0
 10
2430.721839927527
 20
-1560.7925371405706
 42
-0.9436343080016291
 0
VERTEX
 8
0
 10
2402.686803314291
 20
-1548.28530198922
 0
VERTEX
 8
0
 10
2405.248003164222
 20
-1541.5179296536107
 42
0.09709940594789547
 0
VERTEX
 8
0
 10
2462.597561129169
 20
-1347.4241032730777
 42
0.34809359392546135
 0
VERTEX
 8
0
 10
2374.374115614898
 20
-1188.9483283513182
 42
0.058185126926674643
 0
VERTEX
 8
0
 10
2320.977014383684
 20
-1181.493123900622
 0
VERTEX
 8
0
 10
2313.56302624513
 20
-1180.72412993469
 0
VERTEX
 8
0
 10
2313.5308772130134
 20
-1135.4801789596747
 0
VERTEX
 8
0
 10
2303.330934181156
 20
-1135.488063288955
 0
VERTEX
 8
0
 10
2303.363558991232
 20
-1181.3841706276712
 0
VERTEX
 8
0
 10
2298.2671577068777
 20
-1181.3089786280182
 42
0.06152920945951382
 0
VERTEX
 8
0
 10
2241.803182367227
 20
-1189.0426866285163
 42
0.34809301837308254
 0
VERTEX
 8
0
 10
2153.8070883838514
 20
-1347.6436589192263
 42
0.09709956914124654
 0
VERTEX
 8
0
 10
2211.433296400973
 20
-1541.6560349370604
 0
VERTEX
 8
0
 10
2214.003591888872
 20
-1548.419947300077
 42
-0.9436918929979321
 0
VERTEX
 8
0
 10
2185.9876291410546
 20
-1560.9659345558712
 42
-0.12963553212187973
 0
VERTEX
 8
0
 10
2104.377394520283
 20
-1317.3950583073913
 42
-0.31976244526371617
 0
VERTEX
 8
0
 10
2209.8804522554124
 20
-1140.6945581149141
 42
0.2888321603685889
 0
VERTEX
 8
0
 10
2255.686587704831
 20
-1100.8957342631084
 42
0.06155328949117203
 0
VERTEX
 8
0
 10
2264.4600712067904
 20
-1035.175644687572
 0
SEQEND
 8
0
 0
POLYLINE
 8
0
 62
0
 66
1
 10
0
 20
0
 70
1
 0
VERTEX
 8
0
 10
2583.737929400036
 20
-359.60862265022894
 42
0.21582096648661697
 0
VERTEX
 8
0
 10
2528.4981846868423
 20
-393.89814728977234
 42
0.4444937899189469
 0
VERTEX
 8
0
 10
2533.6084754416615
 20
-426.8552253298377
 42
-0.23852512606345833
 0
VERTEX
 8
0
 10
2581.4185448448807
 20
-473.4470437368537
 42
0.5183881839849706
 0
VERTEX
 8
0
 10
2627.98667447511
 20
-481.6948853238967
 0
VERTEX
 8
0
 10
2640.174352042783
 20
-454.8232564223656
 42
-0.3698648644308738
 0
VERTEX
 8
0
 10
2759.328464772001
 20
-388.3886814281708
 0
VERTEX
 8
0
 10
2788.4643780369734
 20
-390.49569454139527
 0
VERTEX
 8
0
 10
2813.676763461458
 20
-257.465787624243
 0
VERTEX
 8
0
 10
2814.4130646487897
 20
-253.1921413812131
 0
VERTEX
 8
0
 10
2767.6416608372024
 20
-243.7780484665655
 0
VERTEX
 8
0
 10
2769.4887008778687
 20
-233.74530758712274
 0
VERTEX
 8
0
 10
2815.618959198771
 20
-243.06920649455444
 0
VERTEX
 8
0
 10
2816.5978394447725
 20
-237.2403763259831
 0
VERTEX
 8
0
 10
2833.7366718156704
 20
-131.67077223090246
 0
VERTEX
 8
0
 10
2823.1862187038787
 20
-125.82600132407349
 42
-0.25454379956227835
 0
VERTEX
 8
0
 10
2773.2242263177714
 20
-90.31332054113113
 42
0.17236100824739592
 0
VERTEX
 8
0
 10
2631.1920108666322
 20
68.57666385482659
 42
0.08092390838706795
 0
VERTEX
 8
0
 10
2552.064662826713
 20
100.0219305061747
 0
VERTEX
 8
0
 10
2537.810191127763
 20
99.00240429790468
 42
0.6622346413194254
 0
VERTEX
 8
0
 10
2531.446630659089
 20
68.22619752923308
 42
-0.1417416908996921
 0
VERTEX
 8
0
 10
2662.2784003619568
 20
-30.78118316001499
 42
-0.1262936339722197
 0
VERTEX
 8
0
 10
2712.485680626332
 20
-135.4211213615905
 0
VERTEX
 8
0
 10
2712.865284041721
 20
-156.9293081684002
 42
-0.43785584924057774
 0
VERTEX
 8
0
 10
2690.3440020499306
 20
-188.7660071855593
 42
0.02004981815712602
 0
VERTEX
 8
0
 10
2660.155396466125
 20
-196.99777412761202
 42
0.7017807600633108
 0
VERTEX
 8
0
 10
2667.088597102492
 20
-256.2049066748522
 0
VERTEX
 8
0
 10
2683.796170262537
 20
-261.3942225933089
 42
-0.636384249073396
 0
VERTEX
 8
0
 10
2698.766391868707
 20
-328.60395617066
 42
-0.14543843703887813
 0
VERTEX
 8
0
 10
2646.598517688904
 20
-350.06346022833986
 42
0.008928804179755574
 0
VERTEX
 8
0
 10
2583.7379563474087
 20
-359.608642261049
 0
SEQEND
 8
0
 0
POLYLINE
 8
0
 62
0
 66
1
 10
0
 20
0
 70
1
 0
VERTEX
 8
0
 10
2857.842486202011
 20
346.49578326644144
 42
0.5055360676823615
 0
VERTEX
 8
0
 10
2864.408745872612
 20
412.5987829367782
 0
VERTEX
 8
0
 10
2848.714858157116
 20
425.4958738552464
 42
-0.6896520091767459
 0
VERTEX
 8
0
 10
2853.5858950127213
 20
439.97703510292007
 42
-0.06174044367464819
 0
VERTEX
 8
0
 10
2883.9510046850814
 20
444.857606448117
 42
0.02796403869528721
 0
VERTEX
 8
0
 10
2911.875777867071
 20
447.5881279233243
 42
-0.0583311844677779
 0
VERTEX
 8
0
 10
2952.4751970809425
 20
464.2458561798141
 42
-0.49758722462246585
 0
VERTEX
 8
0
 10
3059.8167789418203
 20
396.4911154680053
 42
-0.025218727556519042
 0
VERTEX
 8
0
 10
3051.2378399688623
 20
239.50296906614219
 42
0.039560516013041815
 0
VERTEX
 8
0
 10
3050.790308218893
 20
166.23931951378
 42
-0.03495353758374512
 0
VERTEX
 8
0
 10
3059.5406673691814
 20
46.600721355786746
 42
-0.45739441612660664
 0
VERTEX
 8
0
 10
2984.474102328022
 20
-15.9305874325053
 0
VERTEX
 8
0
 10
2916.6119820941703
 20
-4.8849821299651035
 0
VERTEX
 8
0
 10
2909.5334857543576
 20
-0.9332340149312711
 0
VERTEX
 8
0
 10
2920.676625646203
 20
98.93321339958896
 0
VERTEX
 8
0
 10
2910.547641576202
 20
100.13659312082974
 0
VERTEX
 8
0
 10
2899.4978222355453
 20
1.1066322484886453
 0
VERTEX
 8
0
 10
2894.04553675255
 20
-1.081744870130169
 42
-0.2907605304429728
 0
VERTEX
 8
0
 10
2857.9952705131536
 20
7.167170777165595
 42
-0.06841369436368
 0
VERTEX
 8
0
 10
2836.435768081322
 20
40.444651593608924
 42
0.2762212408501386
 0
VERTEX
 8
0
 10
2785.049104146072
 20
78.84883643769604
 0
VERTEX
 8
0
 10
2767.905242116738
 20
85.9564232329842
 42
-0.4367965440782064
 0
VERTEX
 8
0
 10
2757.57421019115
 20
113.9098463755123
 42
-0.012348911772726581
 0
VERTEX
 8
0
 10
2794.528261840272
 20
177.45142132098943
 42
0.04190267427800928
 0
VERTEX
 8
0
 10
2793.1632573524616
 20
247.98428424085859
 42
-0.3024109278598512
 0
VERTEX
 8
0
 10
2824.7392465510256
 20
326.61149529509555
 42
0.01960783503445504
 0
VERTEX
 8
0
 10
2857.8425134252784
 20
346.49571772284105
 0
SEQEND
 8
0
 0
POLYLINE
 8
0
 62
0
 66
1
 10
0
 20
0
 70
1
 0
VERTEX
 8
0
 10
2906.780920959515
 20
1150.0577402509962
 42
-0.8299528262985092
 0
VERTEX
 8
0
 10
2977.749020928676
 20
1103.539391831257
 42
-0.053573586542651784
 0
VERTEX
 8
0
 10
2949.5139101435893
 20
1052.0889662614964
 42
0.3138885034615611
 0
VERTEX
 8
0
 10
2957.684982459864
 20
973.1995558411554
 42
-0.18452205304309038
 0
VERTEX
 8
0
 10
2976.4933645464857
 20
834.2991235914122
 42
-0.1791716232026975
 0
VERTEX
 8
0
 10
2885.2645660415455
 20
728.3196237795717
 42
-0.03670511085743044
 0
VERTEX
 8
0
 10
2782.9083952805763
 20
675.6437659070021
 42
-0.8086156055890124
 0
VERTEX
 8
0
 10
2765.824888106737
 20
703.2169963036542
 42
0.09918942359666985
 0
VERTEX
 8
0
 10
2906.8364175096867
 20
811.3561300328728
 42
0.28196938458193016
 0
VERTEX
 8
0
 10
2916.8523351416034
 20
927.1729674160562
 42
0.11446510624625983
 0
VERTEX
 8
0
 10
2868.7338011223687
 20
991.1555394341376
 0
VERTEX
 8
0
 10
2861.379673575074
 20
996.27529000346
 0
VERTEX
 8
0
 10
2887.0498258691073
 20
1032.4933153378383
 0
VERTEX
 8
0
 10
2878.5131364461513
 20
1038.0881304607328
 0
VERTEX
 8
0
 10
2853.008215222986
 20
1002.1032365833878
 0
VERTEX
 8
0
 10
2849.7609578513575
 20
1005.0182985197115
 42
0.11764114214072649
 0
VERTEX
 8
0
 10
2769.351739788626
 20
1023.8569208812194
 42
0.2819674354774951
 0
VERTEX
 8
0
 10
2667.146493189938
 20
968.4673532216697
 42
0.09918919806607111
 0
VERTEX
 8
0
 10
2624.2405692877155
 20
796.0216397100869
 42
-0.8081421955043457
 0
VERTEX
 8
0
 10
2592.14370488382
 20
800.688572216456
 42
-0.03670463622276179
 0
VERTEX
 8
0
 10
2599.611223438977
 20
915.5602050589861
 42
-0.17917226272488201
 0
VERTEX
 8
0
 10
2660.3969157263323
 20
1041.494425513088
 42
-0.18451943143803945
 0
VERTEX
 8
0
 10
2795.2685640756617
 20
1079.6596333029208
 42
0.31390040607694136
 0
VERTEX
 8
0
 10
2870.868684854216
 20
1103.6418391451198
 42
-0.05357146088125863
 0
VERTEX
 8
0
 10
2906.780888537205
 20
1150.0578018897195
 0
SEQEND
 8
0
 0
POLYLINE
 8
0
 62
0
 66
1
 10
0
 20
0
 70
1
 0
VERTEX
 8
0
 10
1861.456880332554
 20
1586.8744170862149
 42
-0.3343855629446831
 0
VERTEX
 8
0
 10
1809.0179670465327
 20
1553.0893048949115
 42
0.248640003888674
 0
VERTEX
 8
0
 10
1766.7962149339546
 20
1530.6010523057917
 42
0.11970109863549636
 0
VERTEX
 8
0
 10
1762.573344241066
 20
1493.739552782322
 0
VERTEX
 8
0
 10
1763.044704781367
 20
1489.399705361795
 0
VERTEX
 8
0
 10
1974.9567811340412
 20
1487.3058722245942
 0
VERTEX
 8
0
 10
1974.923000861303
 20
1473.5904699465157
 0
VERTEX
 8
0
 10
1761.8670170980647
 20
1473.3204996415254
 0
VERTEX
 8
0
 10
1716.9059700554549
 20
1473.2255698701715
 42
0.28732382310247795
 0
VERTEX
 8
0
 10
1689.1971072339154
 20
1441.486574585398
 42
-0.31248547290333795
 0
VERTEX
 8
0
 10
1660.8405266966438
 20
1401.7438049112752
 42
0.3512309572218309
 0
VERTEX
 8
0
 10
1633.846038085851
 20
1371.005220372587
 0
VERTEX
 8
0
 10
1635.0386788074338
 20
1343.955242508595
 0
VERTEX
 8
0
 10
1635.0715754906319
 20
1337.0593091698343
 0
VERTEX
 8
0
 10
1761.475791247853
 20
1337.3082092851898
 0
VERTEX
 8
0
 10
1761.4517984188499
 20
1327.1081982845758
 0
VERTEX
 8
0
 10
1634.4131660382732
 20
1326.8580067704722
 0
VERTEX
 8
0
 10
1634.1495167899834
 20
1320.3190432314502
 0
VERTEX
 8
0
 10
1633.6637572680945
 20
1295.7024605684312
 42
0.3512395787076087
 0
VERTEX
 8
0
 10
1660.5077561001206
 20
1264.8305408943454
 42
-0.3124603844691791
 0
VERTEX
 8
0
 10
1688.6689513010363
 20
1224.9499037629603
 42
0.2873352441139086
 0
VERTEX
 8
0
 10
1716.2229501630766
 20
1193.0742221525766
 42
0.28524123467770846
 0
VERTEX
 8
0
 10
1735.9561831799724
 20
1188.5814182604938
 0
VERTEX
 8
0
 10
1974.2242861741913
 20
1187.1162927879611
 0
VERTEX
 8
0
 10
1974.1991378830005
 20
1176.916349755627
 0
VERTEX
 8
0
 10
1762.835226311698
 20
1178.215972667189
 0
VERTEX
 8
0
 10
1761.0810483428645
 20
1173.1311062879756
 42
0.12133235997709364
 0
VERTEX
 8
0
 10
1765.8304380830214
 20
1135.4582508245585
 42
0.2486436588750556
 0
VERTEX
 8
0
 10
1807.9421205418796
 20
1112.7648069331935
 42
-0.33438417181625785
 0
VERTEX
 8
0
 10
1860.2165994847433
 20
1078.7238075207297
 42
0.5028739035306826
 0
VERTEX
 8
0
 10
1923.7431967989849
 20
1086.3592226338837
 42
-0.2732120181765452
 0
VERTEX
 8
0
 10
2000.2738018532887
 20
1117.1723436584787
 42
-0.03781975336733866
 0
VERTEX
 8
0
 10
2073.8279042105637
 20
1111.3965034191133
 42
0.0433624378722207
 0
VERTEX
 8
0
 10
2161.7338013269286
 20
1105.8025278697069
 42
0.4049751407109666
 0
VERTEX
 8
0
 10
2227.697441717495
 20
1167.1231545277583
 42
0.48171445265801827
 0
VERTEX
 8
0
 10
2164.6330034760445
 20
1230.0783162965022
 42
0.03865060107572252
 0
VERTEX
 8
0
 10
2103.898490703164
 20
1225.6014583368433
 42
-0.12780755496401566
 0
VERTEX
 8
0
 10
2028.788931588244
 20
1230.4660949194742
 42
-0.7807027454362653
 0
VERTEX
 8
0
 10
2035.5040132654538
 20
1272.8807095570883
 42
-0.08082213934706892
 0
VERTEX
 8
0
 10
2087.79343436516
 20
1273.6428896112761
 42
0.0687826174462988
 0
VERTEX
 8
0
 10
2143.3993772407684
 20
1273.7486620580412
 42
0.4330623163070094
 0
VERTEX
 8
0
 10
2174.687433007463
 20
1322.216311886435
 0
VERTEX
 8
0
 10
2173.4729744442157
 20
1327.9196045038452
 0
VERTEX
 8
0
 10
2036.763124863191
 20
1327.6503138821313
 0
VERTEX
 8
0
 10
2036.788273154381
 20
1337.8503928512632
 0
VERTEX
 8
0
 10
2173.462779191273
 20
1338.1194795678991
 0
VERTEX
 8
0
 10
2174.885492793249
 20
1342.457287937647
 42
0.4283277965118558
 0
VERTEX
 8
0
 10
2143.685280673288
 20
1390.4659792280352
 42
0.06878471330686897
 0
VERTEX
 8
0
 10
2088.079007335375
 20
1390.84512960226
 42
-0.08082267625708589
 0
VERTEX
 8
0
 10
2035.7940601988976
 20
1391.8634967586395
 42
-0.7806166462748437
 0
VERTEX
 8
0
 10
2029.2860233092736
 20
1434.3084912191082
 42
-0.12780587632170043
 0
VERTEX
 8
0
 10
2104.418012068589
 20
1438.8059721934126
 42
0.038652055891869465
 0
VERTEX
 8
0
 10
2165.1322667313975
 20
1434.0351911237879
 42
0.48172583671012625
 0
VERTEX
 8
0
 10
2228.5024967530017
 20
1496.6816152596639
 42
0.40497314363524967
 0
VERTEX
 8
0
 10
2162.837579907685
 20
1558.3225351993683
 42
0.04336202002264669
 0
VERTEX
 8
0
 10
2074.906024506603
 20
1553.1575943632151
 42
-0.03781977958444472
 0
VERTEX
 8
0
 10
2001.3248344784213
 20
1547.7411041486664
 42
-0.2732033408623857
 0
VERTEX
 8
0
 10
1924.946951373456
 20
1578.9267623565136
 0
SEQEND
 8
0
 0
POLYLINE
 8
0
 62
0
 66
1
 10
0
 20
0
 70
1
 0
VERTEX
 8
0
 10
2941.511721751782
 20
1405.7511052384389
 42
0.023717776845651056
 0
VERTEX
 8
0
 10
2996.0565735516343
 20
1423.2071736561486
 42
0.40198496971338565
 0
VERTEX
 8
0
 10
3047.828357368855
 20
1513.38097997635
 0
VERTEX
 8
0
 10
3046.7668955727554
 20
1519.0190909414112
 0
VERTEX
 8
0
 10
2861.116839947096
 20
1494.040380720443
 0
VERTEX
 8
0
 10
2859.7953312253508
 20
1504.1544117524327
 0
VERTEX
 8
0
 10
3048.9176182228694
 20
1529.600336444102
 0
VERTEX
 8
0
 10
3053.8831165900774
 20
1537.305886641578
 42
0.44478744626151917
 0
VERTEX
 8
0
 10
3021.739146900615
 20
1599.2270190253726
 42
0.06973408303329194
 0
VERTEX
 8
0
 10
2965.174963769057
 20
1581.261791507892
 0
VERTEX
 8
0
 10
2936.93196700107
 20
1570.0589028896275
 42
-0.09320606358204225
 0
VERTEX
 8
0
 10
2801.5643967634796
 20
1565.0353641620623
 42
0.1400500348856197
 0
VERTEX
 8
0
 10
2724.01154745406
 20
1564.621498428294
 0
VERTEX
 8
0
 10
2702.253112937856
 20
1558.998417060485
 42
0.27380777422409636
 0
VERTEX
 8
0
 10
2602.10359655529
 20
1446.3019937650527
 42
0.3592052188450209
 0
VERTEX
 8
0
 10
2621.944695545996
 20
1432.756713639601
 0
VERTEX
 8
0
 10
2633.95212103675
 20
1435.5730503878406
 0
VERTEX
 8
0
 10
2647.100231561724
 20
1439.5119723469686
 42
-0.24664096765223353
 0
VERTEX
 8
0
 10
2673.6681803774254
 20
1434.335650910972
 0
VERTEX
 8
0
 10
2686.8638600594427
 20
1417.3867499019675
 42
-0.46642199388077454
 0
VERTEX
 8
0
 10
2618.625259678461
 20
1355.157070814863
 42
-0.09042012792289328
 0
VERTEX
 8
0
 10
2573.658863594044
 20
1365.7256738549054
 42
0.6931954142348844
 0
VERTEX
 8
0
 10
2536.8351590147176
 20
1313.2796496633505
 42
-0.27723166779335995
 0
VERTEX
 8
0
 10
2549.8812225300812
 20
1271.2350616900776
 42
-0.014487686265767777
 0
VERTEX
 8
0
 10
2545.762650313505
 20
1220.215705675638
 42
0.4422010813021609
 0
VERTEX
 8
0
 10
2571.31411949468
 20
1185.7464003207815
 0
VERTEX
 8
0
 10
2591.093383536144
 20
1182.6864552655343
 0
VERTEX
 8
0
 10
2601.1625892146676
 20
1182.3256124961658
 42
-0.21813820798529332
 0
VERTEX
 8
0
 10
2638.892381716163
 20
1171.5076425211553
 42
0.3720570467727161
 0
VERTEX
 8
0
 10
2681.765411758863
 20
1162.000830237316
 0
VERTEX
 8
0
 10
2698.827915667133
 20
1170.6050802048
 42
-0.06294005278430745
 0
VERTEX
 8
0
 10
2730.814778235541
 20
1190.642416594303
 42
-0.28196628274996827
 0
VERTEX
 8
0
 10
2776.438944655874
 20
1186.989039588756
 42
0.0826074281935984
 0
VERTEX
 8
0
 10
2863.240124585523
 20
1158.8337810787825
 42
0.1821292082574588
 0
VERTEX
 8
0
 10
2927.7117750234065
 20
1173.4955247759287
 42
0.37107264373183085
 0
VERTEX
 8
0
 10
2928.8609378521974
 20
1184.9312398018942
 42
0.08080884275840011
 0
VERTEX
 8
0
 10
2888.3027770393455
 20
1199.1319943362723
 0
VERTEX
 8
0
 10
2863.806494728051
 20
1208.3568329008176
 42
-0.4059462887046914
 0
VERTEX
 8
0
 10
2848.5561765131274
 20
1331.587011307726
 42
-0.1848846175162098
 0
VERTEX
 8
0
 10
2941.5116990934357
 20
1405.7511572770238
 0
SEQEND
 8
0
 0
ARC
 8
0
 62
0
 10
1929.117971118394
 20
-1033.108621893294
 40
859.0307618792438
 50
-8.230433999887685
 51
-0.22285600003526196
 0
POLYLINE
 8
0
 62
0
 66
1
 10
0
 20
0
 70
0
 0
VERTEX
 8
0
 10
2779.3011006840525
 20
-1156.0828775691932
 42
0.039561193387872465
 0
VERTEX
 8
0
 10
2779.6922093827798
 20
-1229.3480469372673
 42
-0.025218572243920635
 0
VERTEX
 8
0
 10
2788.1515195246993
 20
-1386.341468416994
 42
-0.4975940398470939
 0
VERTEX
 8
0
 10
2680.757522364223
 20
-1454.0148614227573
 42
-0.058331188563334115
 0
VERTEX
 8
0
 10
2640.1707241849954
 20
-1437.3264562622348
 42
0.027963969615264237
 0
VERTEX
 8
0
 10
2612.248068118102
 20
-1434.5749974065973
 42
-0.06174034097840192
 0
VERTEX
 8
0
 10
2581.8868170873798
 20
-1429.6704175135792
 42
-0.6895705855544035
 0
VERTEX
 8
0
 10
2577.026924705369
 20
-1415.186135318871
 0
VERTEX
 8
0
 10
2592.7333804757714
 20
-1402.3007856756972
 42
0.505534921180189
 0
VERTEX
 8
0
 10
2586.215082212448
 20
-1336.193651720018
 42
0.019607354884805705
 0
VERTEX
 8
0
 10
2553.1277461126137
 20
-1316.284733407122
 42
-0.3024067772938526
 0
VERTEX
 8
0
 10
2521.610337039733
 20
-1237.6314344473276
 42
0.04190263210586429
 0
VERTEX
 8
0
 10
2523.0285856207383
 20
-1167.100056801696
 42
-0.012349099255697224
 0
VERTEX
 8
0
 10
2486.121523503547
 20
-1103.5298794677708
 42
-0.43682587016099855
 0
VERTEX
 8
0
 10
2496.476879812675
 20
-1075.584425683393
 0
VERTEX
 8
0
 10
2513.6250691338205
 20
-1068.4894270601355
 42
0.2762145287447495
 0
VERTEX
 8
0
 10
2565.0412670235087
 20
-1030.1260585919028
 42
-0.06841376686409989
 0
VERTEX
 8
0
 10
2586.6247500231275
 20
-996.8642995747397
 42
-0.26732920348542444
 0
VERTEX
 8
0
 10
2619.77213399837
 20
-987.602308019542
 0
VERTEX
 8
0
 10
2627.043273710758
 20
-988.0147450458197
 0
VERTEX
 8
0
 10
2639.9199464905632
 20
-1089.7768298751948
 0
VERTEX
 8
0
 10
2650.050018054471
 20
-1088.5821501033083
 0
VERTEX
 8
0
 10
2637.095589476722
 20
-986.2052235368614
 0
VERTEX
 8
0
 10
2642.978590423872
 20
-985.3726791592029
 0
VERTEX
 8
0
 10
2713.123359884867
 20
-973.8612867215065
 42
-0.45742576853257993
 0
VERTEX
 8
0
 10
2788.1423558998285
 20
-1036.4499202347663 
 0
SEQEND
 8
0
 0
ENDSEC
 0
EOF
